<svg width="420" height="420" viewBox="0 0 420 420" fill="none" xmlns="http://www.w3.org/2000/svg">
<g clip-path="url(#clip0_4_2003)">
<path d="M381.446 25.8802H244.572C241.22 25.8802 238.033 27.2019 235.671 29.57C233.308 31.938 231.989 35.1321 231.989 38.4914C231.989 81.3364 231.989 220.885 231.989 263.675C231.989 267.035 233.308 270.229 235.671 272.597C238.033 274.965 241.22 276.287 244.572 276.287C280.562 276.287 381.446 276.287 381.446 276.287V25.8802Z" fill="white"/>
<path d="M366.72 63.3282H236.33V261.252C236.33 263.786 238.363 265.823 240.891 265.823C261.056 265.823 341.994 265.823 362.159 265.823C364.687 265.823 366.72 263.786 366.72 261.252C366.72 231.129 366.72 63.3282 366.72 63.3282Z" fill="white"/>
<path d="M372.325 277.278H244.572C240.945 277.278 237.539 275.846 234.956 273.313C232.374 270.724 231 267.31 231 263.675V38.4914C231 34.8567 232.429 31.4423 234.956 28.854C237.539 26.2657 240.945 24.8889 244.572 24.8889H372.27C372.819 24.8889 373.259 25.3295 373.259 25.8802C373.259 26.4309 372.819 26.8715 372.27 26.8715H244.572C241.495 26.8715 238.528 28.083 236.385 30.2858C234.187 32.4887 232.978 35.4074 232.978 38.4914V263.675C232.978 266.759 234.187 269.733 236.385 271.881C238.583 274.084 241.495 275.295 244.572 275.295H372.27C372.819 275.295 373.259 275.736 373.259 276.287C373.259 276.837 372.819 277.278 372.325 277.278Z" fill="#142664"/>
<path d="M391.611 36.1233C391.611 33.3698 390.512 30.7814 388.589 28.854C386.666 26.9265 384.028 25.8251 381.336 25.8251C378.589 25.8251 376.006 26.9265 374.083 28.854C372.16 30.7814 371.061 33.4248 371.061 36.1233C371.061 76.7104 371.061 225.456 371.061 265.988C371.061 268.742 372.16 271.33 374.083 273.258C376.006 275.185 378.644 276.287 381.336 276.287C384.083 276.287 386.666 275.185 388.589 273.258C390.512 271.33 391.611 268.687 391.611 265.988C391.611 225.456 391.611 76.7104 391.611 36.1233Z" fill="#142664"/>
<path d="M256.88 36.3987H232.374C231.824 36.3987 231.385 35.9581 231.385 35.4074C231.385 34.8567 231.824 34.4161 232.374 34.4161H256.166C256.825 32.3235 257.979 30.396 259.518 28.854C262.1 26.2657 265.507 24.8889 269.133 24.8889C269.683 24.8889 270.123 25.3295 270.123 25.8802C270.123 26.4309 269.683 26.8715 269.133 26.8715C266.056 26.8715 263.089 28.083 260.946 30.2858C259.463 31.7728 258.419 33.6452 257.869 35.6828C257.759 36.0683 257.32 36.3987 256.88 36.3987Z" fill="#142664"/>
<path d="M371.061 36.3987H346.444C346.17 36.3987 345.84 36.2335 345.675 36.0132C345.51 35.7929 345.4 35.4625 345.51 35.1871C346.115 32.8191 347.324 30.6162 349.082 28.9091C351.664 26.3207 355.071 24.944 358.698 24.944C359.247 24.944 359.687 25.3845 359.687 25.9352C359.687 26.4859 359.247 26.9265 358.698 26.9265C355.621 26.9265 352.653 28.1381 350.511 30.3409C349.302 31.5525 348.423 32.9292 347.818 34.5263H371.116C371.665 34.5263 372.105 34.9668 372.105 35.5175C372.05 35.9581 371.61 36.3987 371.061 36.3987Z" fill="#142664"/>
<path d="M301.937 41.7984C305.154 41.7984 307.761 39.1849 307.761 35.9609C307.761 32.7369 305.154 30.1234 301.937 30.1234C298.72 30.1234 296.113 32.7369 296.113 35.9609C296.113 39.1849 298.72 41.7984 301.937 41.7984Z" fill="#142664"/>
<path d="M301.937 38.1637C303.151 38.1637 304.135 37.1775 304.135 35.9609C304.135 34.7443 303.151 33.7581 301.937 33.7581C300.723 33.7581 299.739 34.7443 299.739 35.9609C299.739 37.1775 300.723 38.1637 301.937 38.1637Z" fill="white"/>
<path d="M366.72 53.7459C366.72 51.2127 364.687 49.175 362.159 49.175C341.994 49.175 261.056 49.175 240.891 49.175C238.363 49.175 236.33 51.2127 236.33 53.7459C236.33 57.8762 236.33 63.3282 236.33 63.3282H366.72V53.7459Z" fill="#142664"/>
<path d="M358.862 57.711H348.038C347.214 57.711 346.554 57.0502 346.554 56.2241C346.554 55.398 347.214 54.7372 348.038 54.7372H358.862C359.687 54.7372 360.346 55.398 360.346 56.2241C360.346 57.0502 359.632 57.711 358.862 57.711Z" fill="white"/>
<path d="M337.213 58.9776C336.829 58.9776 336.444 58.7574 336.279 58.4269C336.114 58.0965 336.114 57.6559 336.334 57.3255C336.993 56.2792 337.873 55.0125 338.477 54.0213C338.697 53.6908 339.026 53.5256 339.356 53.5256C339.741 53.5256 340.07 53.6908 340.235 54.0213C340.84 55.0125 341.719 56.2792 342.378 57.3255C342.598 57.6559 342.598 58.0965 342.433 58.4269C342.268 58.7574 341.884 58.9776 341.499 58.9776H337.213Z" fill="white"/>
<path d="M242.539 58.0965C243.571 58.0965 244.407 57.2582 244.407 56.2241C244.407 55.19 243.571 54.3517 242.539 54.3517C241.507 54.3517 240.671 55.19 240.671 56.2241C240.671 57.2582 241.507 58.0965 242.539 58.0965Z" fill="white"/>
<path d="M248.968 58.0965C250 58.0965 250.836 57.2582 250.836 56.2241C250.836 55.19 250 54.3517 248.968 54.3517C247.936 54.3517 247.1 55.19 247.1 56.2241C247.1 57.2582 247.936 58.0965 248.968 58.0965Z" fill="white"/>
<path d="M255.397 58.0965C256.428 58.0965 257.265 57.2582 257.265 56.2241C257.265 55.19 256.428 54.3517 255.397 54.3517C254.365 54.3517 253.528 55.19 253.528 56.2241C253.528 57.2582 254.365 58.0965 255.397 58.0965Z" fill="white"/>
<path d="M385.622 231.018C386.654 231.018 387.49 230.18 387.49 229.146C387.49 228.112 386.654 227.274 385.622 227.274C384.59 227.274 383.754 228.112 383.754 229.146C383.754 230.18 384.59 231.018 385.622 231.018Z" fill="white"/>
<path d="M329.638 58.1362C330.669 58.1362 331.506 57.2979 331.506 56.2638C331.506 55.2297 330.669 54.3914 329.638 54.3914C328.606 54.3914 327.769 55.2297 327.769 56.2638C327.769 57.2979 328.606 58.1362 329.638 58.1362Z" fill="white"/>
<path d="M267.595 55.1778C267.595 54.7923 267.43 54.4619 267.21 54.1865C266.936 53.9112 266.606 53.801 266.221 53.801H264.023C263.639 53.801 263.309 53.9662 263.034 54.1865C262.76 54.4619 262.65 54.7923 262.65 55.1778V57.3806C262.65 57.7661 262.815 58.0965 263.034 58.3719C263.309 58.6472 263.639 58.7574 264.023 58.7574H266.221C266.606 58.7574 266.936 58.5922 267.21 58.3719C267.485 58.0965 267.595 57.7661 267.595 57.3806V55.1778Z" fill="white"/>
<path d="M379.797 95.7098C377.709 95.7098 376.061 94.0026 376.061 91.9099C376.061 83.7595 376.061 64.705 376.061 56.5545C376.061 54.4618 377.709 52.8097 379.797 52.7546H383.589V95.7098H379.797Z" fill="white"/>
<path d="M379.797 108.321H383.589V122.419H379.797C377.709 122.419 376.061 120.712 376.061 118.619V112.066C376.061 110.028 377.709 108.376 379.797 108.321Z" fill="white"/>
<path d="M387.325 56.5545C387.325 54.4618 385.622 52.7546 383.534 52.7546C381.446 52.7546 379.742 54.4618 379.742 56.5545C379.742 64.705 379.742 83.7595 379.742 91.9099C379.742 94.0026 381.446 95.7098 383.534 95.7098C385.622 95.7098 387.325 94.0026 387.325 91.9099C387.325 83.7595 387.325 64.6499 387.325 56.5545Z" fill="white"/>
<path d="M387.325 112.121C387.325 110.028 385.622 108.321 383.534 108.321C381.446 108.321 379.742 110.028 379.742 112.121V118.674C379.742 120.767 381.446 122.474 383.534 122.474C385.622 122.474 387.325 120.767 387.325 118.674V112.121Z" fill="white"/>
<path d="M376.61 227.604C376.501 227.604 376.336 227.604 376.226 227.549C375.841 227.384 375.621 227.053 375.621 226.668V184.814C375.621 184.263 376.061 183.823 376.61 183.823H386.281C386.831 183.823 387.27 184.263 387.27 184.814V216.975C387.27 217.251 387.16 217.471 386.995 217.691L377.325 227.384C377.105 227.494 376.83 227.604 376.61 227.604ZM377.545 185.75V224.245L385.237 216.535V185.75H377.545Z" fill="white"/>
<path d="M245.616 272.487C245.396 272.487 245.121 272.432 244.902 272.322C243.858 271.716 243.308 270.78 243.198 270.614C242.814 269.899 243.088 269.017 243.803 268.632C244.517 268.246 245.396 268.522 245.781 269.183C245.836 269.293 246.056 269.568 246.33 269.733C247.045 270.119 247.264 271.055 246.88 271.716C246.66 272.267 246.165 272.487 245.616 272.487Z" fill="#142664"/>
<path d="M252.1 272.487C251.88 272.487 251.605 272.432 251.385 272.322C250.341 271.716 249.792 270.78 249.682 270.614C249.297 269.899 249.572 269.017 250.287 268.632C251.001 268.246 251.88 268.522 252.265 269.183C252.32 269.293 252.539 269.568 252.814 269.733C253.528 270.119 253.748 271.055 253.364 271.716C253.144 272.267 252.649 272.487 252.1 272.487Z" fill="#142664"/>
<path d="M258.584 272.487C258.364 272.487 258.089 272.432 257.869 272.322C256.825 271.716 256.276 270.78 256.166 270.614C255.781 269.899 256.056 269.017 256.77 268.632C257.485 268.246 258.364 268.522 258.748 269.183C258.803 269.293 259.023 269.568 259.298 269.733C260.012 270.119 260.232 271.055 259.847 271.716C259.628 272.267 259.133 272.487 258.584 272.487Z" fill="#142664"/>
<path d="M387.325 73.241H379.797V75.2235H387.325V73.241Z" fill="#142664"/>
</g>
<g clip-path="url(#clip1_4_2003)">
<path d="M111.747 291.759C111.747 291.759 114.317 361.546 115.052 380.829C115.052 382.115 114.684 383.401 113.767 384.319C112.849 385.237 111.564 385.788 110.279 385.788C106.791 385.788 102.385 385.788 99.0803 385.788C96.5102 385.788 94.4908 383.768 94.3072 381.38C93.3893 367.239 90.452 324.082 90.452 324.082C90.452 323.714 90.452 323.531 90.452 323.163V322.98C90.0849 318.388 77.0508 318.572 76.6836 322.98V323.163C76.6836 323.347 76.6836 323.714 76.6836 323.898C76.6836 323.898 73.7464 367.239 72.6449 381.38C72.4613 383.952 70.4419 385.788 67.8718 385.788C64.5674 385.788 59.9779 385.788 56.6735 385.788C55.3885 385.788 54.1034 385.237 53.1855 384.319C52.2676 383.401 51.9005 382.115 51.9005 380.829C52.6348 361.546 55.572 291.759 55.572 291.759H111.747Z" fill="white"/>
<path d="M74.8479 325.183C74.8479 325.183 74.2971 325.551 73.1956 325.734C72.6449 325.918 72.0942 325.918 71.5434 325.918C71.1763 325.918 70.9927 325.734 70.6255 325.734C69.3405 325.183 68.6062 324.633 68.6062 324.633C67.1375 324.449 66.0361 323.163 66.2196 321.694C66.4032 320.225 67.6883 319.123 69.1569 319.307C69.1569 319.307 70.0748 318.939 71.3599 318.756C71.727 318.756 71.9106 318.572 72.2777 318.756C72.8285 318.756 73.3792 319.123 73.7464 319.307C74.6643 319.674 75.215 320.041 75.215 320.041C76.6836 320.225 77.7851 321.51 77.6015 322.98C77.6015 324.265 76.3165 325.367 74.8479 325.183Z" fill="#142664"/>
<path d="M68.0555 172.57H106.607C106.607 172.57 109.177 171.836 109.177 186.895C109.177 201.954 102.385 216.646 97.0609 216.646H93.9401V217.381C93.9401 218.299 93.5729 219.218 93.0222 219.768C92.4715 220.319 91.5536 220.687 90.6357 220.687C85.679 220.687 76.5001 220.687 71.5435 220.687C70.6256 220.687 69.7077 220.319 69.1569 219.768C68.6062 219.218 68.239 218.299 68.239 217.381C68.0555 206.362 68.0555 172.57 68.0555 172.57Z" fill="#FF2E93"/>
<path d="M71.1763 205.627C52.6348 208.749 42.9051 157.511 65.3017 159.715C94.858 126.841 132.492 157.878 106.24 176.427C105.873 176.794 105.322 176.794 104.771 176.794C98.8967 176.794 99.631 186.528 99.2639 190.752C98.8967 194.608 93.9401 193.874 93.9401 190.201C94.1236 181.386 85.679 183.222 86.5969 188.732C87.5148 194.057 86.9641 206.362 71.1763 205.627Z" fill="#142664"/>
<path d="M98.7131 170.183C98.7131 170.183 100.365 181.018 99.0803 192.405C98.5296 197.363 97.4281 202.505 95.4087 206.913C95.0416 207.831 93.9401 208.382 93.0222 208.015C92.1043 207.647 91.5536 206.546 91.9207 205.627C93.3894 201.587 93.7565 196.812 93.7565 192.221C93.7565 181.569 91.37 171.836 91.37 171.836C91.0029 169.816 92.2879 167.795 94.3073 167.428C96.3266 166.877 98.346 168.163 98.7131 170.183Z" fill="#142664"/>
<path d="M109.177 216.635C101.924 213.205 95.2251 213.157 80.5388 213.157C66.2196 213.157 61.0794 215.545 54.6542 218.85C48.9632 221.238 44.9245 226.747 44.9245 233.359C44.9245 240.521 49.8811 246.581 56.49 248.418L55.9392 298.003H111.931L113.399 244.745C116.337 241.99 118.173 237.95 118.173 233.542C117.989 227.115 120.743 222.707 115.235 220.136C115.235 220.136 110.758 217.383 109.177 216.635Z" fill="#142664"/>
<path d="M51.7169 393.318C51.7169 394.052 51.9005 394.603 52.4513 395.154C53.002 395.705 53.5527 395.889 54.287 395.889C59.2437 395.889 70.442 395.889 74.2971 395.889C75.215 395.889 75.9493 395.338 76.1329 394.42C75.9493 392.951 75.215 390.196 72.0942 387.074C71.1763 386.339 70.0748 385.788 68.9733 385.788C65.8525 385.788 59.0601 385.788 55.0213 385.788C54.1034 385.788 53.3691 386.156 52.6348 386.706C52.0841 387.257 51.7169 388.176 51.7169 389.094C51.7169 390.379 51.7169 392.032 51.7169 393.318Z" fill="#142664"/>
<path d="M93.7565 393.318C93.7565 394.052 93.9401 394.603 94.4908 395.154C95.0415 395.705 95.5923 395.889 96.3266 395.889C101.283 395.889 112.482 395.889 116.337 395.889C117.255 395.889 117.989 395.338 118.172 394.42C117.989 392.951 117.255 390.196 114.134 387.074C113.216 386.339 112.114 385.788 111.013 385.788C107.892 385.788 101.1 385.788 97.0609 385.788C96.143 385.788 95.4087 386.156 94.6744 386.706C94.1236 387.257 93.7565 388.176 93.7565 389.094C93.7565 390.379 93.7565 392.032 93.7565 393.318Z" fill="#142664"/>
<path d="M162.231 205.995C162.048 206.178 161.864 206.178 161.864 206.178C161.681 206.178 161.497 205.995 161.497 205.811C160.946 203.975 159.111 202.873 157.275 203.424C155.439 203.975 154.338 205.811 154.888 207.648C155.623 210.035 155.99 212.239 156.173 214.259C156.173 214.443 156.173 214.81 156.173 214.994C156.173 214.994 156.173 215.177 155.99 215.177H155.806C154.521 213.524 152.135 214.626 151.4 216.279C150.666 217.748 150.85 224.176 153.787 227.114C153.787 227.114 165.169 243.643 169.391 230.42C169.575 230.053 169.575 229.869 169.758 229.502C170.676 227.482 172.879 222.34 173.43 214.626C173.613 212.79 172.145 210.953 170.125 210.953C169.942 210.953 169.575 210.953 169.391 210.953C169.024 210.953 168.84 210.953 168.657 210.77C168.473 210.586 168.29 210.402 168.29 210.035C168.29 209.484 168.29 208.933 168.106 208.198C167.922 206.362 166.27 204.893 164.434 204.893C163.516 205.076 162.782 205.444 162.231 205.995Z" fill="#FF2E93"/>
<path d="M115.235 220.136C128.086 227.849 147.912 244.194 151.951 226.747C154.521 215.912 169.391 220.136 169.207 230.236C168.657 262.008 131.757 266.048 109.177 247.867C109.177 247.867 90.0849 229.502 115.235 220.136Z" fill="#142664"/>
<path d="M77.6015 233.726C67.3211 244.561 47.1274 260.355 63.2824 268.068C73.3792 272.843 66.036 286.434 56.1228 284.23C25.0979 276.884 27.8516 230.787 55.3885 218.483C55.572 218.483 73.7464 207.28 77.6015 233.726Z" fill="#142664"/>
<path d="M110.279 255.764C110.279 255.764 108.994 255.397 106.791 254.478C105.873 254.111 104.771 253.376 103.853 252.642C103.303 252.275 102.935 251.724 102.385 250.989C101.467 249.704 100.549 248.234 99.8146 246.581C98.8967 245.296 99.2639 243.643 100.549 242.725C101.834 241.807 103.486 242.174 104.404 243.459C104.955 244.01 105.506 244.378 106.056 244.929C106.974 245.663 107.892 246.214 108.626 246.949C109.361 247.683 109.911 248.418 110.462 248.785C111.747 249.887 112.298 250.622 112.298 250.622C113.583 251.173 114.317 252.826 113.583 254.295C112.849 255.764 111.564 256.315 110.279 255.764Z" fill="white"/>
<path d="M50.9825 279.455C50.799 278.353 50.4318 276.149 49.8811 273.211C49.5139 271.374 49.3303 268.987 49.1468 266.599C49.1468 265.314 49.1468 264.028 49.1468 262.559C49.3303 259.621 49.6975 256.498 50.2482 253.193C50.2482 251.724 51.5333 250.438 53.1855 250.622C54.6541 250.622 55.9392 251.907 55.7556 253.56C55.9392 256.866 56.1227 259.804 56.3063 262.559C56.4899 263.844 56.4899 265.13 56.4899 266.416C56.4899 268.803 56.4899 271.007 56.4899 272.843C56.4899 276.149 56.4899 278.353 56.3063 279.638C56.3063 281.108 55.0213 282.393 53.5526 282.393C52.2676 282.209 50.9825 280.924 50.9825 279.455Z" fill="white"/>
<path d="M55.572 180.284C46.5485 180.284 39.2335 172.966 39.2335 163.939C39.2335 154.912 46.5485 147.594 55.572 147.594C64.5955 147.594 71.9105 154.912 71.9105 163.939C71.9105 172.966 64.5955 180.284 55.572 180.284Z" fill="#142664"/>
<path d="M41.8037 142.635L49.514 152.736C50.2483 153.47 50.2483 154.572 49.514 155.307C48.7796 156.041 47.6782 156.041 46.9439 155.307L36.6634 147.961C35.1948 146.492 35.1948 144.288 36.4799 142.819C37.9485 141.166 40.335 141.166 41.8037 142.635Z" fill="#FF2E93"/>
<path d="M31.8903 157.511L44.0066 161.184C44.9245 161.368 45.6588 162.286 45.4752 163.204C45.2916 164.122 44.3737 164.857 43.4559 164.673H30.7889C28.7695 164.306 27.3009 162.47 27.668 160.449C27.8516 158.429 29.871 157.144 31.8903 157.511Z" fill="#FF2E93"/>
</g>
<g clip-path="url(#clip2_4_2003)">
<path d="M98.7073 86.3406C98.8313 86.3406 98.9553 86.3406 98.9553 86.2189C100.444 83.9055 103.048 82.4445 106.024 82.4445C110.613 82.4445 114.333 86.0971 114.333 90.602V90.7238V90.8455C113.961 99.9772 98.5833 108.5 98.5833 108.5C98.5833 108.5 84.5695 100.586 82.9573 92.1849C82.8333 91.6978 82.8333 91.2108 82.8333 90.602C82.8333 86.0971 86.5538 82.4445 91.1423 82.4445C94.1187 82.4445 96.723 83.9055 98.2112 86.2189C98.3353 86.3406 98.3353 86.3406 98.4593 86.3406C98.5833 86.3406 98.5833 86.3406 98.7073 86.3406Z" fill="#142664"/>
</g>
<g clip-path="url(#clip3_4_2003)">
<path d="M85.4422 118.059C85.5234 118.059 85.6045 118.059 85.6045 117.979C86.5783 116.46 88.2824 115.5 90.2299 115.5C93.2323 115.5 95.6666 117.899 95.6666 120.857V120.937V121.017C95.4232 127.014 85.3611 132.611 85.3611 132.611C85.3611 132.611 76.1916 127.414 75.1367 121.897C75.0555 121.577 75.0555 121.257 75.0555 120.857C75.0555 117.899 77.4899 115.5 80.4923 115.5C82.4398 115.5 84.1439 116.46 85.1177 117.979C85.1988 118.059 85.1988 118.059 85.2799 118.059C85.3611 118.059 85.3611 118.059 85.4422 118.059Z" fill="#142664"/>
</g>
<g clip-path="url(#clip4_4_2003)">
<path d="M70.4502 50.5882C70.5114 50.5882 70.5727 50.5882 70.5727 50.5264C71.3076 49.3525 72.5937 48.6111 74.0635 48.6111C76.3295 48.6111 78.1667 50.4647 78.1667 52.7507V52.8125V52.8743C77.983 57.5083 70.3889 61.8333 70.3889 61.8333C70.3889 61.8333 63.4685 57.8172 62.6724 53.554C62.6111 53.3068 62.6111 53.0597 62.6111 52.7507C62.6111 50.4647 64.4484 48.6111 66.7144 48.6111C68.1842 48.6111 69.4703 49.3525 70.2052 50.5264C70.2665 50.5882 70.2665 50.5882 70.3277 50.5882C70.3889 50.5882 70.3889 50.5882 70.4502 50.5882Z" fill="#142664"/>
</g>
<g clip-path="url(#clip5_4_2003)">
<path d="M266.389 143.079C266.389 142.695 266.534 142.31 266.823 142.022C267.112 141.733 267.498 141.589 267.884 141.589C276.421 141.589 318.142 141.637 326.63 141.685C327.45 141.685 328.174 142.358 328.174 143.224C328.174 144.474 328.174 146.204 328.174 147.454C328.174 147.839 328.029 148.223 327.74 148.512C327.45 148.8 327.065 148.945 326.679 148.945C318.142 148.945 276.421 148.945 267.932 148.945C267.546 148.945 267.161 148.8 266.871 148.512C266.582 148.223 266.437 147.839 266.437 147.454C266.389 146.156 266.389 144.329 266.389 143.079Z" fill="#FF2E93"/>
<path d="M266.389 106.879C266.389 106.495 266.534 106.11 266.823 105.822C267.112 105.533 267.498 105.389 267.884 105.389C273.431 105.389 292.579 105.389 298.125 105.389C298.511 105.389 298.897 105.533 299.187 105.822C299.476 106.11 299.621 106.495 299.621 106.879C299.621 108.129 299.621 109.956 299.621 111.206C299.621 111.591 299.476 111.975 299.187 112.264C298.897 112.552 298.511 112.696 298.125 112.696C292.579 112.696 273.431 112.696 267.884 112.696C267.498 112.696 267.112 112.552 266.823 112.264C266.534 111.975 266.389 111.591 266.389 111.206C266.389 109.956 266.389 108.177 266.389 106.879Z" fill="#142664"/>
<path d="M266.389 131.013C266.389 130.628 266.534 130.195 266.823 129.955C267.112 129.667 267.498 129.522 267.932 129.522C269.91 129.522 273.382 129.57 275.36 129.57C276.18 129.57 276.855 130.243 276.855 131.109C276.855 132.359 276.855 134.137 276.855 135.387C276.855 136.205 276.18 136.926 275.312 136.926C273.334 136.926 269.862 136.926 267.884 136.926C267.498 136.926 267.112 136.782 266.823 136.493C266.534 136.205 266.389 135.82 266.389 135.436C266.389 134.089 266.389 132.311 266.389 131.013Z" fill="#FF2E93"/>
<path d="M280.955 131.013C280.955 130.628 281.1 130.243 281.389 129.955C281.678 129.667 282.064 129.522 282.45 129.522C288.383 129.522 309.894 129.57 315.827 129.618C316.646 129.618 317.37 130.292 317.37 131.157C317.37 132.407 317.37 134.137 317.37 135.387C317.37 135.772 317.225 136.157 316.936 136.445C316.646 136.734 316.261 136.878 315.875 136.878C309.942 136.878 288.479 136.878 282.498 136.878C282.112 136.878 281.727 136.734 281.437 136.445C281.148 136.157 281.003 135.772 281.003 135.387C280.955 134.089 280.955 132.311 280.955 131.013Z" fill="#142664"/>
<path d="M304.154 106.879C304.154 106.495 304.299 106.11 304.589 105.822C304.878 105.533 305.264 105.389 305.65 105.389C309.99 105.389 322.338 105.437 326.679 105.485C327.499 105.485 328.222 106.158 328.222 107.023C328.222 108.273 328.222 110.004 328.222 111.254C328.222 112.071 327.547 112.792 326.679 112.792C322.338 112.792 309.99 112.792 305.65 112.792C305.264 112.792 304.878 112.648 304.589 112.36C304.299 112.071 304.154 111.687 304.154 111.302C304.154 109.956 304.154 108.177 304.154 106.879Z" fill="#FF2E93"/>
<path d="M266.389 118.946C266.389 118.561 266.534 118.177 266.823 117.888C267.112 117.6 267.498 117.456 267.884 117.456C276.421 117.456 318.142 117.504 326.63 117.552C327.45 117.552 328.174 118.225 328.174 119.09C328.174 120.34 328.174 122.071 328.174 123.321C328.174 123.705 328.029 124.09 327.74 124.378C327.45 124.667 327.065 124.811 326.679 124.811C318.142 124.811 276.421 124.811 267.932 124.811C267.546 124.811 267.161 124.667 266.871 124.378C266.582 124.09 266.437 123.705 266.437 123.321C266.389 122.023 266.389 120.244 266.389 118.946Z" fill="#FF2E93"/>
</g>
<g clip-path="url(#clip6_4_2003)">
<path d="M43.6871 397.444H379.424C380.308 397.444 381.111 396.778 381.111 395.889C381.111 395.074 380.388 394.333 379.424 394.333H43.6871C42.8034 394.333 42 395 42 395.889C42.0803 396.778 42.8034 397.444 43.6871 397.444Z" fill="#142664"/>
</g>
<g clip-path="url(#clip7_4_2003)">
<path d="M278.322 309.433C278.5 308.9 278.678 308.544 278.678 308.544C278.678 307.122 279.744 306.056 281.167 306.056C282.589 306.056 283.656 307.122 283.656 308.544C283.656 308.544 283.833 308.9 284.011 309.433C284.544 309.611 284.9 309.789 284.9 309.789C286.322 309.789 287.389 310.856 287.389 312.278C287.389 313.7 286.322 314.767 284.9 314.767C284.9 314.767 284.544 314.944 284.011 315.122C283.833 315.656 283.656 316.011 283.656 316.011C283.656 317.433 282.589 318.5 281.167 318.5C279.744 318.5 278.678 317.433 278.678 316.011C278.678 316.011 278.5 315.656 278.322 315.122C277.789 314.944 277.433 314.767 277.433 314.767C276.011 314.767 274.944 313.7 274.944 312.278C274.944 310.856 276.011 309.789 277.433 309.789C277.433 309.789 277.789 309.611 278.322 309.433Z" fill="#FF2E93"/>
</g>
<g clip-path="url(#clip8_4_2003)">
<path d="M234.205 348.928C234.333 348.544 234.461 348.289 234.461 348.289C234.461 347.267 235.228 346.5 236.25 346.5C237.272 346.5 238.039 347.267 238.039 348.289C238.039 348.289 238.167 348.544 238.294 348.928C238.678 349.056 238.933 349.183 238.933 349.183C239.956 349.183 240.722 349.95 240.722 350.972C240.722 351.994 239.956 352.761 238.933 352.761C238.933 352.761 238.678 352.889 238.294 353.017C238.167 353.4 238.039 353.656 238.039 353.656C238.039 354.678 237.272 355.444 236.25 355.444C235.228 355.444 234.461 354.678 234.461 353.656C234.461 353.656 234.333 353.4 234.205 353.017C233.822 352.889 233.567 352.761 233.567 352.761C232.544 352.761 231.778 351.994 231.778 350.972C231.778 349.95 232.544 349.183 233.567 349.183C233.567 349.183 233.822 349.056 234.205 348.928Z" fill="#FF2E93"/>
</g>
<g clip-path="url(#clip9_4_2003)">
<path d="M159.98 161.067C159.98 161.067 157.895 160.826 155.074 160.706C153.602 160.586 151.885 160.466 150.168 160.466C149.187 160.466 148.206 160.466 147.224 160.586C143.422 160.826 140.356 161.067 140.356 161.067C139.375 161.067 138.639 161.788 138.639 162.75C138.639 163.712 139.375 164.433 140.356 164.433C140.356 164.433 143.422 164.794 147.224 164.914C148.206 164.914 149.187 165.034 150.168 165.034C151.885 165.034 153.602 164.914 155.074 164.794C157.895 164.674 159.98 164.433 159.98 164.433C160.961 164.433 161.697 163.712 161.697 162.75C161.697 161.788 160.961 161.067 159.98 161.067Z" fill="#FF2E93"/>
<path d="M170.528 180.064C170.528 180.064 169.301 181.747 167.707 184.031C166.848 185.234 165.99 186.676 165.131 188.119C164.641 188.961 164.15 189.802 163.782 190.644C162.065 193.89 160.838 196.776 160.838 196.776C160.348 197.618 160.593 198.579 161.452 199.06C162.31 199.541 163.291 199.301 163.782 198.459C163.782 198.459 165.622 195.934 167.707 192.928C168.197 192.087 168.811 191.365 169.301 190.524C170.16 189.081 170.896 187.638 171.632 186.316C172.858 183.791 173.717 181.987 173.717 181.987C174.207 181.146 173.962 180.184 173.103 179.703C171.999 178.981 171.018 179.222 170.528 180.064Z" fill="#FF2E93"/>
<path d="M159.121 173.451C159.121 173.451 158.14 173.811 156.791 174.292C156.055 174.533 155.319 174.894 154.583 175.374C154.093 175.615 153.725 175.855 153.357 176.216C151.762 177.298 150.659 178.38 150.659 178.38C149.8 178.861 149.555 179.943 150.045 180.665C150.536 181.506 151.64 181.747 152.376 181.266C152.376 181.266 153.847 180.785 155.565 180.064C156.055 179.823 156.423 179.703 156.914 179.462C157.65 178.981 158.385 178.501 158.876 178.14C159.98 177.298 160.838 176.577 160.838 176.577C161.697 176.096 161.942 175.014 161.452 174.292C161.084 173.33 159.98 172.97 159.121 173.451Z" fill="#FF2E93"/>
<path d="M173.103 145.797C173.962 145.316 174.207 144.354 173.717 143.513C173.717 143.513 172.858 141.709 171.632 139.184C170.896 137.862 170.16 136.419 169.301 134.976C168.811 134.134 168.197 133.413 167.707 132.571C165.622 129.566 163.782 127.041 163.782 127.041C163.291 126.199 162.31 125.959 161.452 126.44C160.593 126.921 160.348 127.882 160.838 128.724C160.838 128.724 162.065 131.61 163.782 134.856C164.15 135.698 164.641 136.539 165.131 137.381C165.99 138.824 166.848 140.266 167.707 141.469C169.301 143.753 170.528 145.436 170.528 145.436C171.018 146.278 172 146.518 173.103 145.797Z" fill="#FF2E93"/>
<path d="M159.121 152.049C159.98 152.53 161.084 152.169 161.452 151.208C161.942 150.486 161.697 149.404 160.838 148.923C160.838 148.923 159.98 148.202 158.876 147.36C158.385 146.999 157.65 146.519 156.914 146.038C156.423 145.797 156.055 145.677 155.565 145.436C153.847 144.715 152.376 144.234 152.376 144.234C151.64 143.753 150.536 143.994 150.045 144.835C149.555 145.557 149.8 146.639 150.659 147.12C150.659 147.12 151.762 148.202 153.357 149.284C153.725 149.645 154.093 149.885 154.583 150.126C155.319 150.606 156.055 150.967 156.791 151.208C158.14 151.689 159.121 152.049 159.121 152.049Z" fill="#FF2E93"/>
</g>
<g clip-path="url(#clip10_4_2003)">
<path d="M211.397 303.564C211.566 301.453 211.735 299.849 211.735 299.849C211.735 299.173 212.241 298.667 212.917 298.667C213.592 298.667 214.099 299.173 214.099 299.849C214.099 299.849 214.352 301.537 214.436 303.564C214.859 303.564 215.196 303.648 215.534 303.648C217.054 303.732 218.151 303.901 218.151 303.901C218.827 303.901 219.333 304.408 219.333 305.083C219.333 305.759 218.827 306.265 218.151 306.265C218.151 306.265 217.054 306.434 215.534 306.519C215.196 306.519 214.859 306.603 214.436 306.603C214.436 307.025 214.352 307.363 214.352 307.701C214.268 309.22 214.099 310.318 214.099 310.318C214.099 310.993 213.592 311.5 212.917 311.5C212.241 311.5 211.735 310.993 211.735 310.318C211.735 310.318 211.566 309.22 211.481 307.701C211.481 307.363 211.397 306.941 211.397 306.603C209.371 306.434 207.682 306.265 207.682 306.265C207.007 306.265 206.5 305.759 206.5 305.083C206.5 304.408 207.007 303.901 207.682 303.901C207.682 303.901 209.286 303.648 211.397 303.564Z" fill="#FF2E93"/>
</g>
<g clip-path="url(#clip11_4_2003)">
<path d="M191.139 371.194C191.333 368.764 191.528 366.917 191.528 366.917C191.528 366.139 192.111 365.556 192.889 365.556C193.667 365.556 194.25 366.139 194.25 366.917C194.25 366.917 194.542 368.861 194.639 371.194C195.125 371.194 195.514 371.292 195.903 371.292C197.653 371.389 198.917 371.583 198.917 371.583C199.694 371.583 200.278 372.167 200.278 372.944C200.278 373.722 199.694 374.306 198.917 374.306C198.917 374.306 197.653 374.5 195.903 374.597C195.514 374.597 195.125 374.694 194.639 374.694C194.639 375.181 194.542 375.569 194.542 375.958C194.444 377.708 194.25 378.972 194.25 378.972C194.25 379.75 193.667 380.333 192.889 380.333C192.111 380.333 191.528 379.75 191.528 378.972C191.528 378.972 191.333 377.708 191.236 375.958C191.236 375.569 191.139 375.083 191.139 374.694C188.806 374.5 186.861 374.306 186.861 374.306C186.083 374.306 185.5 373.722 185.5 372.944C185.5 372.167 186.083 371.583 186.861 371.583C186.861 371.583 188.708 371.292 191.139 371.194Z" fill="#FF2E93"/>
</g>
<g clip-path="url(#clip12_4_2003)">
<path d="M314.376 296.487C314.488 295.08 314.601 294.01 314.601 294.01C314.601 293.56 314.939 293.222 315.389 293.222C315.839 293.222 316.177 293.56 316.177 294.01C316.177 294.01 316.346 295.136 316.402 296.487C316.683 296.487 316.909 296.543 317.134 296.543C318.147 296.599 318.879 296.712 318.879 296.712C319.329 296.712 319.667 297.05 319.667 297.5C319.667 297.95 319.329 298.288 318.879 298.288C318.879 298.288 318.147 298.401 317.134 298.457C316.909 298.457 316.683 298.513 316.402 298.513C316.402 298.795 316.346 299.02 316.346 299.245C316.289 300.258 316.177 300.99 316.177 300.99C316.177 301.44 315.839 301.778 315.389 301.778C314.939 301.778 314.601 301.44 314.601 300.99C314.601 300.99 314.488 300.258 314.432 299.245C314.432 299.02 314.376 298.738 314.376 298.513C313.025 298.401 311.899 298.288 311.899 298.288C311.449 298.288 311.111 297.95 311.111 297.5C311.111 297.05 311.449 296.712 311.899 296.712C311.899 296.712 312.969 296.543 314.376 296.487Z" fill="#FF2E93"/>
</g>
<g clip-path="url(#clip13_4_2003)">
<path d="M280.967 353.689C281.054 352.602 281.141 351.776 281.141 351.776C281.141 351.428 281.402 351.167 281.75 351.167C282.098 351.167 282.359 351.428 282.359 351.776C282.359 351.776 282.489 352.645 282.533 353.689C282.75 353.689 282.924 353.733 283.098 353.733C283.881 353.776 284.447 353.863 284.447 353.863C284.795 353.863 285.056 354.124 285.056 354.472C285.056 354.82 284.795 355.081 284.447 355.081C284.447 355.081 283.881 355.168 283.098 355.212C282.924 355.212 282.75 355.255 282.533 355.255C282.533 355.473 282.489 355.647 282.489 355.821C282.446 356.603 282.359 357.169 282.359 357.169C282.359 357.517 282.098 357.778 281.75 357.778C281.402 357.778 281.141 357.517 281.141 357.169C281.141 357.169 281.054 356.603 281.011 355.821C281.011 355.647 280.967 355.429 280.967 355.255C279.923 355.168 279.053 355.081 279.053 355.081C278.705 355.081 278.444 354.82 278.444 354.472C278.444 354.124 278.705 353.863 279.053 353.863C279.053 353.863 279.88 353.733 280.967 353.689Z" fill="#FF2E93"/>
</g>
<g clip-path="url(#clip14_4_2003)">
<path d="M156.074 377.741C156.265 376.692 156.36 375.834 156.36 375.834C156.36 375.072 156.932 374.5 157.694 374.5C158.457 374.5 159.029 375.072 159.029 375.834C159.029 375.834 159.219 376.597 159.315 377.741H159.41C160.459 377.836 161.221 378.027 161.221 378.027C161.984 378.027 162.556 378.599 162.556 379.361C162.556 380.124 161.984 380.696 161.221 380.696C161.221 380.696 160.459 380.886 159.41 380.981H159.315V381.077C159.219 382.125 159.029 382.888 159.029 382.888C159.029 383.65 158.457 384.222 157.694 384.222C156.932 384.222 156.36 383.65 156.36 382.888C156.36 382.888 156.169 382.125 156.074 381.077V380.981C155.026 380.791 154.168 380.696 154.168 380.696C153.405 380.696 152.833 380.124 152.833 379.361C152.833 378.599 153.405 378.027 154.168 378.027C154.168 378.122 154.93 377.931 156.074 377.741Z" fill="#FF2E93"/>
</g>
<g clip-path="url(#clip15_4_2003)">
<path d="M264.472 288.972C264.556 288.722 264.639 288.556 264.639 288.556C264.639 287.889 265.139 287.389 265.806 287.389C266.472 287.389 266.972 287.889 266.972 288.556C266.972 288.556 267.056 288.722 267.139 288.972C267.389 289.056 267.555 289.139 267.555 289.139C268.222 289.139 268.722 289.639 268.722 290.306C268.722 290.972 268.222 291.472 267.555 291.472C267.555 291.472 267.389 291.556 267.139 291.639C267.056 291.889 266.972 292.056 266.972 292.056C266.972 292.722 266.472 293.222 265.806 293.222C265.139 293.222 264.639 292.722 264.639 292.056C264.639 292.056 264.556 291.889 264.472 291.639C264.222 291.556 264.056 291.472 264.056 291.472C263.389 291.472 262.889 290.972 262.889 290.306C262.889 289.639 263.389 289.139 264.056 289.139C264.056 289.139 264.222 289.056 264.472 288.972Z" fill="#FF2E93"/>
</g>
<g clip-path="url(#clip16_4_2003)">
<path d="M164.591 80.9802L164.503 105.397C164.501 105.993 164.333 106.577 164.028 107.048C163.723 107.518 163.3 107.844 162.834 107.97L143.74 113.118C142.615 113.421 142.102 115.83 143.039 116.403L159.823 126.622C160.637 127.118 161.564 127.271 162.471 127.06C165.353 126.389 172.928 124.349 176.876 123.279C177.572 123.092 178.203 122.605 178.659 121.904C179.114 121.203 179.365 120.331 179.369 119.441C179.396 114.384 179.437 104.679 179.368 101.017C179.346 99.8632 179.035 98.7612 178.478 97.8685L167.017 79.4471C166.375 78.4167 164.596 79.5409 164.591 80.9802Z" fill="#FF2E93"/>
<path d="M214.186 210.394C213.695 210.737 213.122 210.824 212.594 210.637C212.067 210.45 211.628 210.004 211.374 209.397L173.154 118.059C172.899 117.452 172.851 116.733 173.019 116.061C173.187 115.389 173.558 114.819 174.05 114.476C174.541 114.133 175.114 114.046 175.642 114.233C176.169 114.42 176.608 114.866 176.862 115.474L215.082 206.811C215.336 207.418 215.385 208.137 215.217 208.809C215.049 209.481 214.678 210.051 214.186 210.394Z" fill="#142664"/>
<path d="M188.451 80.4867L175.245 98.9767C174.923 99.4288 174.489 99.7295 174.018 99.8265C173.548 99.9234 173.072 99.8103 172.673 99.507L156.343 87.1049C155.38 86.374 153.718 87.7686 154.076 89.0067L160.498 111.117C160.808 112.191 161.385 113.101 162.144 113.716C164.552 115.669 171.03 120.591 174.411 123.15C175.005 123.603 175.715 123.772 176.416 123.628C177.117 123.485 177.765 123.037 178.247 122.363C180.988 118.542 186.243 111.198 188.164 108.354C188.77 107.458 189.142 106.354 189.228 105.2L191.005 81.3993C191.1 80.064 189.231 79.398 188.451 80.4867Z" fill="#FF2E93"/>
<path d="M177.374 78.0177L169.67 100.778C169.482 101.334 169.147 101.796 168.724 102.084C168.301 102.373 167.816 102.468 167.355 102.355L148.47 97.6963C147.356 97.4224 146.141 99.4187 146.813 100.416L158.81 118.281C159.391 119.147 160.182 119.75 161.069 120.003C163.886 120.804 171.378 122.655 175.286 123.612C175.974 123.782 176.696 123.641 177.327 123.211C177.958 122.782 178.458 122.093 178.739 121.264C180.342 116.556 183.41 107.511 184.489 104.054C184.831 102.966 184.894 101.783 184.671 100.673L180.049 77.7888C179.791 76.5076 177.829 76.6753 177.374 78.0177Z" fill="#142664"/>
</g>
<g clip-path="url(#clip17_4_2003)">
<path d="M327.773 111.41C310.706 111.41 296.767 125.283 296.767 142.468V181.403C296.767 206.016 276.751 226.065 252.179 226.065C227.606 226.065 207.591 206.016 207.591 181.403V163.86H221.173V181.403C221.173 198.498 235.023 212.461 252.179 212.461C269.246 212.461 283.185 198.588 283.185 181.403V142.468C283.185 117.855 303.2 97.8055 327.773 97.8055V111.41Z" fill="#FF2E93"/>
<path d="M238.508 223.47C236.095 222.664 233.772 221.68 231.538 220.516L237.614 209.06C239.222 209.865 240.831 210.581 242.529 211.118L238.508 223.47Z" fill="#142664"/>
<path d="M219.654 211.297C217.956 209.418 216.437 207.448 215.007 205.3L225.909 198.319C226.892 199.841 227.964 201.273 229.215 202.526L219.654 211.297Z" fill="#142664"/>
<path d="M209.11 191.427C208.574 189.011 208.216 186.504 208.038 183.909L220.994 183.193C221.083 184.983 221.352 186.773 221.798 188.474L209.11 191.427Z" fill="#142664"/>
<path d="M207.948 170.573V164.128H220.905V170.573H207.948Z" fill="#142664"/>
<path d="M223.764 162.965C223.764 172.802 215.803 180.776 205.982 180.776C196.162 180.776 188.201 172.802 188.201 162.965C188.201 153.128 196.162 145.153 205.982 145.153C215.803 145.153 223.764 153.128 223.764 162.965Z" fill="#142664"/>
<path d="M207.68 141.663C209.557 143.542 209.557 146.585 207.68 148.465C205.804 150.345 202.766 150.345 200.889 148.465C196.511 144.079 189.631 137.187 189.631 137.187C187.754 135.308 187.754 132.265 189.631 130.385C191.507 128.506 194.545 128.506 196.422 130.385C196.332 130.296 203.302 137.277 207.68 141.663Z" fill="white"/>
<path d="M193.83 141.305L191.596 139.067L198.387 132.265L200.621 134.502L193.83 141.305Z" fill="#142664"/>
<path d="M196.153 178.897C198.834 178.897 200.889 176.748 200.889 174.153C200.889 171.468 198.745 169.409 196.153 169.409C186.146 169.409 163.986 169.409 163.986 169.409C161.395 169.409 159.25 171.557 159.25 174.153C159.25 176.748 161.395 178.897 163.986 178.897H196.153Z" fill="white"/>
<path d="M184.805 169.32H181.589V178.897H184.805V169.32Z" fill="#142664"/>
<path d="M196.153 167.798C198.834 167.798 200.889 165.65 200.889 163.054C200.889 160.369 198.745 158.31 196.153 158.31C186.146 158.31 163.986 158.31 163.986 158.31C161.395 158.31 159.25 160.459 159.25 163.054C159.25 165.65 161.395 167.798 163.986 167.798H196.153Z" fill="white"/>
<path d="M184.805 158.221H181.589V167.798H184.805V158.221Z" fill="#142664"/>
<path d="M196.153 156.7C198.834 156.7 200.889 154.551 200.889 151.956C200.889 149.271 198.745 147.212 196.153 147.212C186.146 147.212 163.986 147.212 163.986 147.212C161.395 147.212 159.25 149.36 159.25 151.956C159.25 154.551 161.395 156.7 163.986 156.7H196.153Z" fill="white"/>
<path d="M184.805 147.122H181.589V156.699H184.805V147.122Z" fill="#142664"/>
<path d="M164.254 167.171C163.896 167.171 163.539 167.35 163.271 167.529C163.003 167.798 162.914 168.156 162.914 168.514C162.914 168.872 163.092 169.23 163.271 169.498C163.539 169.767 163.896 169.856 164.254 169.856C171.402 169.856 204.553 169.856 204.553 169.856V167.171L164.254 167.171Z" fill="#142664"/>
<path d="M164.254 156.073C163.896 156.073 163.539 156.252 163.271 156.431C163.003 156.699 162.914 157.057 162.914 157.415C162.914 157.773 163.092 158.131 163.271 158.4C163.539 158.669 163.896 158.758 164.254 158.758C171.402 158.758 204.553 158.758 204.553 158.758V156.073L164.254 156.073Z" fill="#142664"/>
</g>
<g clip-path="url(#clip18_4_2003)">
<path d="M207.82 178.896C210.501 178.896 212.556 176.748 212.556 174.153C212.556 171.468 210.411 169.409 207.82 169.409C197.812 169.409 175.652 169.409 175.652 169.409C173.061 169.409 170.917 171.557 170.917 174.153C170.917 176.748 173.061 178.896 175.652 178.896H207.82Z" fill="white"/>
<path d="M185.392 169.32H182.175V178.897H185.392V169.32Z" fill="#142664"/>
<path d="M207.82 167.798C210.501 167.798 212.556 165.65 212.556 163.054C212.556 160.369 210.411 158.311 207.82 158.311C197.812 158.311 175.652 158.311 175.652 158.311C173.061 158.311 170.917 160.459 170.917 163.054C170.917 165.65 173.061 167.798 175.652 167.798H207.82Z" fill="white"/>
<path d="M185.392 158.221H182.175V167.798H185.392V158.221Z" fill="#142664"/>
<path d="M207.82 156.699C210.501 156.699 212.556 154.551 212.556 151.956C212.556 149.271 210.411 147.212 207.82 147.212C197.812 147.212 175.652 147.212 175.652 147.212C173.061 147.212 170.917 149.36 170.917 151.956C170.917 154.551 173.061 156.699 175.652 156.699H207.82Z" fill="white"/>
<path d="M185.392 147.122H182.175V156.699H185.392V147.122Z" fill="#142664"/>
<path d="M175.921 167.171C175.563 167.171 175.206 167.35 174.938 167.529C174.67 167.798 174.58 168.156 174.58 168.514C174.58 168.872 174.759 169.23 174.938 169.498C175.206 169.767 175.563 169.857 175.921 169.857C183.069 169.857 216.219 169.857 216.219 169.857V167.171L175.921 167.171Z" fill="#142664"/>
<path d="M175.921 156.073C175.563 156.073 175.206 156.252 174.938 156.431C174.67 156.699 174.58 157.057 174.58 157.415C174.58 157.773 174.759 158.131 174.938 158.4C175.206 158.668 175.563 158.758 175.921 158.758C183.069 158.758 216.219 158.758 216.219 158.758V156.073L175.921 156.073Z" fill="#142664"/>
</g>
<g clip-path="url(#clip19_4_2003)">
<path d="M308 219.168C308 215.345 304.868 212.304 301.126 212.304H254.402C241.698 212.304 231.344 201.965 231.344 189.281V106.743C231.344 102.92 228.212 99.8794 224.47 99.8794C220.642 99.8794 217.597 103.007 217.597 106.743V189.281C217.597 209.524 234.041 225.945 254.315 225.945H301.039C304.781 225.945 307.913 222.904 308 219.168Z" fill="#FF2E93"/>
<path d="M295.471 225.945V212.391H288.597V225.945H295.471C295.471 225.945 295.558 225.945 295.471 225.945ZM275.023 225.945V212.391H268.149V225.945H275.023ZM254.489 225.945L254.402 212.391H254.228C252.575 212.391 250.834 212.217 249.181 211.87L246.223 225.076C248.833 225.684 251.617 225.945 254.315 225.945H254.489ZM231.257 217.778L239.697 207.178C239.697 207.091 239.697 207.091 239.697 207.091C238.392 205.962 237.087 204.745 236.043 203.355L225.34 211.696C225.34 211.783 225.34 211.783 225.34 211.783C227.081 214.042 229.082 216.04 231.257 217.778ZM218.38 196.839L231.692 194.059C231.344 192.495 231.17 190.844 231.17 189.281V188.672H217.596V189.281C217.596 191.8 217.858 194.32 218.38 196.839ZM231.17 175.032V168.168H217.596V175.032H231.17C231.17 175.032 231.257 175.032 231.17 175.032ZM231.17 154.528V147.664H217.596V154.528H231.17C231.17 154.528 231.257 154.528 231.17 154.528ZM231.17 134.111V127.247H217.596V134.111H231.17C231.17 134.111 231.257 134.024 231.17 134.111ZM231.17 113.607V106.743H217.596V113.607H231.17C231.17 113.607 231.257 113.607 231.17 113.607Z" fill="#142664"/>
</g>
<g clip-path="url(#clip20_4_2003)">
<path d="M194.057 219.078C194.057 214.985 197.405 211.73 201.403 211.73H251.336C264.912 211.73 275.977 200.66 275.977 187.08V98.7126C275.977 94.6198 279.325 91.3641 283.323 91.3641C287.414 91.3641 290.669 94.7128 290.669 98.7126V187.08C290.669 208.753 273.095 226.333 251.429 226.333H201.496C197.498 226.333 194.15 223.078 194.057 219.078Z" fill="#FF2E93"/>
<path d="M207.447 226.333V211.823H214.793V226.333H207.447C207.447 226.333 207.354 226.333 207.447 226.333ZM229.299 226.333V211.823H236.644V226.333H229.299ZM251.243 226.333L251.336 211.823H251.522C253.289 211.823 255.149 211.637 256.915 211.265L260.077 225.403C257.287 226.054 254.312 226.333 251.429 226.333H251.243ZM276.07 217.59L267.051 206.242C267.051 206.148 267.051 206.148 267.051 206.148C268.445 204.939 269.84 203.637 270.956 202.149L282.393 211.078C282.393 211.171 282.393 211.171 282.393 211.171C280.534 213.59 278.395 215.729 276.07 217.59ZM289.832 195.172L275.605 192.196C275.977 190.521 276.163 188.754 276.163 187.08V186.429H290.669V187.08C290.669 189.777 290.39 192.475 289.832 195.172ZM276.163 171.825V164.476H290.669V171.825H276.163C276.163 171.825 276.07 171.825 276.163 171.825ZM276.163 149.873V142.524H290.669V149.873H276.163C276.163 149.873 276.07 149.873 276.163 149.873ZM276.163 128.013V120.665H290.669V128.013H276.163C276.163 128.013 276.07 127.92 276.163 128.013ZM276.163 106.061V98.7125H290.669V106.061H276.163C276.163 106.061 276.07 106.061 276.163 106.061Z" fill="#142664"/>
</g>
<g clip-path="url(#clip21_4_2003)">
<path d="M266.389 159.865C266.389 160.25 266.533 160.634 266.823 160.923C267.112 161.211 267.498 161.355 267.884 161.355C276.421 161.355 318.142 161.307 326.63 161.259C327.45 161.259 328.174 160.586 328.174 159.721C328.174 158.471 328.174 156.74 328.174 155.49C328.174 155.106 328.029 154.721 327.74 154.433C327.45 154.144 327.064 154 326.679 154C318.142 154 276.421 154 267.932 154C267.546 154 267.16 154.144 266.871 154.433C266.582 154.721 266.437 155.106 266.437 155.49C266.389 156.788 266.389 158.615 266.389 159.865Z" fill="#FF2E93"/>
<path d="M266.389 171.932C266.389 172.316 266.533 172.749 266.823 172.989C267.112 173.278 267.498 173.422 267.932 173.422C269.91 173.422 273.382 173.374 275.36 173.374C276.18 173.374 276.855 172.701 276.855 171.836C276.855 170.586 276.855 168.807 276.855 167.557C276.855 166.74 276.18 166.019 275.312 166.019C273.334 166.019 269.861 166.019 267.884 166.019C267.498 166.019 267.112 166.163 266.823 166.451C266.533 166.74 266.389 167.124 266.389 167.509C266.389 168.855 266.389 170.634 266.389 171.932Z" fill="#FF2E93"/>
<path d="M280.955 171.932C280.955 172.316 281.1 172.701 281.389 172.989C281.678 173.278 282.064 173.422 282.45 173.422C288.383 173.422 309.894 173.374 315.827 173.326C316.646 173.326 317.37 172.653 317.37 171.788C317.37 170.538 317.37 168.807 317.37 167.557C317.37 167.172 317.225 166.788 316.936 166.499C316.646 166.211 316.261 166.067 315.875 166.067C309.942 166.067 288.479 166.067 282.498 166.067C282.112 166.067 281.727 166.211 281.437 166.499C281.148 166.788 281.003 167.172 281.003 167.557C280.955 168.855 280.955 170.634 280.955 171.932Z" fill="#142664"/>
</g>
<defs>
<clipPath id="clip0_4_2003">
<rect width="160.611" height="252.389" fill="white" transform="translate(231 24.8889)"/>
</clipPath>
<clipPath id="clip1_4_2003">
<rect width="145.833" height="254.333" fill="white" transform="matrix(-1 0 0 1 173.444 141.556)"/>
</clipPath>
<clipPath id="clip2_4_2003">
<rect width="31.5" height="26.0555" fill="white" transform="translate(82.8333 82.4445)"/>
</clipPath>
<clipPath id="clip3_4_2003">
<rect width="20.6111" height="17.1111" fill="white" transform="translate(75.0555 115.5)"/>
</clipPath>
<clipPath id="clip4_4_2003">
<rect width="15.5556" height="13.2222" fill="white" transform="translate(62.6111 48.6111)"/>
</clipPath>
<clipPath id="clip5_4_2003">
<rect width="61.8333" height="43.5555" fill="white" transform="translate(266.389 105.389)"/>
</clipPath>
<clipPath id="clip6_4_2003">
<rect width="339.111" height="3.11111" fill="white" transform="translate(42 394.333)"/>
</clipPath>
<clipPath id="clip7_4_2003">
<rect width="12.4444" height="12.4445" fill="white" transform="translate(274.944 306.056)"/>
</clipPath>
<clipPath id="clip8_4_2003">
<rect width="8.94464" height="8.94446" fill="white" transform="translate(231.778 346.5)"/>
</clipPath>
<clipPath id="clip9_4_2003">
<rect width="45.889" height="26.0555" fill="white" transform="translate(138.639 185.579) rotate(-90)"/>
</clipPath>
<clipPath id="clip10_4_2003">
<rect width="12.8334" height="12.8333" fill="white" transform="translate(206.5 298.667)"/>
</clipPath>
<clipPath id="clip11_4_2003">
<rect width="14.7778" height="14.7778" fill="white" transform="translate(185.5 365.556)"/>
</clipPath>
<clipPath id="clip12_4_2003">
<rect width="8.55557" height="8.55554" fill="white" transform="translate(311.111 293.222)"/>
</clipPath>
<clipPath id="clip13_4_2003">
<rect width="6.61105" height="6.61111" fill="white" transform="translate(278.444 351.167)"/>
</clipPath>
<clipPath id="clip14_4_2003">
<rect width="9.7222" height="9.7222" fill="white" transform="translate(152.833 374.5)"/>
</clipPath>
<clipPath id="clip15_4_2003">
<rect width="5.83322" height="5.83331" fill="white" transform="translate(262.889 287.389)"/>
</clipPath>
<clipPath id="clip16_4_2003">
<rect width="59.3951" height="138.473" fill="white" transform="matrix(0.820326 -0.571896 0.386016 0.922492 135.968 99.9193)"/>
</clipPath>
<clipPath id="clip17_4_2003">
<rect width="155.556" height="69.6111" fill="white" transform="matrix(0 1 1 0 182.732 98.3013)"/>
</clipPath>
<clipPath id="clip18_4_2003">
<rect width="155.944" height="13.2222" fill="white" transform="matrix(0 1 1 0 170.917 97.845)"/>
</clipPath>
<clipPath id="clip19_4_2003">
<rect width="50.8984" height="74.1088" fill="white" transform="matrix(-1 0 0 1 308 151.836)"/>
</clipPath>
<clipPath id="clip20_4_2003">
<rect width="5.44429" height="13.6113" fill="white" transform="translate(251.801 212.69)"/>
</clipPath>
<clipPath id="clip21_4_2003">
<rect width="61.8333" height="22.1667" fill="white" transform="matrix(1 0 0 -1 266.389 176.167)"/>
</clipPath>
</defs>
</svg>
