<svg width="420" height="420" viewBox="0 0 420 420" fill="none" xmlns="http://www.w3.org/2000/svg">
<g clip-path="url(#clip0_4_778)">
<path d="M296.248 270.48C296.682 270.48 297.115 270.287 297.425 269.966C297.734 269.645 297.92 269.195 297.92 268.745C297.92 258.305 297.92 203.695 297.92 193.255C297.92 192.805 297.734 192.355 297.425 192.034C297.115 191.713 296.682 191.52 296.248 191.52C294.422 191.52 291.76 191.52 291.76 191.52L291.76 270.448L296.248 270.48Z" fill="#142664"/>
</g>
<g clip-path="url(#clip1_4_778)">
<path d="M244.627 169.73C237.44 169.73 231.56 175.672 231.56 182.935C231.56 207.364 231.56 239.056 231.56 263.155C231.56 270.418 237.44 276.36 244.627 276.36C255.407 276.36 264.553 276.36 275.333 276.36C282.52 276.36 288.4 270.418 288.4 263.155C288.4 245.989 288.4 235.755 288.4 219.909C288.4 213.967 283.5 209.015 277.62 209.015C271.74 209.015 266.84 204.063 266.84 198.121V182.605C266.84 178.974 265.533 175.672 262.92 173.361C260.307 170.72 257.04 169.4 253.773 169.4C249.2 169.73 249.853 169.73 244.627 169.73Z" fill="#00E6B3"/>
</g>
<g clip-path="url(#clip2_4_778)">
<path d="M283.368 212.529C307.959 212.529 327.895 192.53 327.895 167.86C327.895 143.19 307.959 123.191 283.368 123.191C258.776 123.191 238.84 143.19 238.84 167.86C238.84 192.53 258.776 212.529 283.368 212.529Z" fill="white"/>
<path d="M283.368 125.142C306.911 125.142 325.95 144.242 325.95 167.86C325.95 191.478 306.911 210.578 283.368 210.578C282.242 210.578 281.423 211.502 281.423 212.529C281.423 213.658 282.344 214.48 283.368 214.48C309.06 214.48 329.84 193.532 329.84 167.86C329.84 142.085 308.958 121.24 283.368 121.24C282.242 121.24 281.423 122.164 281.423 123.191C281.423 124.218 282.344 125.142 283.368 125.142Z" fill="#142664"/>
</g>
<g clip-path="url(#clip3_4_778)">
<path d="M206.686 416.64C223.807 416.71 237.72 402.698 237.72 385.387V217.47C237.72 201.058 224.58 186.99 207.575 186.99C191.343 186.99 177.429 173.705 177.429 156.511C177.429 133.847 177.429 102.586 177.429 79.1408C177.429 70.5441 174.337 62.7289 168.154 57.2582C161.97 51.0061 154.241 47.88 146.511 47.88H127.187C118.685 47.88 110.955 51.0061 105.544 57.2582C99.3606 63.5104 96.2687 71.3256 96.2687 79.1408C96.2687 86.956 96.2687 95.5527 96.2687 103.368C96.2687 111.965 93.1769 119.78 86.9932 125.25C80.8096 130.721 73.08 134.629 65.3504 134.629C59.9397 134.629 54.529 134.629 49.1183 134.629C40.6158 134.629 32.8862 137.755 27.4755 144.007C21.2918 150.259 18.2 158.074 18.2 165.889V384.777C18.2 401.994 31.9741 415.976 49.0024 416.038L206.686 416.64Z" fill="#00E6B3"/>
</g>
<g clip-path="url(#clip4_4_778)">
<path d="M67.6483 218.639C67.6483 218.639 67.357 223.646 67.2113 230.472C67.0656 234.113 66.92 238.208 66.92 242.304C66.92 244.693 66.92 247.079 67.0656 249.358C67.357 258.459 67.6483 265.968 67.6483 265.968C67.6483 266.878 68.5222 267.56 69.6875 267.56C70.8527 267.56 71.7266 266.877 71.7266 265.968C71.7266 265.968 72.1636 258.459 72.3093 249.358C72.3093 247.082 72.4549 244.693 72.4549 242.304C72.4549 238.208 72.3093 234.113 72.1636 230.472C72.018 223.646 71.7266 218.639 71.7266 218.639C71.7266 217.729 70.8527 217.048 69.6875 217.048C68.5222 217.048 67.6483 217.729 67.6483 218.639Z" fill="#142664"/>
<path d="M97.0243 178.069C97.0243 178.069 96.733 185.096 96.5874 194.677C96.4417 199.787 96.2961 205.53 96.2961 211.284C96.2961 214.637 96.2961 217.991 96.4417 221.185C96.733 233.96 97.0243 244.499 97.0243 244.499C96.9958 244.782 97.0273 245.068 97.1168 245.338C97.2063 245.608 97.3518 245.857 97.5439 246.068C97.7361 246.279 97.9705 246.447 98.2323 246.563C98.494 246.678 98.7772 246.738 99.0635 246.738C99.3499 246.738 99.633 246.678 99.8948 246.563C100.157 246.447 100.391 246.279 100.583 246.068C100.775 245.857 100.921 245.608 101.01 245.338C101.1 245.068 101.131 244.782 101.103 244.499C101.103 244.499 101.54 233.96 101.685 221.185C101.685 217.991 101.831 214.637 101.831 211.284C101.831 205.535 101.685 199.787 101.54 194.677C101.394 185.096 101.103 178.069 101.103 178.069C101.131 177.786 101.1 177.5 101.01 177.23C100.921 176.959 100.775 176.711 100.583 176.5C100.391 176.289 100.157 176.12 99.8948 176.005C99.633 175.89 99.3499 175.83 99.0635 175.83C98.7772 175.83 98.494 175.89 98.2323 176.005C97.9705 176.12 97.7361 176.289 97.5439 176.5C97.3518 176.711 97.2063 176.959 97.1168 177.23C97.0273 177.5 96.9958 177.786 97.0243 178.069Z" fill="#142664"/>
<path d="M123.859 160.382C123.859 160.382 123.567 172.908 123.422 189.803C123.276 198.775 123.13 208.996 123.13 219.224C123.13 225.201 123.13 231.177 123.276 236.923C123.567 259.449 123.859 278.182 123.859 278.182C123.859 279.102 124.733 279.791 125.898 279.791C127.063 279.791 127.937 279.102 127.937 278.182C127.937 278.182 128.374 259.449 128.52 236.923C128.52 231.177 128.665 225.202 128.665 219.224C128.665 208.996 128.52 198.768 128.374 189.803C128.228 172.908 127.937 160.382 127.937 160.382C127.937 159.462 127.063 158.773 125.898 158.773C124.733 158.773 123.859 159.462 123.859 160.382Z" fill="#142664"/>
<path d="M148.633 228.266C148.633 228.266 148.342 231.808 148.196 236.868C148.051 239.398 147.905 242.434 147.905 245.47C147.905 247.241 147.905 249.012 148.051 250.535C148.342 257.112 148.633 262.426 148.633 262.426C148.633 264.451 149.507 265.968 150.673 265.968C151.838 265.968 152.712 264.446 152.712 262.421C152.712 262.421 153.149 257.107 153.294 250.53C153.294 248.759 153.44 247.241 153.44 245.466C153.44 242.427 153.294 239.388 153.149 236.864C153.003 231.799 152.712 228.261 152.712 228.261C152.712 226.235 151.838 224.719 150.673 224.719C149.507 224.719 148.633 226.241 148.633 228.266Z" fill="#142664"/>
<path d="M124.25 106.582C124.25 106.582 123.982 110.125 123.85 115.187C123.716 117.718 123.582 120.754 123.582 123.791C123.582 125.563 123.582 127.334 123.716 128.856C123.982 135.436 124.25 140.75 124.25 140.75C124.25 142.776 125.053 144.292 126.124 144.292C127.194 144.292 127.997 142.774 127.997 140.75C127.997 140.75 128.397 135.436 128.531 128.856C128.531 127.085 128.665 125.567 128.665 123.791C128.665 120.752 128.531 117.714 128.397 115.187C128.263 110.122 127.997 106.582 127.997 106.582C127.997 104.557 127.194 103.04 126.124 103.04C125.053 103.04 124.25 104.558 124.25 106.582Z" fill="#142664"/>
<path d="M96.3426 152.623C96.1349 153.626 95.9889 154.641 95.9056 155.662C95.7295 156.666 95.6321 157.682 95.6143 158.701C95.5903 159.331 95.6392 159.963 95.76 160.582C96.0513 162.897 96.3426 164.923 96.3426 164.923C96.3426 165.461 96.5574 165.976 96.9399 166.356C97.3223 166.736 97.841 166.949 98.3818 166.949C98.9226 166.949 99.4413 166.736 99.8237 166.356C100.206 165.976 100.421 165.461 100.421 164.923C100.725 163.493 100.92 162.042 101.004 160.582C101.004 160.003 101.149 159.424 101.149 158.701C101.131 157.682 101.034 156.666 100.858 155.662C100.775 154.641 100.629 153.626 100.421 152.623C100.428 152.355 100.379 152.089 100.279 151.84C100.179 151.591 100.029 151.365 99.8384 151.176C99.6477 150.987 99.4203 150.838 99.1699 150.738C98.9195 150.639 98.6514 150.591 98.3818 150.597C97.8445 150.608 97.3322 150.825 96.9522 151.203C96.5722 151.58 96.3538 152.089 96.3426 152.623Z" fill="#142664"/>
<path d="M148.633 189.619C148.633 189.619 148.342 191.479 148.196 193.961C148.02 195.402 147.923 196.851 147.905 198.302C147.881 199.2 147.93 200.098 148.051 200.988C148.342 204.294 148.633 207.186 148.633 207.186C148.633 208.838 149.507 210.08 150.673 210.08C151.838 210.08 152.712 208.84 152.712 207.186C153.017 205.13 153.212 203.059 153.294 200.982C153.294 200.156 153.44 199.329 153.44 198.296C153.423 196.845 153.325 195.396 153.149 193.955C153.003 191.476 152.712 189.614 152.712 189.614C152.712 187.961 151.838 186.72 150.673 186.72C149.507 186.72 148.633 188.167 148.633 189.614V189.619Z" fill="#142664"/>
<path d="M97.0243 268.754C96.8166 269.757 96.6707 270.772 96.5873 271.793C96.4113 272.797 96.3139 273.813 96.296 274.831C96.272 275.462 96.3209 276.093 96.4417 276.713C96.733 279.028 97.0243 281.054 97.0243 281.054C97.0243 281.591 97.2392 282.107 97.6216 282.487C98.004 282.866 98.5227 283.08 99.0635 283.08C99.6043 283.08 100.123 282.866 100.505 282.487C100.888 282.107 101.103 281.591 101.103 281.054C101.407 279.624 101.602 278.172 101.685 276.713C101.685 276.134 101.831 275.555 101.831 274.831C101.813 273.813 101.716 272.797 101.54 271.793C101.456 270.772 101.31 269.757 101.103 268.754C101.103 268.216 100.888 267.701 100.505 267.321C100.123 266.941 99.6043 266.728 99.0635 266.728C98.5227 266.728 98.004 266.941 97.6216 267.321C97.2392 267.701 97.0243 268.216 97.0243 268.754Z" fill="#142664"/>
</g>
<g clip-path="url(#clip5_4_778)">
<path d="M261.961 246.804H315.736C315.736 253.201 303.681 258.339 288.796 258.339C274.016 258.339 261.961 253.201 261.961 246.804Z" fill="#142664"/>
<path d="M288.22 199.406C291.433 199.406 294.037 202.012 294.037 205.226V263.058H282.402V205.226C282.402 202.012 285.007 199.406 288.22 199.406Z" fill="white"/>
<path d="M282.402 244.392H294.037V240.408H282.402V244.392Z" fill="#142664"/>
<path d="M282.402 224.469H294.037V220.484H282.402V224.469Z" fill="#142664"/>
<path d="M364.375 264.84C371.503 267.462 376.954 273.229 379.365 280.36C385.34 298.711 397.08 334.364 402.321 350.303C402.95 352.191 402.636 354.183 401.483 355.861C400.33 357.434 398.443 358.378 396.556 358.378C362.069 358.378 232.715 358.378 202.945 358.378C201.268 358.378 199.8 357.748 198.647 356.595C197.494 355.441 196.865 353.868 196.865 352.296V286.966C196.865 286.966 197.808 284.03 198.961 280.465C201.372 273.229 206.823 267.567 213.951 264.945L262.066 247.119C262.276 253.41 274.226 258.444 289.006 258.444C301.899 258.444 312.696 254.564 315.317 249.321C315.946 248.062 317.413 247.433 318.671 247.958C328.839 251.733 364.375 264.84 364.375 264.84Z" fill="white"/>
<path d="M285.127 266.623C283.974 266.518 283.031 267.462 283.031 268.511C282.926 269.664 283.869 270.608 284.918 270.608C286.071 270.713 287.014 269.769 287.014 268.72C287.119 267.672 286.176 266.728 285.127 266.623ZM292.884 266.518C291.731 266.623 290.998 267.567 291.102 268.72C291.207 269.874 292.151 270.608 293.304 270.503C294.457 270.398 295.191 269.454 295.086 268.301C294.981 267.252 293.933 266.413 292.884 266.518ZM277.475 265.679C276.427 265.47 275.274 266.204 275.064 267.252C274.855 268.301 275.588 269.454 276.637 269.664C277.685 269.874 278.838 269.14 279.048 268.091C279.257 266.938 278.523 265.889 277.475 265.679ZM300.537 265.365C299.488 265.574 298.755 266.728 299.069 267.777C299.279 268.825 300.432 269.559 301.48 269.245C302.528 269.035 303.262 267.881 302.948 266.833C302.738 265.784 301.585 265.05 300.537 265.365ZM270.033 263.582C268.984 263.163 267.831 263.687 267.412 264.736C266.993 265.784 267.517 266.938 268.565 267.357C269.613 267.777 270.766 267.252 271.186 266.204C271.605 265.155 271.081 263.897 270.033 263.582ZM307.979 263.058C306.931 263.477 306.407 264.631 306.826 265.679C307.245 266.728 308.398 267.252 309.447 266.833C310.495 266.413 311.019 265.26 310.6 264.211C310.18 263.268 309.027 262.743 307.979 263.058ZM263.009 260.227C262.066 259.702 260.808 260.017 260.284 260.961C259.76 261.904 260.074 263.163 261.018 263.687C261.961 264.211 263.219 263.897 263.743 262.953C264.372 262.009 263.953 260.856 263.009 260.227ZM315.002 259.807C314.059 260.331 313.744 261.59 314.269 262.533C314.793 263.477 316.051 263.792 316.994 263.268C317.937 262.743 318.252 261.485 317.728 260.541C317.099 259.597 315.946 259.283 315.002 259.807ZM256.615 255.927C255.776 255.193 254.519 255.403 253.785 256.242C253.051 257.081 253.261 258.339 254.099 259.073C254.938 259.807 256.196 259.597 256.929 258.758C257.663 257.92 257.454 256.661 256.615 255.927ZM321.187 255.508C320.348 256.242 320.244 257.5 320.977 258.339C321.711 259.178 322.969 259.283 323.808 258.549C324.646 257.815 324.751 256.556 324.017 255.717C323.388 254.879 322.026 254.774 321.187 255.508Z" fill="#142664"/>
<path d="M386.807 350.198C387.96 350.198 388.799 349.255 388.799 348.206C388.799 347.052 387.856 346.214 386.807 346.214C385.654 346.214 384.816 347.157 384.816 348.206C384.816 349.359 385.654 350.198 386.807 350.198ZM378.736 350.198C379.889 350.198 380.728 349.255 380.728 348.206C380.728 347.052 379.784 346.214 378.736 346.214C377.583 346.214 376.744 347.157 376.744 348.206C376.744 349.359 377.688 350.198 378.736 350.198ZM370.664 350.198C371.817 350.198 372.656 349.255 372.656 348.206C372.656 347.052 371.713 346.214 370.664 346.214C369.511 346.214 368.673 347.157 368.673 348.206C368.673 349.359 369.616 350.198 370.664 350.198ZM362.698 350.198C363.851 350.198 364.689 349.255 364.689 348.206C364.689 347.052 363.746 346.214 362.698 346.214C361.545 346.214 360.706 347.157 360.706 348.206C360.706 349.359 361.545 350.198 362.698 350.198ZM354.626 350.198C355.779 350.198 356.618 349.255 356.618 348.206C356.618 347.052 355.674 346.214 354.626 346.214C353.473 346.214 352.634 347.157 352.634 348.206C352.634 349.359 353.473 350.198 354.626 350.198ZM346.555 350.198C347.708 350.198 348.546 349.255 348.546 348.206C348.546 347.052 347.603 346.214 346.555 346.214C345.402 346.214 344.563 347.157 344.563 348.206C344.563 349.359 345.506 350.198 346.555 350.198ZM338.588 350.198C339.741 350.198 340.58 349.255 340.58 348.206C340.58 347.052 339.636 346.214 338.588 346.214C337.435 346.214 336.596 347.157 336.596 348.206C336.491 349.359 337.435 350.198 338.588 350.198ZM330.516 350.198C331.67 350.198 332.508 349.255 332.508 348.206C332.508 347.052 331.565 346.214 330.516 346.214C329.363 346.214 328.525 347.157 328.525 348.206C328.525 349.359 329.363 350.198 330.516 350.198ZM322.445 350.198C323.598 350.198 324.437 349.255 324.437 348.206C324.437 347.052 323.493 346.214 322.445 346.214C321.292 346.214 320.453 347.157 320.453 348.206C320.453 349.359 321.397 350.198 322.445 350.198ZM314.478 350.198C315.631 350.198 316.47 349.255 316.47 348.206C316.47 347.052 315.527 346.214 314.478 346.214C313.325 346.214 312.487 347.157 312.487 348.206C312.382 349.359 313.325 350.198 314.478 350.198ZM306.407 350.198C307.56 350.198 308.398 349.255 308.398 348.206C308.398 347.052 307.455 346.214 306.407 346.214V350.198Z" fill="#142664"/>
<path d="M307.455 355.336H273.177L304.101 337.72L307.455 355.336Z" fill="white"/>
<path d="M170.868 273.859C172.336 273.859 173.803 274.697 174.537 275.956C180.407 286.232 206.299 330.904 215.943 347.682C216.677 348.94 216.677 350.618 215.943 351.876C215.209 353.134 213.742 353.973 212.274 353.973C187.85 353.973 109.965 353.973 95.185 353.973C93.7174 353.973 92.2499 353.134 91.5161 351.876C85.6459 341.6 59.7542 296.928 50.1103 280.15C49.3766 278.892 49.3766 277.214 50.1103 275.956C50.8441 274.697 52.3116 273.859 53.7792 273.859C78.2033 273.859 156.088 273.859 170.868 273.859Z" fill="white"/>
<path d="M236.174 356.071C235.44 354.812 233.973 353.973 232.505 353.973C217.62 353.973 138.792 353.973 114.263 353.973C112.796 353.973 111.328 354.812 110.594 356.071C109.86 357.329 109.86 359.007 110.594 360.265C111.328 361.523 112.062 362.782 112.586 363.726C113.32 364.984 114.787 365.823 116.255 365.823C131.14 365.823 209.968 365.823 234.497 365.823C235.965 365.823 237.432 364.984 238.166 363.726C238.9 362.467 238.9 360.789 238.166 359.531C237.432 358.273 236.698 357.119 236.174 356.071Z" fill="white" stroke="#142664" stroke-width="28.7211" stroke-miterlimit="1.4382" stroke-linecap="round" stroke-linejoin="round"/>
<path d="M200.429 355.022L204.203 360.999C204.832 361.943 206.089 362.153 207.033 361.628C207.976 360.999 208.186 359.741 207.662 358.902L203.888 352.925C203.259 351.981 202.001 351.771 201.058 352.296C200.114 352.925 199.8 354.078 200.429 355.022Z" fill="white"/>
<path d="M207.872 355.022L211.645 360.999C212.274 361.943 213.532 362.153 214.371 361.628C215.314 360.999 215.524 359.741 215 358.902L211.226 352.925C210.597 351.981 209.339 351.771 208.396 352.296C207.557 352.925 207.347 354.078 207.872 355.022Z" fill="white"/>
<path d="M216.153 355.022L219.926 360.999C220.555 361.943 221.813 362.153 222.757 361.628C223.7 360.999 223.91 359.741 223.386 358.902L219.612 352.925C218.983 351.981 217.725 351.771 216.886 352.296C215.838 352.925 215.524 354.078 216.153 355.022Z" fill="white"/>
<path d="M226.53 300.494L218.144 329.226C217.83 330.275 218.459 331.428 219.507 331.743C220.555 332.057 221.708 331.428 222.023 330.379L230.409 301.647C230.723 300.598 230.094 299.445 229.046 299.13C227.998 298.816 226.845 299.34 226.53 300.494Z" fill="#142664"/>
<path d="M299.279 355.337L291.522 344.536L295.505 342.334L305.358 344.536L307.35 355.337H299.279Z" fill="#142664"/>
<path d="M264.582 331.113V342.648L256.72 342.019L253.68 352.4C253.365 353.449 251.164 354.078 250.116 353.763C249.068 353.449 247.39 352.295 247.81 351.142L250.326 336.147C250.85 334.364 252.527 333.211 254.309 333.211L264.582 331.113Z" fill="white"/>
<path d="M300.851 326.919C300.851 327.338 300.851 327.653 300.956 328.072L301.48 330.589L291.941 342.019L267.936 336.776L263.114 346.528C262.59 347.577 260.389 347.787 259.34 347.262C258.292 346.738 256.929 345.27 257.454 344.326L262.59 329.96C263.429 328.282 265.211 327.443 267.097 327.758L300.851 326.919Z" fill="white"/>
<path d="M300.851 327.443C300.851 327.653 300.851 327.863 300.956 328.177L303.996 344.326C303.891 344.326 303.681 344.326 303.577 344.326L275.064 342.229L272.024 352.61C271.71 353.659 269.509 354.288 268.46 353.973C267.412 353.659 265.735 352.505 266.154 351.352L268.67 336.356C269.194 334.574 270.871 333.42 272.653 333.42L300.851 327.443Z" fill="white"/>
<path d="M262.59 328.597C262.485 328.072 262.8 327.443 263.219 327.129C263.953 326.709 264.791 326.919 265.316 327.548C265.316 327.548 266.259 328.492 267.307 329.855C267.622 330.17 267.831 330.484 268.041 330.904C268.355 331.428 268.67 331.952 268.88 332.477C269.823 331.743 270.976 331.323 272.234 331.323C272.653 331.218 273.492 331.113 274.645 330.904C277.161 330.484 280.725 330.065 280.725 330.065C281.563 329.855 282.297 330.379 282.507 331.218C282.716 332.057 282.192 332.791 281.354 333.001C281.354 333.001 277.999 333.945 275.484 334.679C274.121 335.098 272.968 335.308 272.968 335.308H272.863C273.073 335.518 273.177 335.727 273.387 335.937C273.701 336.252 273.911 336.671 274.226 337.091C274.645 337.825 274.959 338.559 275.274 339.188C275.903 340.446 276.217 341.39 276.217 341.39C276.637 342.124 276.427 342.963 275.798 343.487C275.064 343.907 274.226 343.697 273.701 343.068C273.701 343.068 272.968 342.334 272.129 341.285C271.71 340.761 271.186 340.132 270.766 339.397C270.557 338.978 270.242 338.559 270.137 338.139C270.137 338.034 270.033 338.034 270.033 337.929L269.299 341.075C269.194 341.914 268.355 342.438 267.622 342.334C266.783 342.229 266.259 341.39 266.364 340.656L266.783 336.147C266.783 336.042 266.783 335.937 266.888 335.937C266.678 335.727 266.469 335.413 266.154 335.098C265.735 334.574 265.211 334.05 264.791 333.42C264.582 333.001 264.372 332.686 264.162 332.267C264.058 331.952 263.848 331.638 263.743 331.428C263.533 332.267 263.114 334.05 262.485 336.042C262.276 336.776 262.066 337.51 261.751 338.244C261.332 339.502 260.808 340.656 260.284 341.809C259.445 343.802 258.712 345.27 258.712 345.27C258.397 346.004 257.558 346.423 256.825 346.214C256.091 345.899 255.672 345.06 255.881 344.326C255.881 344.326 255.881 344.116 255.986 343.907C255.881 343.802 255.672 343.697 255.567 343.592C255.567 343.592 254.414 342.753 253.051 341.6C252.737 341.285 252.422 340.97 252.108 340.656C251.583 340.132 251.059 339.502 250.64 338.873C249.801 337.825 249.382 336.986 249.382 336.986C248.858 336.356 248.858 335.413 249.382 334.888C250.011 334.364 250.954 334.364 251.479 334.888C251.479 334.888 252.212 335.413 253.261 336.252C253.785 336.671 254.414 337.195 254.938 337.72C255.252 338.034 255.567 338.454 255.776 338.768C256.196 339.293 256.51 339.712 256.825 340.132C257.139 339.083 257.454 337.929 257.873 336.776C258.083 336.042 258.397 335.308 258.712 334.679C259.865 331.952 260.913 329.855 260.913 329.855C261.332 328.911 261.961 328.492 262.59 328.597ZM287.434 342.963C287.434 342.963 287.643 341.704 287.748 339.817C287.853 338.873 287.958 337.825 287.958 336.671C287.958 336.042 287.958 335.413 287.853 334.784C287.643 332.372 287.434 330.484 287.434 330.484C287.434 329.645 286.805 329.016 285.966 329.016C285.127 329.016 284.498 329.645 284.498 330.484C284.498 330.484 284.184 332.477 284.079 334.784C284.079 335.413 283.974 336.042 283.974 336.671C283.974 337.72 284.079 338.873 284.184 339.817C284.289 341.6 284.498 342.963 284.498 342.963C284.498 343.802 285.127 344.431 285.966 344.431C286.805 344.431 287.434 343.802 287.434 342.963Z" fill="#142664"/>
<path d="M296.973 356.071C296.239 354.812 294.771 353.973 293.304 353.973C283.765 353.973 248.963 353.973 233.658 353.973C232.191 353.973 230.723 354.812 229.99 356.071C229.256 357.329 229.256 359.007 229.99 360.265C230.723 361.523 231.457 362.782 231.981 363.726C232.715 364.984 234.183 365.823 235.65 365.823C245.189 365.823 279.991 365.823 295.295 365.823C296.763 365.823 298.23 364.984 298.964 363.726C299.698 362.467 299.698 360.789 298.964 359.531C298.23 358.273 297.497 357.119 296.973 356.071Z" fill="white"/>
<path d="M184.6 271.761C186.802 271.761 188.898 272.915 190.051 274.907C195.921 285.184 221.813 329.855 231.457 346.633C232.4 348.311 232.505 350.198 231.876 351.981H293.304C295.505 351.981 297.601 353.134 298.754 355.127L300.746 358.587C301.899 360.475 301.899 362.887 300.746 364.774C299.593 366.662 297.601 367.92 295.295 367.92C279.991 367.92 245.189 367.92 235.65 367.92C233.449 367.92 231.352 366.767 230.199 364.774C229.675 363.83 228.941 362.572 228.207 361.314C227.264 359.636 227.159 357.748 227.788 355.966H159.128L160.91 358.797C161.329 359.426 161.329 360.16 161.015 360.894C160.7 361.523 159.967 361.943 159.233 361.943H149.379C148.646 361.943 148.017 361.628 147.702 360.999L144.453 355.966H94.9753C93.8222 355.966 92.9836 355.022 92.9836 353.973C92.9836 352.82 93.927 351.981 94.9753 351.981H216.153L172.231 275.851H143.195C142.042 275.851 141.203 274.907 141.203 273.859C141.203 272.81 142.146 271.866 143.195 271.866L184.6 271.761ZM293.304 355.966H233.658C232.82 355.966 232.086 356.385 231.771 357.119C231.352 357.853 231.352 358.692 231.771 359.321C232.505 360.58 233.239 361.838 233.763 362.782C234.182 363.516 234.916 363.935 235.65 363.935C245.189 363.935 279.991 363.935 295.295 363.935C296.134 363.935 296.868 363.516 297.182 362.782C297.601 362.048 297.601 361.209 297.182 360.58L295.19 357.119C294.771 356.385 294.037 355.966 293.304 355.966ZM192.148 362.048H194.978C196.131 362.048 196.97 361.104 196.97 360.055C196.97 358.902 196.026 358.063 194.978 358.063H192.148C190.995 358.063 190.156 359.007 190.156 360.055C190.156 361.209 190.995 362.048 192.148 362.048ZM135.857 362.048H138.687C139.84 362.048 140.679 361.104 140.679 360.055C140.679 358.902 139.735 358.063 138.687 358.063H135.857C134.704 358.063 133.865 359.007 133.865 360.055C133.865 361.209 134.809 362.048 135.857 362.048ZM262.485 362.048H265.525C266.678 362.048 267.517 361.104 267.517 360.055C267.517 358.902 266.573 358.063 265.525 358.063H262.485C261.332 358.063 260.493 359.007 260.493 360.055C260.493 361.209 261.332 362.048 262.485 362.048ZM272.443 362.048H275.483C276.636 362.048 277.475 361.104 277.475 360.055C277.475 358.902 276.532 358.063 275.483 358.063H272.443C271.29 358.063 270.452 359.007 270.452 360.055C270.347 361.209 271.29 362.048 272.443 362.048ZM119.399 362.048H128.938C130.092 362.048 130.93 361.104 130.93 360.055C130.93 358.902 129.987 358.063 128.938 358.063H119.399C118.246 358.063 117.408 359.007 117.408 360.055C117.408 361.209 118.351 362.048 119.399 362.048ZM150.532 357.958H155.669L154.411 356.071H149.274L150.532 357.958Z" fill="#142664"/>
<path d="M246.028 362.782C247.533 362.782 248.753 361.561 248.753 360.055C248.753 358.549 247.533 357.329 246.028 357.329C244.522 357.329 243.302 358.549 243.302 360.055C243.302 361.561 244.522 362.782 246.028 362.782Z" fill="#142664"/>
<path d="M331.145 320.732L306.616 322.829C305.463 322.934 304.415 323.563 303.681 324.402C302.948 325.241 302.738 326.499 302.948 327.653C304.31 334.993 307.35 350.723 308.608 357.224C308.818 358.273 308.084 359.321 307.036 359.531C305.987 359.741 304.939 359.007 304.73 357.958C303.472 351.457 300.432 335.727 299.069 328.387C298.65 326.08 299.174 323.773 300.537 321.886C301.899 319.998 303.996 318.845 306.302 318.635C313.325 318.006 324.227 317.062 331.565 316.433C332.823 316.328 333.871 315.699 334.605 314.65C335.338 313.601 335.548 312.343 335.129 311.19C333.766 306.366 332.194 301.018 332.194 301.018C331.879 299.969 332.508 298.816 333.556 298.501C334.605 298.187 335.758 298.816 336.072 299.864C336.072 299.864 337.644 305.317 339.007 310.036C339.636 312.028 339.426 314.126 338.483 316.013L356.408 314.65C357.561 314.545 358.505 315.384 358.609 316.538C358.714 317.691 357.876 318.635 356.723 318.74L331.774 320.732C331.46 320.837 331.25 320.732 331.145 320.732Z" fill="#142664"/>
<path d="M213.427 97.3756C215.838 95.5929 219.507 94.2297 223.595 93.4957C227.054 92.8665 230.933 92.8665 234.707 93.4957C236.908 93.8103 239.004 94.4395 240.996 95.2784C245.399 97.1659 249.277 100.417 251.374 105.765C251.688 106.499 252.527 106.918 253.261 106.603C253.994 106.289 254.414 105.45 254.099 104.716C251.898 98.3194 247.6 94.2297 242.464 91.8179C240.158 90.7693 237.747 90.0352 235.231 89.6158C231.038 88.9866 226.74 89.1964 222.861 90.0352C218.144 91.0839 214.056 92.9714 211.436 95.1735C210.807 95.6978 210.702 96.6416 211.226 97.2707C211.855 97.795 212.798 97.8999 213.427 97.3756Z" fill="#142664"/>
<path d="M246.133 88.4624C248.124 89.1964 249.906 90.1401 251.688 91.1888C253.365 92.2374 254.938 93.4957 256.405 94.9638C257.244 95.8027 257.978 96.7465 258.711 97.6902C260.284 99.8923 261.437 102.409 262.066 105.45C262.171 106.289 262.904 106.813 263.743 106.708C264.582 106.604 265.106 105.869 265.001 105.031C264.686 101.36 263.638 98.2145 261.961 95.593C261.227 94.3346 260.284 93.1812 259.34 92.1325C257.663 90.4547 255.672 89.0915 253.575 87.938C251.479 86.8894 249.277 86.0505 247.076 85.5262C246.342 85.3165 245.504 85.7359 245.189 86.47C244.875 87.4137 245.294 88.2526 246.133 88.4624Z" fill="#142664"/>
<path d="M222.966 102.933C223.595 102.933 224.224 103.038 224.853 103.038C225.482 103.038 226.111 103.143 226.635 103.248C227.054 103.248 227.474 103.248 227.788 103.248C228.207 103.248 228.627 103.248 229.046 103.248C229.57 103.248 230.094 103.353 230.514 103.458C231.247 103.772 232.086 103.353 232.4 102.619C232.715 101.885 232.296 101.046 231.562 100.731C230.514 100.207 229.57 99.7875 228.417 99.4729C227.998 99.368 227.474 99.2632 226.95 99.2632C226.321 99.2632 225.692 99.2632 225.063 99.368C224.119 99.4729 223.281 99.7875 222.337 99.9972C221.499 100.102 220.975 100.941 221.079 101.675C221.394 102.514 222.128 103.038 222.966 102.933Z" fill="#142664"/>
<path d="M330.936 115.726C330.936 115.726 335.234 114.154 341.104 113.629C344.144 113.419 347.708 113.524 351.272 114.468C353.159 114.888 355.045 115.622 356.932 116.565C360.601 118.453 364.165 121.494 367.1 126.318C367.519 127.052 368.463 127.261 369.092 126.842C369.826 126.422 370.035 125.479 369.616 124.849C366.576 119.187 362.802 115.517 358.714 113.21C356.618 111.951 354.416 111.113 352.215 110.588C348.232 109.54 344.248 109.644 340.789 110.064C334.395 110.798 329.887 113 329.887 113C329.154 113.315 328.839 114.154 329.154 114.992C329.363 115.726 330.202 116.041 330.936 115.726Z" fill="#142664"/>
<path d="M369.616 137.643C369.616 138.167 369.511 138.796 369.511 139.32C369.511 139.845 369.511 140.474 369.511 140.998C369.511 141.313 369.616 141.627 369.721 141.942C369.93 142.676 370.14 143.41 370.35 144.249C370.35 145.088 371.084 145.717 371.922 145.612C372.761 145.612 373.39 144.878 373.285 144.039C373.39 143.2 373.494 142.361 373.599 141.523C373.599 141.208 373.599 140.789 373.599 140.474C373.494 139.845 373.39 139.32 373.18 138.691C372.97 138.062 372.761 137.538 372.551 137.014C372.446 136.175 371.608 135.65 370.874 135.755C369.93 136.07 369.406 136.909 369.616 137.643Z" fill="#142664"/>
<path d="M354.836 123.067C355.779 123.906 356.723 124.954 357.561 126.003C358.295 126.947 359.029 128.1 359.658 129.254C359.972 129.883 360.391 130.617 360.706 131.351C361.335 132.924 361.859 134.707 362.069 136.699C362.069 137.538 362.802 138.167 363.536 138.167C364.375 138.167 365.004 137.433 365.004 136.699C365.108 134.287 364.899 132.085 364.27 130.093C363.955 129.149 363.641 128.205 363.117 127.366C362.278 125.898 361.335 124.64 360.182 123.591C359.029 122.438 357.771 121.494 356.513 120.655C355.884 120.131 354.941 120.236 354.416 120.97C354.102 121.599 354.207 122.543 354.836 123.067Z" fill="#142664"/>
<path d="M335.967 299.969C335.653 298.921 334.5 298.396 333.452 298.711C332.403 299.026 331.879 300.179 332.194 301.228C332.508 302.276 333.661 302.801 334.709 302.486C335.758 302.171 336.282 301.018 335.967 299.969ZM334.5 292.629C334.395 291.475 333.452 290.637 332.403 290.741C331.25 290.846 330.412 291.79 330.516 292.839C330.621 293.992 331.565 294.831 332.613 294.726C333.661 294.726 334.5 293.782 334.5 292.629ZM335.129 285.289C335.443 284.24 334.814 283.087 333.766 282.772C332.718 282.457 331.565 283.087 331.25 284.135C330.936 285.184 331.565 286.337 332.613 286.652C333.766 287.071 334.814 286.442 335.129 285.289ZM338.378 278.892C339.007 278.053 338.902 276.795 337.959 276.061C337.12 275.432 335.862 275.536 335.129 276.48C334.5 277.319 334.605 278.577 335.548 279.311C336.387 279.941 337.645 279.731 338.378 278.892ZM343.724 273.964C344.668 273.334 344.982 272.181 344.353 271.237C343.724 270.293 342.571 269.979 341.628 270.608C340.684 271.237 340.37 272.391 340.999 273.334C341.523 274.278 342.781 274.593 343.724 273.964ZM350.538 271.027C351.586 270.713 352.215 269.664 351.901 268.511C351.586 267.462 350.538 266.833 349.385 267.148C348.337 267.462 347.708 268.511 348.022 269.664C348.337 270.713 349.49 271.342 350.538 271.027ZM365.633 270.503C366.681 270.713 367.729 269.979 367.939 268.825C368.149 267.777 367.415 266.728 366.262 266.518C365.213 266.309 364.165 267.043 363.956 268.196C363.746 269.245 364.584 270.293 365.633 270.503ZM357.981 269.874C359.134 269.874 359.972 268.93 359.972 267.777C359.972 266.623 359.029 265.784 357.876 265.784C356.723 265.784 355.884 266.728 355.884 267.882C355.989 269.035 356.932 269.979 357.981 269.874Z" fill="#142664"/>
<path d="M230.619 301.228C230.933 300.179 230.409 299.025 229.361 298.711C228.312 298.396 227.159 298.921 226.845 299.969C226.53 301.018 227.054 302.171 228.103 302.486C229.151 302.905 230.199 302.276 230.619 301.228ZM232.296 292.944C232.401 291.79 231.562 290.846 230.409 290.846C229.256 290.741 228.312 291.58 228.312 292.734C228.208 293.887 229.046 294.831 230.199 294.831C231.247 294.831 232.191 293.992 232.296 292.944ZM231.457 284.24C231.143 283.191 230.094 282.562 228.941 282.877C227.893 283.191 227.264 284.24 227.579 285.393C227.893 286.442 228.941 287.071 230.094 286.757C231.143 286.442 231.772 285.289 231.457 284.24ZM227.579 276.375C226.95 275.536 225.692 275.327 224.748 275.956C223.91 276.585 223.7 277.843 224.329 278.787C224.958 279.626 226.216 279.836 227.159 279.207C228.103 278.577 228.312 277.319 227.579 276.375ZM221.184 270.608C220.241 269.979 218.983 270.293 218.459 271.237C217.83 272.181 218.144 273.439 219.088 273.964C220.031 274.593 221.289 274.278 221.813 273.334C222.337 272.391 222.128 271.132 221.184 270.608ZM213.218 267.147C212.169 266.833 211.016 267.462 210.702 268.511C210.387 269.559 211.016 270.713 212.064 271.027C213.113 271.342 214.266 270.713 214.58 269.664C215 268.511 214.371 267.462 213.218 267.147Z" fill="#142664"/>
<path d="M211.645 158.196C210.282 158.301 208.291 157.881 207.347 156.832C206.404 155.784 206.299 154.421 206.299 153.057C205.88 126.947 238.166 105.135 266.573 105.135C298.23 105.135 324.017 130.827 324.017 162.6C324.017 179.168 316.994 194.059 305.883 204.545C305.044 205.279 303.996 205.698 302.843 205.698C299.069 205.698 290.159 205.698 286.071 205.698C284.813 205.698 283.555 206.223 282.716 207.271C281.563 208.634 279.991 210.417 278.838 211.78C277.999 212.724 276.741 213.353 275.483 213.353C273.806 213.353 271.29 213.353 269.089 213.353C266.678 213.353 264.582 215.346 264.582 217.862C264.582 218.072 264.582 218.387 264.582 218.596C264.582 221.113 262.59 223.105 260.074 223.105C249.697 223.105 224.015 223.105 213.637 223.105C211.121 223.105 209.129 221.113 209.129 218.596C209.129 211.99 209.129 199.616 209.129 192.486C209.129 190.179 211.016 188.291 213.322 188.291C215.524 188.291 217.725 187.452 219.297 185.774C220.87 184.202 221.813 181.999 221.813 179.797C221.813 175.708 221.813 170.674 221.813 166.585C221.813 164.383 220.975 162.18 219.297 160.608C217.725 159.035 215.524 158.091 213.322 158.091C212.903 158.091 212.379 158.091 211.645 158.196Z" fill="white"/>
<path d="M324.541 128.625C331.25 124.325 338.378 124.43 344.563 126.527C347.288 127.366 349.385 129.254 351.481 131.246C353.368 133.134 354.836 135.545 355.989 138.272C357.456 141.732 358.924 145.507 359.134 150.226C359.238 153.267 359.553 156.518 359.134 160.083C358.295 168.053 356.513 176.651 352.11 186.823C351.167 188.186 351.481 190.074 352.844 191.018C354.207 191.961 356.094 191.647 357.037 190.283C364.375 183.258 369.511 176.547 373.494 169.835C377.163 163.753 379.155 157.881 380.413 152.219C382.3 143.934 381.566 136.279 379.469 129.778C376.744 121.284 371.188 114.678 364.584 110.483C359.658 107.338 354.207 105.135 348.441 104.716C337.016 103.877 324.646 107.338 315.317 117.929C312.277 120.55 311.962 125.059 314.478 128.1C316.994 130.827 321.501 131.246 324.541 128.625Z" fill="#00E6B3"/>
<path d="M290.578 210.627C290.788 209.368 290.369 208.11 289.53 207.166C288.691 206.223 287.538 205.698 286.28 205.698C286.176 205.698 286.071 205.698 285.861 205.698C284.603 205.698 283.345 206.223 282.612 207.166C281.249 208.634 279.362 210.941 278.209 212.305C277.685 212.934 277.265 213.773 277.161 214.612C276.637 218.491 275.064 230.236 274.33 235.689C274.121 237.367 272.863 238.835 271.186 239.254C270.347 239.464 269.404 239.778 268.46 239.988C267.517 240.198 266.573 240.093 265.735 239.674C264.896 239.254 264.267 238.415 264.058 237.471C263.848 236.528 263.219 235.689 262.38 235.269C261.542 234.745 260.493 234.64 259.55 234.955C252.736 236.947 237.746 241.456 230.409 243.658C229.256 243.973 228.417 244.707 227.788 245.756C227.264 246.804 227.159 247.958 227.474 249.111C228.312 251.942 229.465 255.613 230.304 258.444C230.618 259.597 231.352 260.436 232.4 261.065C233.449 261.59 234.602 261.695 235.755 261.38C245.923 258.339 271.605 250.474 280.096 247.853C281.773 247.329 282.926 245.965 283.136 244.288C283.66 240.408 284.498 233.592 284.813 231.285C284.918 230.76 285.023 230.236 285.337 229.712C286.071 228.348 287.853 225.203 288.587 223.839C288.796 223.42 289.006 222.896 289.111 222.371C289.215 220.169 289.949 214.716 290.578 210.627Z" fill="white"/>
<path d="M270.871 166.585C270.871 164.383 270.033 162.18 268.355 160.608C266.783 159.035 264.582 158.091 262.38 158.091C260.179 158.091 257.978 158.93 256.405 160.608C254.833 162.18 253.889 164.383 253.889 166.585C253.889 170.674 253.889 175.708 253.889 179.797C253.889 181.999 254.728 184.201 256.405 185.774C257.978 187.347 260.179 188.291 262.38 188.291C264.582 188.291 266.783 187.452 268.355 185.774C269.928 184.201 270.871 181.999 270.871 179.797C270.871 175.603 270.871 170.674 270.871 166.585Z" fill="#142664"/>
<path d="M210.911 160.608C210.597 160.293 210.387 159.769 210.597 159.244C210.702 158.72 211.121 158.405 211.645 158.301C212.274 158.196 212.798 158.091 213.427 158.091C215.629 158.091 217.83 158.93 219.402 160.608C220.975 162.285 221.918 164.383 221.918 166.585C221.918 170.674 221.918 175.708 221.918 179.797C221.918 181.999 221.079 184.201 219.402 185.774C217.83 187.347 215.629 188.291 213.427 188.291C212.798 188.291 212.274 188.186 211.645 188.081C211.121 187.977 210.807 187.662 210.597 187.138C210.492 186.613 210.597 186.194 210.911 185.774C212.484 184.201 213.427 181.999 213.427 179.797C213.427 175.708 213.427 170.674 213.427 166.585C213.427 164.278 212.589 162.18 210.911 160.608Z" fill="#142664"/>
<path d="M231.038 198.568C231.038 198.568 231.562 197.938 232.296 196.995C232.61 196.47 233.029 195.946 233.239 195.317C233.344 195.002 233.449 194.583 233.554 194.163C233.868 192.695 233.973 191.437 233.973 191.437C234.497 190.283 233.868 189.025 232.82 188.501C231.667 187.977 230.409 188.606 229.885 189.654C229.885 189.654 229.046 190.598 228.208 191.856C227.998 192.171 227.788 192.486 227.683 192.905C227.474 193.534 227.264 194.163 227.159 194.793C226.95 195.946 226.95 196.785 226.95 196.785C226.426 197.938 227.054 199.197 228.103 199.721C229.256 200.245 230.618 199.721 231.038 198.568Z" fill="#142664"/>
<path d="M246.447 196.89C246.447 196.89 246.447 196.051 246.237 194.897C246.133 194.268 246.028 193.639 245.713 193.01C245.608 192.695 245.399 192.276 245.189 191.961C244.35 190.703 243.512 189.759 243.512 189.759C242.988 188.606 241.73 188.081 240.577 188.606C239.424 189.13 238.9 190.388 239.424 191.542C239.424 191.542 239.529 192.8 239.843 194.268C239.948 194.688 240.053 195.002 240.158 195.422C240.472 196.051 240.786 196.575 241.101 197.1C241.73 198.043 242.359 198.672 242.359 198.672C242.883 199.826 244.141 200.35 245.294 199.826C246.447 199.302 246.971 198.043 246.447 196.89Z" fill="#142664"/>
<path d="M331.041 131.351C332.194 130.197 332.403 128.31 331.565 126.947C329.259 122.962 324.646 114.888 322.34 110.903C321.502 109.435 319.824 108.806 318.252 109.12C314.164 110.169 306.826 112.056 306.826 112.056L322.864 139.845C322.759 139.74 328.105 134.392 331.041 131.351Z" fill="white"/>
<path d="M254.865 221.008H267.412C268.565 221.008 269.404 221.952 269.404 223C269.404 224.049 268.46 224.993 267.412 224.993C267.412 224.993 227.159 224.993 213.532 224.993C211.855 224.993 210.178 224.259 208.92 223.105C207.662 221.847 207.033 220.274 207.033 218.491C207.033 210.627 207.033 195.002 207.033 195.002C207.033 193.849 207.976 193.01 209.025 193.01C210.178 193.01 211.016 193.954 211.016 195.002C211.016 195.002 211.016 210.627 211.016 218.491C211.016 219.121 211.226 219.75 211.75 220.274C212.274 220.798 212.798 221.008 213.532 221.008H218.354C218.354 220.694 218.249 220.274 218.249 219.959C218.249 219.54 218.144 219.121 218.144 218.596C218.144 217.862 218.249 217.023 218.354 216.394C218.459 215.136 218.668 214.192 218.668 214.192C218.668 213.353 219.297 212.724 220.136 212.724C220.975 212.724 221.604 213.353 221.604 214.192C221.604 214.192 221.813 215.136 221.918 216.394C222.023 217.023 222.128 217.862 222.128 218.596C222.128 219.016 222.128 219.435 222.023 219.959C222.023 220.379 221.918 220.694 221.918 221.008H229.361C229.361 220.694 229.256 220.274 229.256 219.959C229.256 219.54 229.151 219.121 229.151 218.596C229.151 217.862 229.256 217.023 229.361 216.394C229.465 215.136 229.675 214.192 229.675 214.192C229.675 213.353 230.304 212.724 231.143 212.724C231.981 212.724 232.61 213.353 232.61 214.192C232.61 214.192 232.82 215.136 232.925 216.394C233.029 217.023 233.134 217.862 233.134 218.596C233.134 219.016 233.134 219.435 233.029 219.959C233.029 220.379 232.925 220.694 232.925 221.008H240.367C240.367 220.694 240.262 220.274 240.262 219.959C240.262 219.54 240.157 219.121 240.157 218.596C240.157 217.862 240.262 217.023 240.367 216.394C240.472 215.136 240.682 214.192 240.682 214.192C240.682 213.353 241.311 212.724 242.149 212.724C242.988 212.724 243.617 213.353 243.617 214.192C243.617 214.192 243.826 215.136 243.931 216.394C244.036 217.023 244.141 217.862 244.141 218.596C244.141 219.016 244.141 219.435 244.036 219.959C244.036 220.379 243.931 220.694 243.931 221.008H251.374C251.374 220.694 251.269 220.274 251.269 219.959C251.269 219.54 251.164 219.121 251.164 218.596C251.164 217.862 251.269 217.023 251.374 216.394C251.479 215.136 251.688 214.192 251.688 214.192C251.688 213.353 252.317 212.724 253.156 212.724C253.994 212.724 254.623 213.353 254.623 214.192C254.623 214.192 254.833 215.136 254.938 216.394C255.043 217.023 255.147 217.862 255.147 218.596C255.147 219.016 255.147 219.435 255.043 219.959L254.865 221.008Z" fill="#142664"/>
<path d="M291.605 206.647C292.456 207.924 292.753 209.473 292.57 210.941L290.997 222.476C290.893 223.21 290.683 223.944 290.264 224.678C289.53 226.041 287.853 229.187 287.014 230.551C286.909 230.76 286.804 231.075 286.7 231.389C286.385 233.696 285.547 240.512 285.022 244.392C284.708 246.909 282.926 248.901 280.62 249.635C272.234 252.152 246.447 260.017 236.279 263.163C234.707 263.687 232.925 263.477 231.457 262.638C229.99 261.799 228.836 260.436 228.417 258.863C227.579 256.032 226.425 252.362 225.587 249.531C225.063 247.958 225.272 246.175 226.111 244.707C226.95 243.239 228.312 242.085 229.885 241.666C237.222 239.464 252.212 235.06 259.026 232.962C260.493 232.543 262.066 232.753 263.324 233.487C264.686 234.221 265.63 235.479 266.049 236.947C266.154 237.367 266.469 237.681 266.783 237.891C267.097 238.101 267.622 238.205 267.936 237.996C268.879 237.786 269.823 237.471 270.661 237.262C271.605 237.052 272.234 236.213 272.339 235.374C273.072 229.921 274.645 218.177 275.169 214.297C275.379 213.039 275.903 211.885 276.636 210.941C277.79 209.683 279.781 207.376 281.039 205.803C282.297 204.44 283.974 203.601 285.861 203.601C285.966 203.601 286.071 203.601 286.28 203.601C288.062 203.601 289.74 204.335 290.893 205.593C290.893 205.593 291.484 206.465 291.605 206.647ZM288.062 214.402H286.176C284.918 214.402 283.765 214.926 283.031 215.87L278.314 221.637L276.427 235.899C276.112 238.415 274.226 240.512 271.815 241.142C270.976 241.351 270.033 241.666 269.089 241.876C267.622 242.295 266.154 242.085 264.791 241.351C263.533 240.617 262.59 239.359 262.171 237.996C262.066 237.576 261.751 237.262 261.437 237.052C261.122 236.842 260.598 236.842 260.179 236.947L257.873 237.681C257.873 237.786 257.978 237.891 257.978 237.891C258.292 238.52 258.502 239.254 258.816 239.988C258.921 240.408 259.026 240.827 259.131 241.246C259.445 242.924 259.55 244.287 259.55 244.287C259.76 245.126 259.34 245.86 258.502 246.175C257.768 246.385 256.929 245.965 256.615 245.126C256.615 245.126 255.986 243.868 255.357 242.295C255.147 241.876 255.043 241.456 254.938 241.037C254.728 240.303 254.623 239.569 254.518 238.835C254.518 238.73 254.518 238.625 254.518 238.625L247.39 240.722C247.39 240.827 247.495 240.827 247.495 240.932C247.81 241.561 248.019 242.295 248.334 243.029C248.439 243.449 248.543 243.868 248.648 244.287C248.963 245.965 249.068 247.328 249.068 247.328C249.277 248.063 248.858 248.901 248.019 249.216C247.286 249.426 246.447 249.006 246.133 248.167C246.133 248.167 245.504 246.909 244.875 245.336C244.665 244.917 244.56 244.497 244.455 244.078C244.246 243.344 244.141 242.61 244.036 241.876C244.036 241.771 244.036 241.666 244.036 241.666L236.908 243.763C236.908 243.868 237.013 243.868 237.013 243.973C237.327 244.602 237.537 245.336 237.851 246.07C237.956 246.49 238.061 246.909 238.166 247.328C238.48 249.006 238.585 250.369 238.585 250.369C238.795 251.104 238.375 251.942 237.537 252.257C236.698 252.467 235.965 252.047 235.65 251.208C235.65 251.208 235.021 249.95 234.392 248.377C234.183 247.958 234.078 247.538 233.973 247.119C233.763 246.385 233.658 245.651 233.554 244.917C233.554 244.812 233.554 244.707 233.554 244.707L231.457 245.336C230.828 245.546 230.409 245.965 230.094 246.49C229.78 247.014 229.78 247.643 229.885 248.272C230.723 251.104 231.876 254.774 232.715 257.605C232.925 258.234 233.344 258.654 233.868 258.968C234.392 259.283 235.021 259.283 235.65 259.178C245.818 256.137 271.5 248.272 279.991 245.651C280.829 245.336 281.458 244.602 281.668 243.763C282.192 239.883 283.031 233.067 283.345 230.76C283.45 230.026 283.66 229.187 284.079 228.558C284.813 227.195 286.595 224.049 287.329 222.686C287.433 222.476 287.538 222.162 287.643 221.847L288.062 214.402Z" fill="#142664"/>
<path d="M302.843 187.767C302.253 178.605 303.234 168.239 307.005 157.193C307.637 155.347 309.372 154.106 311.323 154.106H321.791C322.974 154.106 323.915 153.126 323.887 151.942C322.961 110.343 295.231 103.248 279.257 103.248C280.515 105.45 280.62 106.918 280.62 106.918C282.811 107.519 284.902 108.312 286.873 109.338C284.909 108.49 282.803 107.74 280.515 107.129C275.064 89.7217 255.776 75.041 236.489 75.041C222.128 75.041 205.356 83.7446 198.228 93.7065C170.344 129.779 197.179 167.949 213.532 171.409V166.795C213.532 164.593 212.589 162.391 211.016 160.818C210.702 160.504 210.597 159.979 210.702 159.455C210.807 159.036 211.121 158.616 211.54 158.511C211.436 158.406 211.331 158.406 211.226 158.302C208.396 157.987 206.194 157.463 206.194 152.22C206.194 152.22 204.307 135.651 218.354 134.708C227.159 134.078 239.843 135.546 245.399 139.426C255.147 146.138 264.582 151.486 274.121 151.8C274.645 151.8 275.169 151.381 275.379 150.751C275.483 150.122 275.274 149.493 274.75 149.179C270.871 147.081 265.42 143.726 262.59 140.16C262.276 139.636 262.38 138.902 262.695 138.378C263.114 137.853 263.743 137.539 264.372 137.644C266.049 137.853 268.251 138.273 270.661 138.797C282.402 141.628 290.578 152.324 290.159 164.488C289.844 173.507 290.788 181.791 292.675 189.341C297.706 210.313 308.189 223.421 308.189 223.421C308.818 224.365 310.076 224.574 311.019 223.945C311.962 223.316 312.172 222.058 311.543 221.114C311.543 221.113 304.101 207.481 302.843 187.767Z" fill="#00E6B3"/>
<path d="M278.419 105.031C278.419 105.031 279.781 108.806 281.249 114.258C281.563 115.412 281.878 116.67 282.192 117.929C282.402 118.768 282.612 119.606 282.821 120.445C283.66 123.801 284.394 127.366 284.603 130.827C284.603 131.666 285.337 132.295 286.071 132.295C286.909 132.295 287.538 131.561 287.538 130.827C287.643 127.576 287.329 124.22 286.805 120.97C286.595 119.606 286.28 118.138 285.966 116.88C285.337 114.468 284.498 112.161 283.869 110.274C282.402 106.394 281.039 103.877 281.039 103.877C280.725 103.143 279.781 102.828 279.047 103.143C278.419 103.458 278.104 104.297 278.419 105.031Z" fill="#142664"/>
<path d="M262.59 136.279C262.59 136.279 262.066 135.441 261.122 134.182C260.703 133.553 260.284 132.819 259.76 132.085C259.445 131.666 259.131 131.246 258.816 130.932C258.082 129.988 257.349 129.149 256.825 128.1C256.51 127.366 255.672 126.947 254.938 127.261C254.204 127.576 253.785 128.415 254.099 129.149C254.414 130.407 254.938 131.77 255.567 132.924C255.881 133.448 256.091 133.973 256.405 134.392C257.034 135.231 257.663 135.965 258.292 136.489C259.55 137.748 260.389 138.377 260.389 138.377C261.018 139.006 261.961 139.006 262.485 138.377C263.219 137.748 263.219 136.804 262.59 136.279Z" fill="#142664"/>
<path d="M200.01 140.789C200.01 140.789 200.953 140.579 202.525 140.369C203.259 140.264 204.098 140.159 205.041 139.95C205.565 139.845 205.985 139.74 206.509 139.635C207.662 139.321 208.71 139.006 209.863 138.901C210.702 138.901 211.331 138.272 211.435 137.433C211.435 136.594 210.807 135.965 209.968 135.86C208.605 135.65 207.243 135.65 205.88 135.755C205.251 135.755 204.727 135.86 204.203 135.965C203.154 136.175 202.316 136.489 201.477 136.804C199.905 137.433 198.857 138.062 198.857 138.062C198.123 138.377 197.703 139.216 198.018 139.95C198.332 140.684 199.171 140.998 200.01 140.789Z" fill="#142664"/>
<path d="M213.427 97.3756C215.838 95.5929 219.507 94.2297 223.595 93.4957C227.054 92.8665 230.933 92.8665 234.707 93.4957C236.908 93.8103 239.004 94.4395 240.996 95.2784C245.399 97.1659 249.277 100.417 251.374 105.765C251.688 106.499 252.527 106.918 253.261 106.603C253.994 106.289 254.414 105.45 254.099 104.716C251.898 98.3194 247.6 94.2297 242.464 91.8179C240.158 90.7693 237.747 90.0352 235.231 89.6158C231.038 88.9866 226.74 89.1964 222.861 90.0352C218.144 91.0839 214.056 92.9714 211.436 95.1735C210.807 95.6978 210.702 96.6416 211.226 97.2707C211.855 97.795 212.798 97.8999 213.427 97.3756Z" fill="#142664"/>
<path d="M246.132 88.4624C248.124 89.1964 249.906 90.1401 251.688 91.1888C253.365 92.2374 254.938 93.4957 256.405 94.9638C257.244 95.8027 257.978 96.7465 258.711 97.6902C260.284 99.8923 261.437 102.409 262.066 105.45C262.171 106.289 262.904 106.813 263.743 106.708C264.582 106.604 265.106 105.869 265.001 105.031C264.686 101.36 263.638 98.2145 261.961 95.593C261.227 94.3346 260.284 93.1812 259.34 92.1325C257.663 90.4547 255.671 89.0915 253.575 87.938C251.479 86.8894 249.277 86.0505 247.076 85.5262C246.342 85.3165 245.504 85.7359 245.189 86.47C244.875 87.4137 245.294 88.2526 246.132 88.4624Z" fill="#142664"/>
<path d="M222.966 102.933C223.595 102.933 224.224 103.038 224.853 103.038C225.482 103.038 226.111 103.143 226.635 103.248C227.054 103.248 227.474 103.248 227.788 103.248C228.207 103.248 228.627 103.248 229.046 103.248C229.57 103.248 230.094 103.353 230.514 103.458C231.247 103.772 232.086 103.353 232.4 102.619C232.715 101.885 232.296 101.046 231.562 100.731C230.514 100.207 229.57 99.7875 228.417 99.4729C227.998 99.368 227.474 99.2632 226.95 99.2632C226.321 99.2632 225.692 99.2632 225.063 99.368C224.119 99.4729 223.281 99.7875 222.337 99.9972C221.499 100.102 220.975 100.941 221.079 101.675C221.394 102.514 222.128 103.038 222.966 102.933Z" fill="#142664"/>
<path d="M330.936 115.726C330.936 115.726 335.233 114.154 341.104 113.629C344.144 113.419 347.708 113.524 351.272 114.468C353.158 114.888 355.045 115.622 356.932 116.565C360.601 118.453 364.165 121.494 367.1 126.318C367.519 127.052 368.463 127.261 369.092 126.842C369.826 126.422 370.035 125.479 369.616 124.849C366.576 119.187 362.802 115.517 358.714 113.21C356.618 111.951 354.416 111.113 352.215 110.588C348.232 109.54 344.248 109.644 340.789 110.064C334.395 110.798 329.887 113 329.887 113C329.154 113.315 328.839 114.154 329.154 114.992C329.363 115.726 330.202 116.041 330.936 115.726Z" fill="#142664"/>
<path d="M369.616 137.643C369.616 138.167 369.511 138.796 369.511 139.32C369.511 139.845 369.511 140.474 369.511 140.998C369.511 141.313 369.616 141.627 369.721 141.942C369.93 142.676 370.14 143.41 370.35 144.249C370.35 145.088 371.083 145.717 371.922 145.612C372.761 145.612 373.39 144.878 373.285 144.039C373.39 143.2 373.494 142.361 373.599 141.523C373.599 141.208 373.599 140.789 373.599 140.474C373.494 139.845 373.39 139.32 373.18 138.691C372.97 138.062 372.761 137.538 372.551 137.014C372.446 136.175 371.608 135.65 370.874 135.755C369.93 136.07 369.406 136.909 369.616 137.643Z" fill="#142664"/>
<path d="M354.836 123.067C355.779 123.906 356.723 124.954 357.561 126.003C358.295 126.947 359.029 128.1 359.658 129.254C359.972 129.883 360.391 130.617 360.706 131.351C361.335 132.924 361.859 134.707 362.069 136.699C362.069 137.538 362.802 138.167 363.536 138.167C364.375 138.167 365.004 137.433 365.004 136.699C365.109 134.287 364.899 132.085 364.27 130.093C363.956 129.149 363.641 128.205 363.117 127.366C362.278 125.898 361.335 124.64 360.182 123.591C359.029 122.438 357.771 121.494 356.513 120.655C355.884 120.131 354.941 120.236 354.416 120.97C354.102 121.599 354.207 122.543 354.836 123.067Z" fill="#142664"/>
</g>
<g clip-path="url(#clip6_4_778)">
<path d="M171.42 273.707C172.893 273.707 174.366 274.55 175.103 275.814C180.997 286.138 206.992 331.014 216.675 347.869C217.411 349.133 217.411 350.818 216.675 352.082C215.938 353.347 214.464 354.189 212.991 354.189C188.469 354.189 110.273 354.189 95.4334 354.189C93.96 354.189 92.4866 353.347 91.7499 352.082C85.8562 341.759 59.8609 296.883 50.1785 280.028C49.4418 278.763 49.4418 277.078 50.1785 275.814C50.9152 274.55 52.3886 273.707 53.862 273.707C78.3839 273.707 156.58 273.707 171.42 273.707Z" fill="white"/>
<path d="M236.987 356.296C236.25 355.032 234.776 354.189 233.303 354.189C218.358 354.189 139.215 354.189 114.588 354.189C113.114 354.189 111.641 355.032 110.904 356.296C110.168 357.56 110.168 359.246 110.904 360.51C111.641 361.774 112.378 363.038 112.904 363.986C113.641 365.25 115.114 366.093 116.587 366.093C131.532 366.093 210.676 366.093 235.303 366.093C236.776 366.093 238.25 365.25 238.986 363.986C239.723 362.722 239.723 361.037 238.986 359.773C238.25 358.508 237.513 357.35 236.987 356.296Z" fill="white"/>
<path d="M235.303 368.116H116.587C114.388 368.116 112.262 366.894 111.157 365.008C110.61 364.028 109.883 362.785 109.157 361.532C108.052 359.636 108.052 357.181 109.157 355.285C110.262 353.399 112.388 352.177 114.588 352.177H233.303C235.503 352.177 237.629 353.399 238.734 355.285C238.755 355.327 238.776 355.359 238.797 355.401C239.134 356.075 239.586 356.844 240.07 357.645C240.291 358.003 240.512 358.382 240.733 358.761C241.838 360.657 241.838 363.112 240.733 365.008C239.618 366.894 237.492 368.116 235.303 368.116ZM114.588 356.212C113.841 356.212 113.02 356.675 112.651 357.318C112.283 357.95 112.283 358.867 112.651 359.499C113.399 360.773 114.146 362.058 114.672 363.017C115.019 363.618 115.84 364.081 116.587 364.081H235.303C236.05 364.081 236.871 363.618 237.239 362.975C237.608 362.343 237.608 361.426 237.239 360.794C237.029 360.426 236.808 360.067 236.597 359.72C236.092 358.867 235.608 358.066 235.208 357.276C234.819 356.654 234.029 356.212 233.293 356.212H114.588Z" fill="#142664"/>
<path d="M298.028 356.296C297.291 355.032 295.818 354.189 294.345 354.189C284.767 354.189 249.826 354.189 234.461 354.189C232.987 354.189 231.514 355.032 230.777 356.296C230.041 357.56 230.041 359.246 230.777 360.51C231.514 361.774 232.251 363.038 232.777 363.986C233.514 365.25 234.987 366.093 236.46 366.093C246.038 366.093 280.979 366.093 296.344 366.093C297.818 366.093 299.291 365.25 300.028 363.986C300.765 362.722 300.765 361.037 300.028 359.773C299.291 358.508 298.554 357.35 298.028 356.296Z" fill="white"/>
<path d="M129.322 358.298H119.745C118.587 358.298 117.745 359.246 117.745 360.299C117.745 361.458 118.692 362.301 119.745 362.301H129.322C130.48 362.301 131.322 361.353 131.322 360.299C131.322 359.14 130.374 358.298 129.322 358.298Z" fill="#142664"/>
<path d="M301.817 358.824L299.817 355.348C298.66 353.347 296.555 352.188 294.345 352.188H232.672C233.303 350.397 233.198 348.501 232.251 346.815C222.568 329.96 196.573 285.084 190.679 274.76C189.522 272.759 187.417 271.6 185.207 271.6L143.635 271.705C142.583 271.705 141.636 272.654 141.636 273.707C141.636 274.76 142.478 275.709 143.635 275.709H172.788L216.885 352.188H95.223C94.1706 352.188 93.2234 353.031 93.2234 354.189C93.2234 355.243 94.0653 356.191 95.223 356.191H228.567C227.936 357.982 228.041 359.878 228.988 361.563C229.725 362.828 230.462 364.092 230.988 365.04C232.145 367.041 234.25 368.2 236.461 368.2H296.344C298.66 368.2 300.659 366.936 301.817 365.04C302.975 363.144 302.975 360.721 301.817 358.824ZM298.239 363.038C297.923 363.776 297.186 364.197 296.344 364.197H236.461C235.724 364.197 234.987 363.776 234.566 363.038C234.04 362.09 233.303 360.826 232.566 359.562C232.145 358.93 232.145 358.087 232.566 357.35C232.882 356.612 233.619 356.191 234.461 356.191H294.345C295.081 356.191 295.818 356.612 296.239 357.35L298.239 360.826C298.66 361.458 298.66 362.301 298.239 363.038Z" fill="#142664"/>
<path d="M276.453 358.298H273.401C272.243 358.298 271.401 359.246 271.401 360.299C271.296 361.458 272.243 362.301 273.401 362.301H276.453C277.611 362.301 278.453 361.353 278.453 360.299C278.453 359.14 277.506 358.298 276.453 358.298Z" fill="#142664"/>
<path d="M246.88 363.038C248.391 363.038 249.616 361.812 249.616 360.299C249.616 358.787 248.391 357.56 246.88 357.56C245.368 357.56 244.143 358.787 244.143 360.299C244.143 361.812 245.368 363.038 246.88 363.038Z" fill="#142664"/>
</g>
<g clip-path="url(#clip7_4_778)">
<path d="M71.239 183.01C71.3581 183.01 71.4771 183.01 71.4771 182.891C72.9058 180.629 75.406 179.2 78.2633 179.2C82.6683 179.2 86.24 182.772 86.24 187.177V187.296V187.416C85.8828 196.345 71.12 204.68 71.12 204.68C71.12 204.68 57.6667 196.941 56.119 188.725C56 188.249 56 187.773 56 187.177C56 182.772 59.5716 179.2 63.9767 179.2C66.834 179.2 69.3342 180.629 70.7628 182.891C70.8819 183.01 70.8819 183.01 71.0009 183.01C71.12 183.01 71.12 183.01 71.239 183.01Z" fill="#142664"/>
</g>
<g clip-path="url(#clip8_4_778)">
<path d="M96.492 99.2848C96.6639 99.2848 96.8359 99.2848 96.8359 99.1134C98.8995 95.8568 102.511 93.8 106.638 93.8C113.001 93.8 118.16 98.942 118.16 105.284V105.455V105.627C117.644 118.482 96.32 130.48 96.32 130.48C96.32 130.48 76.8876 119.339 74.652 107.512C74.48 106.827 74.48 106.141 74.48 105.284C74.48 98.942 79.6391 93.8 86.0019 93.8C90.1291 93.8 93.7405 95.8568 95.8041 99.1134C95.9761 99.2848 95.9761 99.2848 96.148 99.2848C96.32 99.2848 96.32 99.2848 96.492 99.2848Z" fill="#142664"/>
</g>
<g clip-path="url(#clip9_4_778)">
<path d="M150.717 163.47C150.794 163.47 150.871 163.47 150.871 163.393C151.797 161.926 153.418 161 155.27 161C158.125 161 160.44 163.316 160.44 166.172V166.249V166.327C160.209 172.116 150.64 177.52 150.64 177.52C150.64 177.52 141.92 172.502 140.917 167.176C140.84 166.867 140.84 166.558 140.84 166.172C140.84 163.316 143.155 161 146.01 161C147.862 161 149.483 161.926 150.408 163.393C150.486 163.47 150.486 163.47 150.563 163.47C150.64 163.47 150.64 163.47 150.717 163.47Z" fill="#142664"/>
</g>
<g clip-path="url(#clip10_4_778)">
<path d="M64.3402 220.405C64.3402 220.405 64.4246 219.233 64.509 217.639C64.509 216.805 64.5582 215.841 64.5374 214.881C64.5263 214.325 64.48 213.772 64.399 213.222C64.1824 211.111 63.9596 209.376 63.9596 209.376C63.9665 208.999 63.4282 208.748 62.8629 208.749C62.227 208.756 61.7869 209.082 61.7724 209.416C61.7724 209.416 61.6465 211.178 61.5759 213.27C61.5371 213.825 61.5371 214.383 61.5759 214.939C61.5967 215.896 61.6873 216.849 61.7565 217.678C61.8824 219.254 62.0845 220.448 62.0845 220.448C62.0776 220.825 62.6152 221.076 63.1812 221.074C63.8863 221.066 64.3962 220.735 64.3402 220.405Z" fill="#00E6B3"/>
<path d="M63.8212 200.657C63.8212 200.657 63.8496 197.357 63.8579 192.883C63.8185 190.538 63.8212 187.829 63.7548 185.132C63.7085 183.611 63.6524 181.972 63.5362 180.462C63.2192 174.512 62.9134 169.62 62.9134 169.62C62.9023 168.563 62.3516 167.831 61.7849 167.808C61.149 167.796 60.7234 168.691 60.7255 169.632C60.7255 169.632 60.6833 174.582 60.7124 180.462C60.6895 181.996 60.7359 183.517 60.7912 185.156C60.8604 187.852 60.994 190.535 61.1033 192.872C61.304 197.311 61.5641 200.68 61.5641 200.68C61.5745 201.738 62.1253 202.473 62.692 202.493C63.3978 202.493 63.8925 201.586 63.8212 200.657Z" fill="#00E6B3"/>
<path d="M79.715 181.842C79.715 181.842 79.778 179.85 79.8327 177.148C79.8174 175.732 79.8493 174.097 79.8105 172.47C79.7801 171.552 79.7413 170.563 79.641 169.653C79.3864 166.067 79.131 163.113 79.131 163.113C79.1321 162.968 79.1042 162.824 79.0487 162.69C78.9933 162.556 78.9116 162.434 78.8083 162.332C78.7051 162.229 78.5823 162.149 78.4473 162.094C78.3124 162.04 78.1678 162.013 78.0222 162.015C77.8766 162.017 77.7329 162.048 77.5995 162.106C77.466 162.164 77.3455 162.248 77.2451 162.353C77.1447 162.458 77.0663 162.582 77.0145 162.718C76.9628 162.853 76.9388 162.998 76.9438 163.143C76.9438 163.143 76.8497 166.132 76.8179 169.682C76.7785 170.608 76.8096 171.526 76.8483 172.515C76.8864 174.142 76.9943 175.761 77.0794 177.17C77.2337 179.848 77.4586 181.88 77.4586 181.88C77.4641 182.169 77.5831 182.444 77.7901 182.647C77.9972 182.849 78.2757 182.962 78.5657 182.962C78.7166 182.97 78.8674 182.947 79.0087 182.894C79.15 182.841 79.2788 182.759 79.3868 182.654C79.4948 182.548 79.5797 182.422 79.6362 182.282C79.6927 182.143 79.7196 181.993 79.715 181.842Z" fill="#00E6B3"/>
<path d="M80.706 219.51C80.706 219.51 80.7502 216.813 80.78 213.156C80.7516 211.238 80.7675 209.025 80.7108 206.823C80.6714 205.582 80.6236 204.24 80.515 203.006C80.2264 198.145 79.9497 194.149 79.9497 194.149C79.9857 193.807 79.8901 193.465 79.6824 193.191C79.4747 192.917 79.1703 192.731 78.8308 192.672C78.1949 192.666 77.7652 193.399 77.7625 194.169C77.7625 194.169 77.6967 198.215 77.6974 203.02C77.667 204.273 77.7064 205.517 77.7541 206.856C77.8074 209.058 77.9306 211.252 78.0309 213.16C78.2101 216.787 78.4537 219.539 78.4537 219.539C78.4179 219.881 78.5135 220.223 78.7211 220.497C78.9288 220.772 79.2331 220.957 79.5726 221.016C79.7476 220.994 79.9165 220.938 80.0692 220.85C80.2218 220.762 80.355 220.644 80.4609 220.503C80.5667 220.363 80.643 220.202 80.6851 220.031C80.7272 219.861 80.7343 219.683 80.706 219.51Z" fill="#00E6B3"/>
<path d="M42.9115 226.504C42.9115 226.504 42.9399 223.204 42.9482 218.73C42.9087 216.385 42.9122 213.676 42.8458 210.98C42.7987 209.458 42.7434 207.819 42.6271 206.309C42.3102 200.359 42.0044 195.467 42.0044 195.467C41.9933 194.41 41.4432 193.678 40.8765 193.655C40.2399 193.643 39.8151 194.538 39.8172 195.479C39.8172 195.479 39.7743 200.429 39.804 206.306C39.7805 207.839 39.8275 209.361 39.8829 211C39.9521 213.695 40.0856 216.378 40.195 218.715C40.3956 223.154 40.6551 226.524 40.6551 226.524C40.6662 227.581 41.217 228.313 41.783 228.337C42.4887 228.34 42.9835 227.433 42.9115 226.504Z" fill="#00E6B3"/>
<path d="M41.8003 184.226C41.8003 184.226 41.8446 181.54 41.8751 177.899C41.8467 175.989 41.8633 173.785 41.81 171.591C41.7706 170.35 41.7228 169.019 41.6142 167.79C41.3264 162.95 41.044 158.969 41.044 158.969C41.0793 158.629 40.9834 158.287 40.7757 158.014C40.5679 157.742 40.2639 157.558 39.9252 157.5C39.2886 157.494 38.8596 158.224 38.8568 158.99C38.8568 158.99 38.7876 163.019 38.7876 167.804C38.7572 169.053 38.7966 170.292 38.8437 171.625C38.8969 173.819 39.0201 176.003 39.1204 177.903C39.299 181.515 39.5425 184.256 39.5425 184.256C39.5071 184.597 39.6029 184.939 39.8107 185.211C40.0185 185.484 40.3226 185.668 40.6614 185.726C40.8366 185.706 41.0058 185.65 41.1589 185.563C41.312 185.476 41.4458 185.359 41.5522 185.218C41.6586 185.078 41.7355 184.918 41.7781 184.748C41.8208 184.577 41.8283 184.4 41.8003 184.226Z" fill="#00E6B3"/>
</g>
<g clip-path="url(#clip11_4_778)">
<path d="M140.5 213.965C140.5 213.965 140.585 212.793 140.669 211.199C140.669 210.365 140.718 209.401 140.697 208.441C140.686 207.886 140.64 207.332 140.559 206.782C140.342 204.671 140.12 202.936 140.12 202.936C140.127 202.559 139.588 202.308 139.023 202.31C138.387 202.316 137.947 202.642 137.932 202.976C137.932 202.976 137.806 204.738 137.736 206.83C137.697 207.385 137.697 207.943 137.736 208.499C137.757 209.456 137.847 210.409 137.916 211.238C138.042 212.814 138.244 214.008 138.244 214.008C138.238 214.385 138.775 214.636 139.341 214.635C140.046 214.626 140.556 214.295 140.5 213.965Z" fill="#00E6B3"/>
<path d="M139.981 194.217C139.981 194.217 140.01 190.917 140.018 186.443C139.978 184.098 139.981 181.389 139.915 178.693C139.868 177.171 139.812 175.532 139.696 174.022C139.379 168.072 139.073 163.18 139.073 163.18C139.062 162.123 138.512 161.391 137.945 161.368C137.309 161.356 136.883 162.251 136.886 163.192C136.886 163.192 136.843 168.142 136.872 174.022C136.85 175.556 136.896 177.078 136.951 178.716C137.02 181.412 137.154 184.095 137.263 186.432C137.464 190.871 137.724 194.24 137.724 194.24C137.735 195.298 138.285 196.033 138.852 196.053C139.558 196.053 140.053 195.146 139.981 194.217Z" fill="#00E6B3"/>
<path d="M155.875 175.402C155.875 175.402 155.938 173.41 155.993 170.708C155.977 169.292 156.009 167.657 155.971 166.03C155.94 165.112 155.901 164.123 155.801 163.213C155.546 159.627 155.291 156.673 155.291 156.673C155.292 156.528 155.264 156.384 155.209 156.25C155.153 156.116 155.072 155.994 154.968 155.892C154.865 155.789 154.742 155.709 154.607 155.654C154.472 155.6 154.328 155.573 154.182 155.575C154.037 155.577 153.893 155.608 153.759 155.666C153.626 155.724 153.506 155.808 153.405 155.913C153.305 156.018 153.226 156.142 153.175 156.278C153.123 156.413 153.099 156.558 153.104 156.703C153.104 156.703 153.01 159.692 152.978 163.242C152.938 164.168 152.97 165.086 153.008 166.075C153.046 167.702 153.154 169.321 153.239 170.731C153.394 173.408 153.619 175.44 153.619 175.44C153.624 175.729 153.743 176.004 153.95 176.207C154.157 176.409 154.436 176.522 154.726 176.522C154.877 176.53 155.027 176.507 155.169 176.454C155.31 176.401 155.439 176.319 155.547 176.214C155.655 176.108 155.74 175.982 155.796 175.842C155.853 175.703 155.88 175.553 155.875 175.402Z" fill="#00E6B3"/>
<path d="M156.866 213.07C156.866 213.07 156.91 210.373 156.94 206.716C156.912 204.798 156.928 202.585 156.871 200.383C156.831 199.142 156.784 197.8 156.675 196.566C156.386 191.705 156.11 187.709 156.11 187.709C156.146 187.367 156.05 187.025 155.842 186.751C155.635 186.477 155.33 186.291 154.991 186.232C154.355 186.226 153.925 186.959 153.922 187.729C153.922 187.729 153.857 191.775 153.857 196.58C153.827 197.833 153.866 199.077 153.914 200.416C153.967 202.619 154.091 204.812 154.191 206.72C154.37 210.347 154.614 213.1 154.614 213.1C154.578 213.441 154.673 213.784 154.881 214.058C155.089 214.332 155.393 214.517 155.733 214.576C155.908 214.555 156.077 214.498 156.229 214.41C156.382 214.322 156.515 214.204 156.621 214.063C156.727 213.923 156.803 213.762 156.845 213.592C156.887 213.421 156.894 213.243 156.866 213.07Z" fill="#00E6B3"/>
<path d="M119.071 220.064C119.071 220.064 119.1 216.764 119.108 212.29C119.069 209.945 119.072 207.236 119.006 204.54C118.959 203.018 118.903 201.379 118.787 199.869C118.47 193.919 118.164 189.027 118.164 189.027C118.153 187.97 117.603 187.238 117.036 187.215C116.4 187.203 115.975 188.098 115.977 189.039C115.977 189.039 115.934 193.989 115.964 199.866C115.94 201.399 115.987 202.921 116.043 204.56C116.112 207.255 116.246 209.939 116.355 212.276C116.556 216.714 116.815 220.084 116.815 220.084C116.826 221.142 117.377 221.873 117.943 221.897C118.649 221.9 119.143 220.993 119.071 220.064Z" fill="#00E6B3"/>
<path d="M117.96 177.786C117.96 177.786 118.005 175.1 118.035 171.459C118.007 169.549 118.023 167.345 117.97 165.152C117.931 163.91 117.883 162.579 117.774 161.351C117.486 156.51 117.204 152.529 117.204 152.529C117.239 152.189 117.143 151.847 116.936 151.574C116.728 151.302 116.424 151.118 116.085 151.06C115.449 151.054 115.02 151.784 115.017 152.55C115.017 152.55 114.948 156.579 114.948 161.364C114.917 162.613 114.957 163.852 115.004 165.185C115.057 167.379 115.18 169.563 115.28 171.463C115.459 175.075 115.702 177.817 115.702 177.817C115.667 178.157 115.763 178.499 115.971 178.772C116.178 179.044 116.483 179.228 116.821 179.286C116.997 179.266 117.166 179.21 117.319 179.123C117.472 179.036 117.606 178.919 117.712 178.778C117.819 178.638 117.895 178.478 117.938 178.308C117.981 178.137 117.988 177.96 117.96 177.786Z" fill="#00E6B3"/>
</g>
<g clip-path="url(#clip12_4_778)">
<path d="M110.26 126.045C110.26 126.045 110.345 124.873 110.429 123.279C110.429 122.445 110.478 121.481 110.457 120.521C110.446 119.965 110.4 119.412 110.319 118.862C110.102 116.751 109.88 115.016 109.88 115.016C109.887 114.639 109.348 114.388 108.783 114.39C108.147 114.396 107.707 114.722 107.692 115.056C107.692 115.056 107.566 116.818 107.496 118.91C107.457 119.465 107.457 120.023 107.496 120.579C107.517 121.536 107.607 122.489 107.677 123.318C107.802 124.894 108.004 126.088 108.004 126.088C107.998 126.465 108.535 126.716 109.101 126.715C109.806 126.706 110.316 126.375 110.26 126.045Z" fill="#00E6B3"/>
<path d="M109.741 106.296C109.741 106.296 109.77 102.997 109.778 98.5228C109.739 96.1782 109.741 93.4688 109.675 90.7725C109.628 89.2506 109.572 87.6121 109.456 86.1019C109.139 80.1521 108.833 75.2602 108.833 75.2602C108.822 74.2031 108.272 73.4714 107.705 73.448C107.069 73.4362 106.643 74.3313 106.646 75.2719C106.646 75.2719 106.603 80.2225 106.632 86.1019C106.61 87.6355 106.656 89.1575 106.711 90.7959C106.78 93.4922 106.914 96.1747 107.023 98.5117C107.224 102.951 107.484 106.32 107.484 106.32C107.495 107.378 108.045 108.113 108.612 108.133C109.318 108.133 109.813 107.226 109.741 106.296Z" fill="#00E6B3"/>
</g>
<g clip-path="url(#clip13_4_778)">
<path d="M309.4 167.16C320.999 167.16 330.401 157.758 330.401 146.16C330.401 134.562 320.999 125.16 309.4 125.16C297.802 125.16 288.4 134.562 288.4 146.16C288.4 157.758 297.802 167.16 309.4 167.16Z" fill="#00E6B3"/>
</g>
<g clip-path="url(#clip14_4_778)">
<path d="M324.738 116.824C318.747 109.74 308.149 108.855 301.068 114.848C293.986 120.842 293.102 131.443 299.093 138.527C305.084 145.611 315.681 146.496 322.763 140.503C329.845 134.51 330.729 123.908 324.738 116.824Z" fill="#00E6B3"/>
</g>
<defs>
<clipPath id="clip0_4_778">
<rect width="78.96" height="6.16" fill="white" transform="translate(297.92 191.52) rotate(90)"/>
</clipPath>
<clipPath id="clip1_4_778">
<rect width="56.8399" height="106.96" fill="white" transform="translate(231.56 169.4)"/>
</clipPath>
<clipPath id="clip2_4_778">
<rect width="90.9999" height="93.24" fill="white" transform="translate(238.84 121.24)"/>
</clipPath>
<clipPath id="clip3_4_778">
<rect width="219.52" height="319.76" fill="white" transform="matrix(-1 0 0 1 237.72 47.88)"/>
</clipPath>
<clipPath id="clip4_4_778">
<rect width="180.04" height="86.52" fill="white" transform="translate(153.44 103.04) rotate(90)"/>
</clipPath>
<clipPath id="clip5_4_778">
<rect width="353.08" height="292.88" fill="white" transform="translate(49.56 75.04)"/>
</clipPath>
<clipPath id="clip6_4_778">
<rect width="255.08" height="96.5999" fill="white" transform="translate(47.6 271.6)"/>
</clipPath>
<clipPath id="clip7_4_778">
<rect width="30.24" height="25.48" fill="white" transform="translate(56 179.2)"/>
</clipPath>
<clipPath id="clip8_4_778">
<rect width="43.68" height="36.68" fill="white" transform="translate(74.48 93.8)"/>
</clipPath>
<clipPath id="clip9_4_778">
<rect width="19.6001" height="16.52" fill="white" transform="translate(140.84 161)"/>
</clipPath>
<clipPath id="clip10_4_778">
<rect width="70.84" height="42" fill="white" transform="translate(80.78 157.5) rotate(90)"/>
</clipPath>
<clipPath id="clip11_4_778">
<rect width="70.8401" height="42.0001" fill="white" transform="translate(156.94 151.06) rotate(90)"/>
</clipPath>
<clipPath id="clip12_4_778">
<rect width="70.84" height="22.12" fill="white" transform="translate(118.7 63.14) rotate(90)"/>
</clipPath>
<clipPath id="clip13_4_778">
<rect width="42" height="29.96" fill="white" transform="translate(288.4 125.16)"/>
</clipPath>
<clipPath id="clip14_4_778">
<rect width="33.5976" height="24.0772" fill="white" transform="matrix(-0.645734 -0.763563 0.763331 -0.646008 309.941 151.354)"/>
</clipPath>
</defs>
</svg>
