<svg width="565" height="447" viewBox="0 0 565 447" fill="none" xmlns="http://www.w3.org/2000/svg">
<g clip-path="url(#clip0_4_473)">
<path d="M2.711 120.527C3.011 118.927 3.411 117.327 3.711 115.727C4.011 114.127 4.411 112.527 4.711 111.027C4.911 110.027 5.111 109.127 5.211 108.127C5.611 105.927 6.011 103.627 6.511 101.427C6.711 100.627 6.31101 99.927 5.511 99.727C4.711 99.527 4.011 99.927 3.811 100.727C3.011 102.927 2.311 105.127 1.711 107.427C1.411 108.427 1.211 109.327 1.011 110.327C0.711005 111.927 0.511005 113.627 0.311005 115.227C0.111005 116.927 0.0110047 118.527 0.0110047 120.227C-0.0889953 121.027 0.511005 121.727 1.211 121.827C1.911 121.927 2.611 121.327 2.711 120.527Z" fill="#FF2E93"/>
<path d="M24.411 138.827C24.511 129.027 25.911 119.527 28.311 110.427C30.811 101.027 34.411 92.227 39.011 83.927C41.811 78.927 44.911 74.027 48.311 69.527C56.411 58.827 66.211 49.527 77.511 42.227C78.211 41.827 78.411 40.927 77.911 40.227C77.511 39.527 76.611 39.327 75.911 39.827C64.211 47.127 53.811 56.427 45.311 67.327C41.711 72.027 38.411 76.927 35.511 82.127C30.811 90.727 27.211 99.927 24.811 109.627C22.511 119.027 21.311 128.827 21.511 138.827C21.511 139.627 22.111 140.227 22.911 140.227C23.811 140.327 24.411 139.627 24.411 138.827Z" fill="#FF2E93"/>
<path d="M96.211 32.627C99.611 31.327 103.111 30.327 106.611 29.327C110.111 28.427 113.611 27.627 117.211 26.927C119.311 26.527 121.511 26.127 123.611 25.827C128.611 25.027 133.711 24.527 138.811 24.427C139.611 24.427 140.211 23.827 140.211 23.027C140.211 22.227 139.611 21.627 138.811 21.627C133.511 21.527 128.211 21.627 123.111 22.227C120.911 22.527 118.611 22.827 116.411 23.227C112.711 23.927 109.111 24.927 105.511 26.027C101.911 27.127 98.411 28.527 95.011 30.027C94.311 30.327 93.911 31.127 94.211 31.827C94.711 32.527 95.511 32.927 96.211 32.627Z" fill="#FF2E93"/>
<path d="M12.111 85.827C17.011 74.627 23.511 64.127 31.211 54.627C38.911 45.227 47.911 36.727 57.811 29.527C65.711 23.827 74.111 18.827 83.111 14.827C96.311 8.82699 110.511 4.927 125.411 3.527C128.711 3.227 132.011 3.027 135.311 2.927C138.611 2.827 141.911 2.927 145.211 3.127C146.011 3.227 146.711 2.627 146.711 1.827C146.711 1.027 146.211 0.326995 145.411 0.326995C142.011 0.126995 138.611 -0.0730046 135.311 0.0269954C131.911 0.0269954 128.511 0.226995 125.211 0.426995C110.011 1.727 95.311 5.527 81.711 11.527C72.511 15.627 63.811 20.627 55.711 26.527C45.611 33.927 36.511 42.727 28.711 52.527C20.911 62.327 14.511 73.227 9.61102 84.727C9.31102 85.427 9.61102 86.327 10.311 86.627C10.911 86.827 11.711 86.527 12.111 85.827Z" fill="#FF2E93"/>
<path d="M52.611 105.827C54.711 99.127 57.911 92.527 61.911 86.327C65.811 80.327 70.411 74.727 75.711 69.627C78.811 66.627 82.111 63.827 85.611 61.327C93.911 55.327 103.211 50.927 113.011 49.027C113.811 48.927 114.311 48.127 114.111 47.427C114.011 46.627 113.211 46.127 112.511 46.327C102.111 48.027 92.311 52.327 83.511 58.427C79.811 61.027 76.311 63.827 73.011 67.027C67.511 72.327 62.811 78.227 58.911 84.627C54.911 91.227 51.811 98.227 49.811 105.227C49.611 106.027 50.011 106.727 50.811 107.027C51.611 107.027 52.411 106.527 52.611 105.827Z" fill="#FF2E93"/>
</g>
<g clip-path="url(#clip1_4_473)">
<path d="M562 325.709C561.7 327.309 561.3 328.909 561 330.509C560.7 332.109 560.3 333.709 560 335.209C559.8 336.209 559.6 337.109 559.5 338.109C559.1 340.309 558.7 342.609 558.2 344.809C558 345.609 558.4 346.309 559.2 346.509C560 346.709 560.7 346.309 560.9 345.509C561.7 343.309 562.4 341.109 563 338.809C563.3 337.809 563.5 336.909 563.7 335.909C564 334.309 564.2 332.609 564.4 331.009C564.6 329.309 564.7 327.709 564.7 326.009C564.8 325.209 564.2 324.509 563.5 324.409C562.8 324.309 562.1 324.909 562 325.709Z" fill="#FF2E93"/>
<path d="M540.3 307.409C540.2 317.209 538.8 326.709 536.4 335.809C533.9 345.209 530.3 354.009 525.7 362.309C522.9 367.309 519.8 372.209 516.4 376.709C508.3 387.409 498.5 396.709 487.2 404.009C486.5 404.409 486.3 405.309 486.8 406.009C487.2 406.709 488.1 406.909 488.8 406.409C500.5 399.109 510.9 389.809 519.4 378.909C523 374.209 526.3 369.309 529.2 364.109C533.9 355.509 537.5 346.309 539.9 336.609C542.2 327.209 543.4 317.409 543.2 307.409C543.2 306.609 542.6 306.009 541.8 306.009C540.9 305.909 540.3 306.609 540.3 307.409Z" fill="#FF2E93"/>
<path d="M468.5 413.609C465.1 414.909 461.6 415.909 458.1 416.909C454.6 417.809 451.1 418.609 447.5 419.309C445.4 419.709 443.2 420.109 441.1 420.409C436.1 421.209 431 421.709 425.9 421.809C425.1 421.809 424.5 422.409 424.5 423.209C424.5 424.009 425.1 424.609 425.9 424.609C431.2 424.709 436.5 424.609 441.6 424.009C443.8 423.709 446.1 423.409 448.3 423.009C452 422.309 455.6 421.309 459.2 420.209C462.8 419.109 466.3 417.709 469.7 416.209C470.4 415.909 470.8 415.109 470.5 414.409C470 413.709 469.2 413.309 468.5 413.609Z" fill="#FF2E93"/>
<path d="M552.6 360.409C547.7 371.609 541.2 382.109 533.5 391.609C525.8 401.009 516.8 409.509 506.9 416.709C499 422.409 490.6 427.409 481.6 431.409C468.4 437.409 454.2 441.309 439.3 442.709C436 443.009 432.7 443.209 429.4 443.309C426.1 443.409 422.8 443.309 419.5 443.109C418.7 443.009 418 443.609 418 444.409C418 445.209 418.5 445.909 419.3 445.909C422.7 446.109 426.1 446.309 429.4 446.209C432.8 446.209 436.2 446.009 439.5 445.809C454.7 444.509 469.4 440.709 483 434.709C492.2 430.609 500.9 425.609 509 419.709C519.1 412.309 528.2 403.509 536 393.709C543.8 383.909 550.2 373.009 555.1 361.509C555.4 360.809 555.1 359.909 554.4 359.609C553.8 359.409 553 359.709 552.6 360.409Z" fill="#FF2E93"/>
<path d="M512.1 340.409C510 347.109 506.8 353.709 502.8 359.909C498.9 365.909 494.3 371.509 489 376.609C485.9 379.609 482.6 382.409 479.1 384.909C470.8 390.909 461.5 395.309 451.7 397.209C450.9 397.309 450.4 398.109 450.6 398.809C450.7 399.609 451.5 400.109 452.2 399.909C462.6 398.209 472.4 393.909 481.2 387.809C484.9 385.209 488.4 382.409 491.7 379.209C497.2 373.909 501.9 368.009 505.8 361.609C509.8 355.009 512.9 348.009 514.9 341.009C515.1 340.209 514.7 339.509 513.9 339.209C513.1 339.209 512.3 339.709 512.1 340.409Z" fill="#FF2E93"/>
</g>
<path d="M273.498 246.356L271.349 241.679C271.349 241.679 269.391 240.248 272.543 240.248C274.691 240.248 280.039 240.248 282.57 242.682C287.441 247.55 298.232 258.335 301.575 261.676C302.243 262.344 302.577 263.203 302.577 264.11C302.577 270.648 302.577 297.66 302.577 304.198C302.577 305.105 302.195 306.012 301.575 306.632C298.232 309.973 287.441 320.758 282.57 325.626C282.236 325.96 281.902 326.199 281.472 326.342C278.655 328.06 275.169 328.06 272.543 328.06C269.391 328.06 271.349 326.628 271.349 326.628L273.402 322.047C268.054 316.654 260.796 309.257 258.17 306.632C257.501 305.964 257.167 305.105 257.167 304.198C257.167 297.66 257.167 270.648 257.167 264.11C257.167 263.203 257.549 262.296 258.17 261.676L273.498 246.356Z" fill="#142664"/>
<path d="M272.017 328.012H249.575C248.668 328.012 247.76 327.63 247.14 327.01C243.415 323.288 230.427 310.307 226.703 306.584C226.034 305.916 225.7 305.057 225.7 304.15C225.7 297.851 225.7 272.7 225.7 264.921C225.7 263.442 226.273 262.058 227.323 261.008C231.669 256.665 243.606 244.734 247.14 241.202C247.808 240.534 248.668 240.2 249.575 240.2H271.779C271.874 240.2 272.017 240.2 272.113 240.2C275.646 240.2 276.983 240.248 279.419 240.868L258.647 261.628C257.979 262.296 257.645 263.155 257.645 264.062C257.645 270.6 257.645 297.612 257.645 304.15C257.645 305.057 258.027 305.964 258.647 306.584C258.647 306.584 268.866 316.797 275.217 323.144C275.264 323.192 275.312 323.24 275.36 323.335L279.419 327.392C277.27 327.965 275.981 328.012 273.307 328.06C273.259 328.06 273.211 328.06 273.211 328.06H272.017V328.012Z" fill="#FF2E93"/>
<path d="M265.428 248.122C266.001 247.55 266.192 246.69 265.858 245.927C265.571 245.163 264.807 244.686 263.995 244.686C259.698 244.686 253.777 244.686 251.628 244.686C251.103 244.686 250.578 244.877 250.196 245.259C248.62 246.834 244.179 251.272 240.98 254.47C240.407 255.042 240.216 255.901 240.55 256.665C240.885 257.428 241.601 257.906 242.413 257.906C246.71 257.906 252.631 257.906 254.78 257.906C255.305 257.906 255.83 257.715 256.212 257.333C257.788 255.758 262.229 251.272 265.428 248.122Z" fill="#142664"/>
<path d="M259.411 264.062H237.924C237.446 264.062 237.064 263.68 237.064 263.203C237.064 262.726 237.446 262.344 237.924 262.344H259.411C259.889 262.344 260.271 262.726 260.271 263.203C260.271 263.68 259.889 264.062 259.411 264.062Z" fill="#142664"/>
<path d="M233.722 264.062H231.86C231.382 264.062 231 263.68 231 263.203C231 262.726 231.382 262.344 231.86 262.344H233.722C234.199 262.344 234.581 262.726 234.581 263.203C234.581 263.68 234.199 264.062 233.722 264.062Z" fill="#142664"/>
<path d="M259.412 306.25H232.958C232.48 306.25 232.098 305.868 232.098 305.391C232.098 304.914 232.48 304.532 232.958 304.532H259.412C259.889 304.532 260.271 304.914 260.271 305.391C260.271 305.821 259.889 306.25 259.412 306.25Z" fill="#142664"/>
<path d="M304.263 259.78H287.407V296.633H304.263V259.78Z" fill="#FF2E93"/>
<path d="M289.904 264.921C289.088 265.738 287.791 266.026 286.735 265.546C285.63 265.113 284.91 264.008 284.91 262.855C284.91 253.438 284.91 237.197 284.91 230.086C284.91 228.164 286.495 226.579 288.416 226.579C302.343 226.579 354.016 226.579 367.943 226.579C369.864 226.579 371.448 228.164 371.448 230.086C371.448 243.011 371.448 287.888 371.448 296.537C371.448 297.45 371.833 298.363 372.457 298.988C374.378 300.91 378.7 305.234 382.35 308.886C383.358 309.895 383.646 311.384 383.118 312.682C382.59 313.979 381.293 314.844 379.901 314.844C360.163 314.844 311.851 314.844 302.871 314.844C301.958 314.844 301.046 314.459 300.422 313.835C297.444 310.856 288.896 302.303 285.918 299.324C285.246 298.651 284.91 297.786 284.91 296.874C284.91 296.153 284.91 295.24 284.91 294.519C284.91 293.606 285.294 292.693 285.918 292.069C288.368 289.618 294.467 283.516 294.467 283.516C295.715 282.267 295.715 280.201 294.467 278.951C293.218 277.702 291.153 277.702 289.904 278.951C289.904 278.951 289.04 279.816 287.984 280.873C287.455 281.402 286.687 281.546 286.015 281.258C285.342 280.97 284.91 280.297 284.91 279.576C284.91 279.288 285.006 279 285.246 278.807C286.879 277.174 294.515 269.534 294.515 269.534C295.763 268.285 295.763 266.219 294.515 264.969C293.218 263.672 291.153 263.672 289.904 264.921Z" fill="#00E6B3"/>
<path d="M367.655 136.007C367.655 136.92 367.27 137.833 366.646 138.458C365.974 139.13 365.109 139.467 364.197 139.467C350.702 139.467 301.958 139.467 288.416 139.467C287.503 139.467 286.591 139.082 285.967 138.458C285.294 137.785 284.958 136.92 284.958 136.007C284.958 131.01 284.958 121.833 284.958 116.836C284.958 115.923 285.342 115.01 285.967 114.385C286.639 113.713 287.503 113.376 288.416 113.376C301.91 113.376 350.654 113.376 364.197 113.376C365.109 113.376 366.022 113.761 366.646 114.385C367.318 115.058 367.655 115.923 367.655 116.836C367.655 121.833 367.655 131.01 367.655 136.007Z" fill="#00E6B3"/>
<path d="M382.446 139.515H312.139V199.383H382.446V139.515Z" fill="#00E6B3"/>
<path d="M412.172 162.146C412.172 162.146 427.828 177.809 432.006 181.99C432.678 182.662 433.015 183.527 433.015 184.44C433.015 193.473 433.015 242.194 433.015 255.744C433.015 256.657 432.63 257.57 432.006 258.195C431.334 258.867 430.469 259.204 429.557 259.204C425.715 259.204 419.52 259.204 415.678 259.204C414.766 259.204 413.853 258.819 413.229 258.195C412.557 257.522 412.22 256.657 412.22 255.744C412.172 238.399 412.172 162.146 412.172 162.146Z" fill="#FF2E93"/>
<path d="M356.849 116.836C356.849 115.923 357.233 115.01 357.858 114.385C358.53 113.713 359.394 113.376 360.307 113.376C368.519 113.376 388.881 113.376 394.452 113.376C395.364 113.376 396.277 113.761 396.901 114.385C399.83 117.316 408.186 125.677 411.116 128.608C411.788 129.28 412.124 130.145 412.124 131.058V223.119C412.124 224.032 412.509 224.945 413.133 225.57C413.805 226.242 414.67 226.579 415.582 226.579C420.048 226.579 427.78 226.579 432.294 226.579C433.207 226.579 434.119 226.963 434.744 227.588C435.416 228.26 435.752 229.125 435.752 230.038C435.752 232.392 435.752 235.468 435.752 237.822C435.752 238.735 435.368 239.648 434.744 240.272C434.071 240.945 433.207 241.281 432.294 241.281C427.828 241.281 420.096 241.281 415.582 241.281C414.67 241.281 413.757 241.666 413.133 242.29C412.461 242.963 412.124 243.828 412.124 244.741V250.315C412.124 251.227 412.509 252.14 413.133 252.765C413.805 253.438 414.67 253.774 415.582 253.774H432.294C434.215 253.774 435.8 255.36 435.8 257.282C435.8 266.315 435.8 290.243 435.8 296.393C435.8 297.306 435.416 298.219 434.792 298.844C431.766 301.871 422.978 310.663 419.952 313.691C419.28 314.363 418.416 314.7 417.503 314.7C410.54 314.7 380.477 314.7 373.513 314.7C372.601 314.7 371.689 314.315 371.064 313.691C368.039 310.663 359.25 301.871 356.225 298.844C355.553 298.171 355.216 297.306 355.216 296.393C355.216 287.216 355.216 237.101 355.216 227.876C355.216 226.963 355.601 226.05 356.225 225.425C360.547 221.101 377.115 204.524 381.437 200.2C382.11 199.527 382.446 198.662 382.446 197.75V142.974C382.446 142.061 382.062 141.148 381.437 140.524C380.765 139.851 379.901 139.515 378.988 139.515C374.09 139.515 365.253 139.515 360.355 139.515C359.443 139.515 358.53 139.13 357.906 138.506C357.233 137.833 356.897 136.968 356.897 136.055C356.849 131.01 356.849 121.833 356.849 116.836Z" fill="#142664"/>
<path d="M377.643 146.386C377.643 145.04 376.539 143.935 375.194 143.935C365.397 143.935 329.188 143.935 319.391 143.935C318.046 143.935 316.942 145.04 316.942 146.386C316.942 154.986 316.942 183.863 316.942 192.464C316.942 193.81 318.046 194.915 319.391 194.915C329.188 194.915 365.397 194.915 375.194 194.915C376.539 194.915 377.643 193.81 377.643 192.464C377.643 183.863 377.643 154.986 377.643 146.386Z" fill="white"/>
<path d="M284.91 226.627H355.216L382.446 199.383H312.139L284.91 226.627Z" fill="white"/>
<path d="M322.368 203.948C322.464 204.044 322.608 204.14 322.705 204.284C322.993 204.668 323.185 205.149 323.185 205.629C323.185 206.831 322.224 207.792 321.024 207.792H316.221C315.597 207.792 315.069 207.551 314.637 207.119L312.572 205.053L314.973 204.188C315.357 203.852 315.837 203.659 316.413 203.659H316.461L320.543 202.17L322.368 203.948Z" fill="#142664"/>
<path d="M314.108 205.678H318.863C320.063 205.678 321.024 204.717 321.024 203.515C321.024 202.314 320.063 201.353 318.863 201.353H314.108C312.908 201.353 311.947 202.314 311.947 203.515C311.947 204.717 312.956 205.678 314.108 205.678Z" fill="#00E6B3"/>
<path d="M373.609 252.044L377.692 247.96C378.316 247.336 378.316 246.278 377.692 245.606C377.067 244.933 376.011 244.981 375.338 245.606L371.256 249.69C370.632 250.315 370.632 251.372 371.256 252.044C371.881 252.717 372.985 252.669 373.609 252.044Z" fill="#00E6B3"/>
<path d="M381.533 252.044L385.615 247.96C386.24 247.336 386.24 246.278 385.615 245.606C384.991 244.981 383.935 244.981 383.262 245.606L379.18 249.69C378.556 250.315 378.556 251.372 379.18 252.044C379.853 252.669 380.909 252.669 381.533 252.044Z" fill="#00E6B3"/>
<path d="M389.457 252.044L393.539 247.96C394.164 247.336 394.164 246.278 393.539 245.606C392.915 244.933 391.858 244.981 391.186 245.606L387.104 249.69C386.48 250.315 386.48 251.372 387.104 252.044C387.728 252.717 388.833 252.669 389.457 252.044Z" fill="#00E6B3"/>
<path d="M374.858 260.405L378.94 256.321C379.564 255.696 379.564 254.639 378.94 253.966C378.316 253.342 377.259 253.342 376.587 253.966L372.505 258.05C371.881 258.675 371.881 259.732 372.505 260.405C373.177 261.077 374.234 261.077 374.858 260.405Z" fill="#00E6B3"/>
<path d="M382.782 260.405L386.864 256.321C387.488 255.696 387.488 254.639 386.864 253.966C386.24 253.342 385.183 253.342 384.511 253.966L380.429 258.05C379.805 258.675 379.805 259.732 380.429 260.405C381.101 261.077 382.158 261.077 382.782 260.405Z" fill="#00E6B3"/>
<path d="M334.758 203.948C334.854 204.044 334.999 204.14 335.095 204.284C335.383 204.668 335.575 205.149 335.575 205.629C335.575 206.831 334.614 207.792 333.414 207.792H328.659C328.035 207.792 327.507 207.551 327.075 207.119L325.01 205.053L327.411 204.188C327.795 203.852 328.275 203.659 328.852 203.659H328.9L332.982 202.17L334.758 203.948Z" fill="#142664"/>
<path d="M326.498 205.678H331.253C332.453 205.678 333.414 204.717 333.414 203.515C333.414 202.314 332.453 201.353 331.253 201.353H326.498C325.298 201.353 324.337 202.314 324.337 203.515C324.337 204.717 325.298 205.678 326.498 205.678Z" fill="#00E6B3"/>
<path d="M347.101 203.948C347.197 204.044 347.341 204.14 347.437 204.284C347.725 204.668 347.917 205.149 347.917 205.629C347.917 206.831 346.956 207.792 345.756 207.792H341.001C340.377 207.792 339.849 207.551 339.417 207.119L337.352 205.053L339.753 204.188C340.137 203.852 340.617 203.659 341.194 203.659H341.242L345.324 202.17L347.101 203.948Z" fill="#142664"/>
<path d="M338.84 205.678H343.595C344.795 205.678 345.756 204.717 345.756 203.515C345.756 202.314 344.795 201.353 343.595 201.353H338.84C337.64 201.353 336.679 202.314 336.679 203.515C336.679 204.717 337.688 205.678 338.84 205.678Z" fill="#00E6B3"/>
<path d="M315.309 211.347C315.405 211.443 315.549 211.539 315.645 211.684C315.933 212.068 316.125 212.548 316.125 213.029C316.125 214.23 315.165 215.191 313.964 215.191H309.21C308.586 215.191 308.057 214.951 307.625 214.518L305.56 212.452L307.961 211.587C308.345 211.251 308.826 211.059 309.402 211.059H309.45L313.532 209.569L315.309 211.347Z" fill="#142664"/>
<path d="M307.049 213.029H311.803C313.004 213.029 313.964 212.068 313.964 210.867C313.964 209.666 313.004 208.705 311.803 208.705H307.049C305.848 208.705 304.888 209.666 304.888 210.867C304.888 212.068 305.896 213.029 307.049 213.029Z" fill="#00E6B3"/>
<path d="M327.699 211.347C327.795 211.443 327.939 211.539 328.035 211.684C328.323 212.068 328.515 212.548 328.515 213.029C328.515 214.23 327.555 215.191 326.354 215.191H321.6C320.976 215.191 320.447 214.951 320.015 214.518L317.95 212.452L320.351 211.587C320.736 211.251 321.216 211.059 321.792 211.059H321.84L325.922 209.569L327.699 211.347Z" fill="#142664"/>
<path d="M319.439 213.029H324.193C325.394 213.029 326.354 212.068 326.354 210.867C326.354 209.666 325.394 208.705 324.193 208.705H319.439C318.238 208.705 317.278 209.666 317.278 210.867C317.278 212.068 318.238 213.029 319.439 213.029Z" fill="#00E6B3"/>
<path d="M340.041 211.347C340.137 211.443 340.281 211.539 340.377 211.684C340.665 212.068 340.857 212.548 340.857 213.029C340.857 214.23 339.897 215.191 338.696 215.191H333.942C333.318 215.191 332.789 214.951 332.357 214.518L330.292 212.452L332.693 211.587C333.078 211.251 333.558 211.059 334.134 211.059H334.182L338.264 209.569L340.041 211.347Z" fill="#142664"/>
<path d="M331.781 213.029H336.535C337.736 213.029 338.696 212.068 338.696 210.867C338.696 209.666 337.736 208.705 336.535 208.705H331.781C330.58 208.705 329.62 209.666 329.62 210.867C329.62 212.068 330.628 213.029 331.781 213.029Z" fill="white"/>
<path d="M307.673 218.699C307.769 218.795 307.913 218.891 308.009 219.035C308.297 219.419 308.49 219.9 308.49 220.38C308.49 221.582 307.529 222.543 306.329 222.543H301.574C300.95 222.543 300.422 222.302 299.989 221.87L297.924 219.804L300.326 218.939C300.71 218.603 301.19 218.41 301.766 218.41H301.814L305.896 216.921L307.673 218.699Z" fill="#142664"/>
<path d="M299.413 220.428H304.167C305.368 220.428 306.329 219.467 306.329 218.266C306.329 217.065 305.368 216.104 304.167 216.104H299.413C298.213 216.104 297.252 217.065 297.252 218.266C297.252 219.467 298.213 220.428 299.413 220.428Z" fill="#00E6B3"/>
<path d="M320.015 218.699C320.111 218.795 320.255 218.891 320.351 219.035C320.64 219.419 320.832 219.9 320.832 220.38C320.832 221.582 319.871 222.543 318.671 222.543H313.916C313.292 222.543 312.764 222.302 312.331 221.87L310.266 219.804L312.668 218.939C313.052 218.603 313.532 218.41 314.108 218.41H314.156L318.238 216.921L320.015 218.699Z" fill="#142664"/>
<path d="M311.755 220.428H316.51C317.71 220.428 318.671 219.467 318.671 218.266C318.671 217.065 317.71 216.104 316.51 216.104H311.755C310.555 216.104 309.594 217.065 309.594 218.266C309.594 219.467 310.603 220.428 311.755 220.428Z" fill="#00E6B3"/>
<path d="M332.405 218.699C332.501 218.795 332.645 218.891 332.741 219.035C333.03 219.419 333.222 219.9 333.222 220.38C333.222 221.582 332.261 222.543 331.061 222.543H326.306C325.682 222.543 325.154 222.302 324.722 221.87L322.657 219.804L325.058 218.939C325.442 218.603 325.922 218.41 326.498 218.41H326.546L330.628 216.921L332.405 218.699Z" fill="#142664"/>
<path d="M324.145 220.428H328.9C330.1 220.428 331.061 219.467 331.061 218.266C331.061 217.065 330.1 216.104 328.9 216.104H324.145C322.945 216.104 321.984 217.065 321.984 218.266C321.984 219.467 322.945 220.428 324.145 220.428Z" fill="#FF2E93"/>
<path d="M355.649 220.621H340.425C339.945 220.621 339.561 220.236 339.561 219.756C339.561 219.275 339.945 218.891 340.425 218.891H355.649C356.129 218.891 356.513 219.275 356.513 219.756C356.513 220.236 356.129 220.621 355.649 220.621Z" fill="#142664"/>
<path d="M367.559 201.93H354.781C354.275 201.93 353.79 202.129 353.431 202.485C352.473 203.434 351.42 204.479 350.894 205.004C350.174 205.725 349.742 206.206 349.742 207.167C349.742 208.176 362.996 210.434 364.053 210.434C365.109 210.434 365.349 210.049 366.31 209.088L368.999 206.398C369.143 206.254 369.191 206.109 369.191 205.917V203.563C369.191 203.515 369.191 203.515 369.191 203.467C369.143 202.554 368.903 201.93 367.559 201.93Z" fill="#142664"/>
<path d="M354.208 216.392C354.448 216.392 354.64 216.296 354.784 216.152C354.928 216.008 355.024 215.768 355.024 215.575V213.173C355.024 212.885 354.88 212.596 354.64 212.452C354.4 212.308 354.064 212.308 353.824 212.404L349.069 214.807C348.733 214.999 348.541 215.383 348.637 215.768C348.733 216.152 349.069 216.392 349.454 216.392H354.208Z" fill="#142664"/>
<path d="M304.215 131.779H286.543C286.063 131.779 285.678 131.395 285.678 130.914C285.678 130.434 286.063 130.049 286.543 130.049H303.879L321.216 112.704C321.552 112.367 322.08 112.367 322.416 112.704C322.753 113.04 322.753 113.569 322.416 113.905L304.84 131.491C304.648 131.683 304.408 131.779 304.215 131.779Z" fill="#142664"/>
<path d="M377.788 212.02C377.788 211.732 377.884 211.443 378.124 211.203C378.604 210.723 379.612 209.714 380.525 208.801C380.861 208.464 381.341 208.368 381.774 208.56C382.206 208.753 382.494 209.137 382.494 209.617C382.494 210.723 382.494 211.876 382.494 212.5C382.494 212.789 382.398 213.077 382.158 213.317C381.677 213.798 380.669 214.807 379.757 215.72C379.42 216.056 378.94 216.152 378.508 215.96C378.076 215.768 377.788 215.383 377.788 214.903C377.788 213.798 377.788 212.645 377.788 212.02Z" fill="#FF2E93"/>
<path d="M292.306 123.418C293.897 123.418 295.187 122.128 295.187 120.536C295.187 118.943 293.897 117.653 292.306 117.653C290.714 117.653 289.424 118.943 289.424 120.536C289.424 122.128 290.714 123.418 292.306 123.418Z" fill="#142664"/>
<path d="M302.631 123.418C304.222 123.418 305.512 122.128 305.512 120.536C305.512 118.943 304.222 117.653 302.631 117.653C301.039 117.653 299.749 118.943 299.749 120.536C299.749 122.128 301.039 123.418 302.631 123.418Z" fill="white"/>
<path d="M406.314 179.539C407.215 179.539 407.946 178.808 407.946 177.905C407.946 177.003 407.215 176.272 406.314 176.272C405.412 176.272 404.681 177.003 404.681 177.905C404.681 178.808 405.412 179.539 406.314 179.539Z" fill="#FF2E93"/>
<path d="M312.139 309.03C313.244 309.03 314.781 309.606 315.501 310.327C316.221 311.048 315.885 311.624 314.781 311.624C313.676 311.624 312.139 311.048 311.419 310.327C310.699 309.606 311.035 309.03 312.139 309.03Z" fill="#142664"/>
<path d="M428.308 261.942C429.21 261.942 429.941 261.211 429.941 260.309C429.941 259.406 429.21 258.675 428.308 258.675C427.407 258.675 426.676 259.406 426.676 260.309C426.676 261.211 427.407 261.942 428.308 261.942Z" fill="#FF2E93"/>
<path d="M428.308 268.477C429.21 268.477 429.941 267.745 429.941 266.843C429.941 265.941 429.21 265.21 428.308 265.21C427.407 265.21 426.676 265.941 426.676 266.843C426.676 267.745 427.407 268.477 428.308 268.477Z" fill="#FF2E93"/>
<path d="M299.173 250.987V234.747C299.173 234.459 299.269 234.17 299.509 233.93C299.701 233.738 299.989 233.594 300.326 233.594C306.809 233.594 339.417 233.594 339.417 233.594V261.222H299.221H299.173C294.467 261.222 290.529 258.05 289.328 253.726C289.328 253.63 289.28 253.582 289.28 253.486C288.848 251.612 290 250.987 291.489 250.987H299.173Z" fill="white"/>
<path d="M339.417 251.852H299.221C298.741 251.852 298.357 251.468 298.357 250.987C298.357 250.507 298.741 250.122 299.221 250.122H339.417C339.897 250.122 340.281 250.507 340.281 250.987C340.281 251.468 339.897 251.852 339.417 251.852Z" fill="#142664"/>
<path d="M332.693 241.57C332.693 241.185 332.549 240.801 332.261 240.513C331.973 240.224 331.589 240.08 331.205 240.08C326.21 240.08 310.218 240.08 305.224 240.08C304.84 240.08 304.456 240.224 304.167 240.513C303.879 240.801 303.735 241.185 303.735 241.57C303.735 242.002 303.735 242.435 303.735 242.867C303.735 243.251 303.879 243.636 304.167 243.924C304.456 244.212 304.84 244.357 305.224 244.357C310.218 244.357 326.21 244.357 331.205 244.357C331.589 244.357 331.973 244.212 332.261 243.924C332.549 243.636 332.693 243.251 332.693 242.867C332.693 242.435 332.693 241.954 332.693 241.57Z" fill="#142664"/>
<path d="M362.372 306.051H346.956C346.716 306.051 346.524 305.955 346.332 305.811L339.369 298.844C339.225 298.699 339.129 298.459 339.129 298.219V287.36L326.883 275.108C326.739 274.963 326.642 274.723 326.642 274.483V262.375C326.642 261.894 327.027 261.51 327.507 261.51C327.987 261.51 328.371 261.894 328.371 262.375V274.099L340.617 286.351C340.761 286.495 340.857 286.735 340.857 286.976V297.835L347.293 304.273H362.324C362.804 304.273 363.188 304.657 363.188 305.138C363.188 305.618 362.852 306.051 362.372 306.051Z" fill="#142664"/>
<path d="M326.787 314.94V303.168H318.478C317.902 303.168 317.374 303.504 317.134 304.033C316.894 304.561 317.038 305.186 317.422 305.57C320.928 309.03 326.787 314.94 326.787 314.94Z" fill="#142664"/>
<path d="M326.787 314.94V303.168H333.702C334.086 303.168 334.422 303.312 334.71 303.6C336.823 305.714 346.044 314.94 346.044 314.94H326.787Z" fill="#FF2E93"/>
<path d="M321.648 296.393H287.935C287.455 296.393 287.071 296.009 287.071 295.528C287.071 295.048 287.455 294.663 287.935 294.663H320.784V262.375C320.784 261.894 321.168 261.51 321.648 261.51C322.128 261.51 322.512 261.894 322.512 262.375V295.528C322.512 296.009 322.128 296.393 321.648 296.393Z" fill="#142664"/>
<path d="M308.538 113.328C307.625 113.328 306.713 112.944 306.088 112.319C305.416 111.647 305.08 110.782 305.08 109.869C305.08 107.562 305.08 104.632 305.08 102.902C305.08 101.989 305.464 101.076 306.088 100.451C308.201 98.3372 313.1 93.4362 315.213 91.3221C315.885 90.6494 316.75 90.3131 317.662 90.3131C324.866 90.3131 356.657 90.3131 363.813 90.3131C364.725 90.3131 365.638 90.6975 366.262 91.3221C368.375 93.4362 373.273 98.3372 375.386 100.451C376.059 101.124 376.395 101.989 376.395 102.902C376.395 104.632 376.395 107.562 376.395 109.869C376.395 110.782 376.011 111.695 375.386 112.319C374.714 112.992 373.85 113.328 372.937 113.328C360.787 113.328 320.64 113.328 308.538 113.328Z" fill="white"/>
<path d="M366.118 114.433V103.238C366.118 102.325 365.782 101.46 365.157 100.788C364.149 99.7306 362.42 97.9528 360.691 96.175C359.731 95.166 359.443 93.6765 359.971 92.3791C360.499 91.0818 361.796 90.265 363.188 90.265C365.205 90.265 367.126 90.265 368.375 90.265C369.287 90.265 370.2 90.6494 370.824 91.274C372.937 93.3882 377.836 98.2891 379.949 100.403C380.621 101.076 380.957 101.941 380.957 102.854V114.385L366.118 114.433Z" fill="#142664"/>
<path d="M424.37 318.351C424.37 316.477 422.834 314.94 420.961 314.94C402.808 314.94 317.614 314.94 299.413 314.94C297.54 314.94 296.003 316.477 296.003 318.351C296.003 320.225 297.54 321.763 299.413 321.763C317.566 321.763 402.76 321.763 420.961 321.763C422.834 321.715 424.37 320.225 424.37 318.351Z" fill="#142664"/>
<path d="M429.749 325.126C429.749 323.252 428.212 321.715 426.339 321.715C407.178 321.715 313.148 321.715 293.986 321.715C292.114 321.715 290.577 323.252 290.577 325.126C290.577 327 292.114 328.538 293.986 328.538C313.148 328.538 407.178 328.538 426.339 328.538C428.26 328.538 429.749 327.048 429.749 325.126Z" fill="#142664"/>
<path d="M420.913 158.926H417.455V147.923C417.455 144.992 418.608 142.253 420.673 140.139L429.653 131.154C432.582 128.223 432.582 123.467 429.653 120.536C428.212 119.094 426.339 118.325 424.322 118.325C422.305 118.325 420.432 119.094 418.992 120.536L411.068 128.512L408.619 126.061L416.591 118.085C418.656 116.019 421.441 114.866 424.37 114.866C427.3 114.866 430.085 116.019 432.15 118.085C436.424 122.361 436.424 129.328 432.15 133.605L423.17 142.59C421.729 144.031 420.961 145.905 420.961 147.923V158.926H420.913Z" fill="#00E6B3"/>
<path d="M429.941 167.959H426.483V135.431C426.483 133.413 425.715 131.539 424.274 130.097L414.43 120.247C412.989 118.806 411.116 118.037 409.099 118.037C407.082 118.037 405.209 118.806 403.768 120.247L403.288 120.728L400.839 118.277L401.319 117.797C403.384 115.731 406.169 114.578 409.099 114.578C412.028 114.578 414.814 115.731 416.879 117.797L426.724 127.647C428.789 129.713 429.941 132.5 429.941 135.431V167.959Z" fill="#FF2E93"/>
<path d="M430.661 220.957C429.125 222.591 426.916 223.6 424.514 223.6C419.808 223.6 415.966 219.756 415.966 215.047C415.966 210.338 419.808 206.494 424.514 206.494C426.916 206.494 429.125 207.503 430.661 209.137L433.063 211.539V218.651L430.661 220.957Z" fill="#142664"/>
<path d="M368.327 129.761H356.849C356.369 129.761 355.985 129.377 355.985 128.896C355.985 128.416 356.369 128.031 356.849 128.031H367.991L381.437 114.578C381.773 114.241 382.302 114.241 382.638 114.578C382.974 114.914 382.974 115.442 382.638 115.779L368.951 129.473C368.759 129.665 368.567 129.761 368.327 129.761Z" fill="#FF2E93"/>
<path d="M382.782 125.1C382.542 125.1 382.35 125.004 382.158 124.86L377.259 119.959C376.923 119.623 376.923 119.094 377.259 118.758C377.595 118.421 378.124 118.421 378.46 118.758L382.782 123.082L391.234 114.626C391.57 114.289 392.099 114.289 392.435 114.626C392.771 114.962 392.771 115.49 392.435 115.827L383.358 124.908C383.214 125.052 382.974 125.1 382.782 125.1Z" fill="#FF2E93"/>
<path d="M395.556 162.098H382.494C382.014 162.098 381.629 161.713 381.629 161.233C381.629 160.752 382.014 160.368 382.494 160.368H395.22L403.816 151.767V143.935C403.816 143.695 403.912 143.503 404.056 143.311L410.059 137.305C410.396 136.968 410.924 136.968 411.26 137.305C411.596 137.641 411.596 138.169 411.26 138.506L405.545 144.223V152.055C405.545 152.296 405.449 152.488 405.305 152.68L396.181 161.809C395.988 162.001 395.748 162.098 395.556 162.098Z" fill="#FF2E93"/>
<path d="M412.172 183.431H402.808C402.568 183.431 402.376 183.335 402.184 183.191L387.44 168.392H382.446C381.966 168.392 381.581 168.007 381.581 167.527C381.581 167.047 381.966 166.662 382.446 166.662H387.824C388.065 166.662 388.257 166.758 388.449 166.902L403.192 181.653H412.172C412.653 181.653 413.037 182.038 413.037 182.518C413.037 182.999 412.653 183.431 412.172 183.431Z" fill="#FF2E93"/>
<path d="M421.057 233.161H400.407C399.926 233.161 399.542 232.777 399.542 232.296V215.96C399.542 215.72 399.638 215.527 399.782 215.335L411.548 203.563C411.884 203.227 412.412 203.227 412.749 203.563C413.085 203.9 413.085 204.428 412.749 204.765L401.223 216.296V231.431H420.144V226.627C420.144 226.146 420.528 225.762 421.009 225.762C421.489 225.762 421.873 226.146 421.873 226.627V232.296C421.921 232.777 421.537 233.161 421.057 233.161Z" fill="#FF2E93"/>
<path d="M356.849 251.948C356.609 251.948 356.417 251.852 356.225 251.708C355.889 251.372 355.889 250.843 356.225 250.507L369.287 237.438C369.431 237.293 369.672 237.197 369.912 237.197H385.952L399.782 223.359C400.118 223.023 400.647 223.023 400.983 223.359C401.319 223.696 401.319 224.224 400.983 224.561L386.912 238.639C386.768 238.783 386.528 238.879 386.288 238.879H370.248L357.426 251.708C357.281 251.852 357.041 251.948 356.849 251.948Z" fill="#FF2E93"/>
<path d="M417.215 309.27H376.635C376.155 309.27 375.771 308.886 375.771 308.405V285.054C375.771 284.813 375.867 284.621 376.011 284.429L387.68 272.753C387.824 272.609 388.065 272.513 388.305 272.513H428.885C429.365 272.513 429.749 272.897 429.749 273.378V296.729C429.749 296.97 429.653 297.162 429.509 297.354L417.839 309.03C417.647 309.174 417.407 309.27 417.215 309.27ZM377.499 307.54H416.831L427.972 296.393V274.243H388.641L377.499 285.39V307.54Z" fill="#00E6B3"/>
<path d="M410.059 308.405V300.381H395.412V308.405" fill="#00E6B3"/>
<path d="M410.924 308.405H409.195V301.246H396.277V308.405H394.548V300.381C394.548 299.901 394.932 299.516 395.412 299.516H410.059C410.54 299.516 410.924 299.901 410.924 300.381V308.405Z" fill="#00E6B3"/>
<path d="M416.927 282.699H388.593C388.113 282.699 387.728 282.315 387.728 281.834C387.728 281.354 388.113 280.969 388.593 280.969H416.927C417.407 280.969 417.791 281.354 417.791 281.834C417.791 282.315 417.407 282.699 416.927 282.699Z" fill="#FF2E93"/>
<path d="M416.927 288.417H388.593C388.113 288.417 387.728 288.033 387.728 287.552C387.728 287.072 388.113 286.687 388.593 286.687H416.927C417.407 286.687 417.791 287.072 417.791 287.552C417.791 288.033 417.407 288.417 416.927 288.417Z" fill="#FF2E93"/>
<path d="M416.927 294.135H388.593C388.113 294.135 387.728 293.75 387.728 293.27C387.728 292.789 388.113 292.405 388.593 292.405H416.927C417.407 292.405 417.791 292.789 417.791 293.27C417.791 293.75 417.407 294.135 416.927 294.135Z" fill="#FF2E93"/>
<path d="M376.635 274.243C376.395 274.243 376.203 274.147 376.011 274.002L361.508 259.492C361.363 259.348 361.267 259.107 361.267 258.867V245.846C361.267 245.366 361.652 244.981 362.132 244.981C362.612 244.981 362.996 245.366 362.996 245.846V258.531L377.259 272.801C377.595 273.138 377.595 273.666 377.259 274.002C377.067 274.147 376.827 274.243 376.635 274.243Z" fill="#FF2E93"/>
<path d="M366.454 275.54H356.849C356.369 275.54 355.985 275.156 355.985 274.675C355.985 274.195 356.369 273.81 356.849 273.81H366.07L371.544 268.333C371.881 267.996 372.409 267.996 372.745 268.333C373.081 268.669 373.081 269.198 372.745 269.534L366.982 275.3C366.886 275.444 366.646 275.54 366.454 275.54Z" fill="#FF2E93"/>
<path d="M287.407 224.993C287.167 224.993 286.975 224.897 286.783 224.753C286.447 224.416 286.447 223.888 286.783 223.552L309.018 201.305C309.354 200.969 309.882 200.969 310.218 201.305C310.555 201.641 310.555 202.17 310.218 202.506L287.984 224.753C287.839 224.897 287.599 224.993 287.407 224.993Z" fill="#142664"/>
<path d="M381.918 162.098H378.412C377.932 162.098 377.547 161.713 377.547 161.233C377.547 160.752 377.932 160.368 378.412 160.368H381.918C382.398 160.368 382.782 160.752 382.782 161.233C382.782 161.713 382.398 162.098 381.918 162.098Z" fill="#142664"/>
<path d="M381.918 168.392H378.412C377.932 168.392 377.547 168.007 377.547 167.527C377.547 167.047 377.932 166.662 378.412 166.662H381.918C382.398 166.662 382.782 167.047 382.782 167.527C382.782 168.007 382.398 168.392 381.918 168.392Z" fill="#142664"/>
<path d="M364.965 206.879C364.965 206.687 364.917 206.542 364.773 206.398C364.629 206.254 364.485 206.206 364.293 206.206C361.748 206.206 352.959 206.206 350.414 206.206C350.222 206.206 350.078 206.254 349.934 206.398C349.79 206.542 349.742 206.687 349.742 206.879C349.742 207.696 349.742 208.993 349.742 209.762C349.742 209.954 349.79 210.098 349.934 210.242C350.078 210.386 350.222 210.434 350.414 210.434C352.959 210.434 361.748 210.434 364.293 210.434C364.485 210.434 364.629 210.386 364.773 210.242C364.917 210.098 364.965 209.954 364.965 209.762C364.965 208.993 364.965 207.648 364.965 206.879Z" fill="#00E6B3"/>
<path d="M336.775 250.987C337.064 250.987 337.304 250.891 337.496 250.699C337.688 250.507 337.784 250.267 337.784 249.978C337.784 246.903 337.784 237.726 337.784 234.651C337.784 234.074 338.216 233.642 338.792 233.642C339.513 233.642 340.425 233.642 340.425 233.642C340.761 233.642 341.049 233.786 341.29 234.026C341.53 234.266 341.674 234.555 341.674 234.891C341.674 239.504 341.674 255.456 341.674 260.02C341.674 260.357 341.53 260.645 341.29 260.885C341.049 261.125 340.761 261.27 340.425 261.27H337.736C333.078 261.27 329.14 258.146 327.891 253.87C327.891 253.822 327.843 253.774 327.843 253.726C327.267 251.66 328.467 250.987 330.004 250.987H336.775Z" fill="#142664"/>
<path d="M305.032 111.791C304.552 111.791 304.167 111.406 304.167 110.926V103.959C304.167 102.806 304.6 101.701 305.464 100.884L314.589 91.7545C315.405 90.9377 316.509 90.4572 317.662 90.4572H366.358C366.838 90.4572 367.222 90.8416 367.222 91.3221C367.222 91.8026 366.838 92.187 366.358 92.187H317.662C316.942 92.187 316.317 92.4753 315.789 92.9557L306.665 102.085C306.184 102.565 305.896 103.238 305.896 103.959V110.926C305.896 111.406 305.512 111.791 305.032 111.791Z" fill="#142664"/>
<path d="M387.44 140.38H312.524C312.043 140.38 311.659 139.995 311.659 139.515C311.659 139.034 312.043 138.65 312.524 138.65H387.44C387.92 138.65 388.305 139.034 388.305 139.515C388.305 139.995 387.92 140.38 387.44 140.38Z" fill="#142664"/>
<path d="M332.453 140.38C332.213 140.38 332.021 140.284 331.829 140.139C331.493 139.803 331.493 139.274 331.829 138.938L342.442 128.319C342.586 128.175 342.826 128.079 343.067 128.079H356.801C357.281 128.079 357.666 128.464 357.666 128.944C357.666 129.425 357.281 129.809 356.801 129.809H343.403L333.03 140.187C332.934 140.284 332.693 140.38 332.453 140.38Z" fill="#142664"/>
<path d="M421.969 171.947L416.398 166.374V157.917C416.398 157.245 416.927 156.716 417.599 156.716C418.512 156.716 419.808 156.716 420.769 156.716C421.441 156.716 421.969 157.245 421.969 157.917C421.969 161.521 421.969 171.947 421.969 171.947Z" fill="#142664"/>
<path d="M430.998 180.933L425.427 175.359V166.95C425.427 166.278 425.955 165.749 426.627 165.749C427.54 165.749 428.837 165.749 429.797 165.749C430.469 165.749 430.998 166.278 430.998 166.95C430.998 170.554 430.998 180.933 430.998 180.933Z" fill="#142664"/>
<path d="M421.969 160.128H416.398V161.857H421.969V160.128Z" fill="white"/>
<path d="M430.998 169.161H425.427V170.89H430.998V169.161Z" fill="white"/>
<path d="M346.092 315.805C345.852 315.805 345.66 315.709 345.468 315.564L334.134 304.225C334.038 304.129 333.894 304.081 333.75 304.081H318.526C318.286 304.081 318.094 304.225 317.998 304.417C317.902 304.609 317.95 304.85 318.142 305.042L327.315 314.219C327.459 314.315 327.603 314.459 327.651 314.7C327.795 315.18 327.555 315.661 327.075 315.805C327.027 315.805 327.027 315.805 326.979 315.805C326.69 315.853 326.402 315.805 326.21 315.564L316.894 306.243C316.221 305.57 316.029 304.609 316.413 303.744C316.75 302.88 317.614 302.303 318.526 302.303H333.75C334.374 302.303 334.951 302.543 335.383 302.976L346.716 314.315C347.052 314.651 347.052 315.18 346.716 315.516C346.524 315.709 346.284 315.805 346.092 315.805Z" fill="#142664"/>
<path d="M381.341 273.378L376.635 278.087V273.378H381.341Z" fill="white"/>
<path d="M376.635 278.951C376.539 278.951 376.395 278.951 376.299 278.903C375.963 278.759 375.771 278.471 375.771 278.087V273.378C375.771 272.897 376.155 272.513 376.635 272.513H381.341C381.677 272.513 382.014 272.705 382.158 273.041C382.302 273.378 382.206 273.714 381.966 274.002L377.259 278.711C377.067 278.855 376.827 278.951 376.635 278.951ZM377.499 274.243V276.02L379.276 274.243H377.499Z" fill="white"/>
<path d="M373.706 215.624C374.042 215.287 374.522 215.191 374.954 215.383C375.386 215.576 375.674 215.96 375.674 216.44C375.674 217.545 375.674 218.699 375.674 219.323C375.674 219.612 375.578 219.9 375.338 220.14C373.658 221.822 366.022 229.462 362.372 233.113C362.036 233.45 361.556 233.546 361.123 233.353C360.691 233.161 360.403 232.777 360.403 232.296C360.403 231.191 360.403 230.038 360.403 229.413C360.403 229.125 360.499 228.837 360.739 228.597C362.42 226.915 370.056 219.275 373.706 215.624Z" fill="white"/>
<path d="M433.495 199.095C433.159 199.095 432.823 198.951 432.582 198.71L421.537 187.659C421.009 187.131 421.009 186.314 421.537 185.833C422.065 185.305 422.882 185.305 423.362 185.833L434.407 196.885C434.936 197.413 434.936 198.23 434.407 198.71C434.167 198.999 433.831 199.095 433.495 199.095Z" fill="#142664"/>
<path d="M433.495 191.167C433.159 191.167 432.823 191.023 432.582 190.782L421.537 179.731C421.009 179.203 421.009 178.386 421.537 177.905C422.065 177.377 422.882 177.377 423.362 177.905L434.407 188.957C434.936 189.485 434.936 190.302 434.407 190.782C434.167 191.071 433.831 191.167 433.495 191.167Z" fill="#142664"/>
<path d="M433.495 207.023C433.159 207.023 432.823 206.879 432.582 206.638L421.537 195.587C421.009 195.059 421.009 194.242 421.537 193.761C422.065 193.233 422.882 193.233 423.362 193.761L434.407 204.813C434.936 205.341 434.936 206.158 434.407 206.638C434.167 206.879 433.831 207.023 433.495 207.023Z" fill="#142664"/>
<path d="M422.449 322.628H298.885C298.405 322.628 298.02 322.243 298.02 321.763C298.02 321.282 298.405 320.898 298.885 320.898H422.401C422.882 320.898 423.266 321.282 423.266 321.763C423.314 322.195 422.93 322.628 422.449 322.628Z" fill="#FF2E93"/>
<path d="M429.269 220.236C432.133 220.236 434.455 217.913 434.455 215.047C434.455 212.181 432.133 209.858 429.269 209.858C426.404 209.858 424.082 212.181 424.082 215.047C424.082 217.913 426.404 220.236 429.269 220.236Z" fill="#00E6B3"/>
<path d="M429.269 217.257C430.489 217.257 431.478 216.268 431.478 215.047C431.478 213.826 430.489 212.837 429.269 212.837C428.049 212.837 427.06 213.826 427.06 215.047C427.06 216.268 428.049 217.257 429.269 217.257Z" fill="#142664"/>
<path d="M181.1 250.345C181.1 250.345 178.339 256.404 180.196 263.369C181.434 267.949 196.761 266.851 194.477 251.633L181.1 250.345Z" fill="#FF2E93"/>
<path d="M136.64 316.515C136.64 316.515 145.113 315.036 150.683 316.515C154.824 317.612 157.156 321.286 158.346 324.196C158.68 325.054 158.584 326.009 158.061 326.82C157.537 327.583 156.68 328.06 155.776 328.06C151.206 328.06 143.59 328.06 139.496 328.06C137.973 328.06 136.687 326.82 136.687 325.245C136.64 321.81 136.64 316.515 136.64 316.515Z" fill="#142664"/>
<path d="M164.44 316.515C164.44 316.515 172.913 315.036 178.482 316.515C182.624 317.612 184.956 321.286 186.146 324.196C186.479 325.054 186.384 326.009 185.861 326.82C185.337 327.583 184.48 328.06 183.576 328.06C179.006 328.06 171.389 328.06 167.296 328.06C165.772 328.06 164.487 326.82 164.487 325.245C164.44 321.81 164.44 316.515 164.44 316.515Z" fill="#142664"/>
<path d="M182.243 239.611C182.243 239.611 181.148 301.773 181.148 315.704C181.148 317.135 180.005 318.28 178.577 318.28C174.769 318.28 169.914 318.28 166.106 318.28C164.678 318.28 163.535 317.135 163.535 315.704L162.44 265.754C162.44 262.272 154.491 262.272 154.491 265.754L153.491 315.704C153.491 317.135 152.349 318.28 150.921 318.28C147.112 318.28 142.257 318.28 138.449 318.28C137.021 318.28 135.878 317.135 135.878 315.704C135.878 301.773 134.783 239.611 134.783 239.611H182.243Z" fill="#00E6B3"/>
<path d="M157.775 265.993C157.775 265.993 158.775 266.136 160.108 266.279C160.822 266.327 161.631 266.422 162.44 266.422C162.916 266.422 163.392 266.374 163.821 266.374C165.63 266.231 167.105 266.04 167.105 266.04C167.772 266.04 168.295 265.516 168.295 264.848C168.295 264.18 167.772 263.655 167.105 263.655C167.105 263.655 165.63 263.464 163.821 263.321C163.345 263.273 162.916 263.273 162.44 263.273C161.631 263.273 160.822 263.369 160.108 263.417C158.775 263.56 157.775 263.703 157.775 263.703C157.109 263.703 156.585 264.228 156.585 264.895C156.585 265.468 157.109 265.993 157.775 265.993Z" fill="#142664"/>
<path d="M146.446 248.723C146.446 248.723 146.303 250.726 145.351 253.064C144.827 254.304 144.113 255.593 143.019 256.738C142.447 257.31 141.829 257.883 141.067 258.36C139.591 259.314 137.687 259.934 135.164 260.029C134.736 260.029 134.355 260.363 134.355 260.84C134.355 261.27 134.688 261.651 135.164 261.651C138.068 261.747 140.305 261.127 142.114 260.172C143.066 259.648 143.923 258.98 144.589 258.216C145.875 256.833 146.684 255.259 147.16 253.78C148.064 251.108 148.017 248.77 148.017 248.77C148.017 248.341 147.684 247.959 147.255 247.959C146.827 247.912 146.494 248.293 146.446 248.723Z" fill="#142664"/>
<path d="M175.055 248.723C175.055 248.723 174.912 251.347 175.436 254.209C175.578 254.925 175.769 255.688 176.007 256.404C176.15 256.881 176.34 257.358 176.578 257.835C177.673 260.125 179.434 261.747 181.862 261.651C182.29 261.651 182.671 261.317 182.671 260.84C182.671 260.411 182.338 260.029 181.862 260.029C180.148 259.934 179.149 258.55 178.482 256.928C178.339 256.547 178.149 256.117 178.054 255.688C177.863 255.068 177.673 254.4 177.483 253.78C176.816 251.156 176.626 248.723 176.626 248.723C176.626 248.293 176.245 247.912 175.816 247.959C175.436 247.959 175.055 248.293 175.055 248.723Z" fill="#142664"/>
<path d="M138.734 152.831C140.115 145.77 146.208 148.728 148.874 152.497C151.682 156.409 156.633 164.233 152.063 172.916C147.493 181.599 125.787 173.345 132.26 168.431C132.879 167.954 133.498 167.382 134.069 166.714C134.307 166.428 134.403 166.094 134.355 165.76C134.307 165.426 134.165 165.092 133.879 164.853C132.07 163.374 131.261 161.609 133.022 160.846C135.021 160.082 137.592 158.222 138.734 152.831Z" fill="#142664"/>
<path d="M135.307 250.965C135.307 250.965 138.163 257.024 136.211 264.037C134.926 268.617 118.979 267.424 121.36 252.205L135.307 250.965Z" fill="#FF2E93"/>
<path d="M182.1 248.15H135.878C135.878 248.436 135.926 248.723 135.926 249.009C136.259 253.493 132.784 253.637 128.214 253.971C123.644 254.304 119.646 254.638 119.313 250.154C117.694 227.35 119.789 211.606 122.074 201.54C122.121 201.302 122.169 201.063 122.264 200.777C122.407 200.157 122.55 199.584 122.692 199.012C125.501 189.136 133.736 184.89 140.448 183.364C146.922 182.028 154.348 181.503 160.584 181.503C165.772 181.503 170.437 182.076 174.436 183.03C174.674 183.173 175.007 183.268 175.436 183.364C182.481 184.986 191.716 189.566 193.62 200.729C195.143 209.841 197.618 228.686 196.095 249.486C195.762 253.971 191.811 253.589 187.193 253.303C185.289 253.159 183.338 253.112 182.005 252.682L182.1 248.15Z" fill="#142664"/>
<path d="M145.779 180.501C145.018 180.263 143.066 177.066 142.638 174.729C139.02 155.98 146.684 144.196 146.684 144.196C146.684 144.196 159.679 137.088 179.339 146.009C179.339 146.009 181.434 156.218 178.101 173.727C176.959 179.595 172.913 181.312 171.865 181.598C171.865 181.598 171.913 182.982 171.913 184.079C171.913 184.843 171.389 185.51 170.628 185.654C167.438 186.083 158.727 186.989 147.16 185.606C146.351 185.51 145.779 184.843 145.779 184.032C145.779 182.6 145.779 180.501 145.779 180.501Z" fill="#FF2E93"/>
<path d="M170.437 181.121C170.437 181.121 170.009 181.074 169.2 181.074C168.676 181.074 168.057 181.074 167.343 181.121C166.772 181.169 166.153 181.265 165.487 181.36C165.058 181.408 164.678 181.503 164.202 181.598C163.678 181.551 163.154 181.98 163.107 182.505C163.059 183.03 163.488 183.554 164.011 183.602C164.487 183.745 164.916 183.888 165.392 183.984C166.153 184.127 166.867 184.175 167.486 184.127C168.295 184.079 169.009 183.888 169.581 183.745C170.485 183.459 170.913 183.173 170.913 183.173C171.437 183.03 171.77 182.505 171.628 181.932C171.485 181.312 170.961 180.978 170.437 181.121Z" fill="#142664"/>
<path d="M174.722 160.226C174.722 160.226 174.484 160.846 174.484 161.514C174.436 162.182 174.626 162.85 174.626 162.85C174.579 163.613 175.198 164.281 175.959 164.328C176.721 164.376 177.387 163.756 177.435 162.993C177.435 162.993 177.673 162.372 177.673 161.705C177.721 161.037 177.53 160.369 177.53 160.369C177.578 159.605 176.959 158.938 176.197 158.89C175.436 158.842 174.769 159.462 174.722 160.226Z" fill="#142664"/>
<path d="M160.108 159.939C160.108 159.939 159.87 160.56 159.87 161.227C159.822 161.895 160.013 162.563 160.013 162.563C159.965 163.327 160.584 163.994 161.345 164.042C162.107 164.09 162.773 163.47 162.821 162.706C162.821 162.706 163.059 162.086 163.059 161.418C163.107 160.75 162.916 160.082 162.916 160.082C162.964 159.319 162.345 158.651 161.583 158.604C160.822 158.556 160.155 159.176 160.108 159.939Z" fill="#142664"/>
<path d="M165.487 172.963C165.487 172.963 166.106 173.107 166.962 173.25C167.391 173.297 167.915 173.393 168.438 173.393C168.724 173.393 169.057 173.345 169.343 173.345C170.485 173.202 171.389 173.011 171.389 173.011C172.056 173.011 172.58 172.486 172.58 171.818C172.58 171.151 172.056 170.626 171.389 170.626C171.389 170.626 170.485 170.435 169.343 170.292C169.057 170.244 168.771 170.244 168.438 170.244C167.915 170.244 167.391 170.34 166.962 170.387C166.106 170.53 165.487 170.674 165.487 170.674C164.82 170.674 164.297 171.198 164.297 171.866C164.297 172.534 164.82 172.963 165.487 172.963Z" fill="#142664"/>
<path d="M158.822 161.132C158.822 161.132 159.346 161.275 160.155 161.418C160.536 161.466 161.012 161.561 161.488 161.561C161.774 161.561 162.012 161.514 162.297 161.514C163.345 161.371 164.154 161.18 164.154 161.18C164.82 161.18 165.344 160.655 165.344 159.987C165.344 159.319 164.82 158.794 164.154 158.794C164.154 158.794 163.345 158.604 162.297 158.46C162.059 158.413 161.774 158.413 161.488 158.413C161.012 158.413 160.584 158.508 160.155 158.556C159.394 158.699 158.822 158.842 158.822 158.842C158.156 158.842 157.632 159.367 157.632 160.035C157.632 160.607 158.156 161.132 158.822 161.132Z" fill="#142664"/>
<path d="M173.389 161.132C173.389 161.132 173.912 161.275 174.722 161.418C175.102 161.466 175.578 161.561 176.055 161.561C176.34 161.561 176.578 161.514 176.864 161.514C177.911 161.371 178.72 161.18 178.72 161.18C179.387 161.18 179.91 160.655 179.91 159.987C179.91 159.319 179.387 158.794 178.72 158.794C178.72 158.794 177.911 158.604 176.864 158.46C176.626 158.413 176.34 158.413 176.055 158.413C175.578 158.413 175.15 158.508 174.722 158.556C173.96 158.699 173.389 158.842 173.389 158.842C172.722 158.842 172.199 159.367 172.199 160.035C172.246 160.607 172.77 161.132 173.389 161.132Z" fill="#142664"/>
<path d="M142.114 171.294C136.069 162.229 136.449 141.763 151.397 136.086C172.913 127.975 188.098 142.192 179.958 156.123L179.339 148.013C166.582 153.213 166.486 145.293 159.632 146.2C152.777 147.106 151.968 154.739 153.443 161.323C154.205 164.901 148.921 164.996 149.588 161.609C150.064 159.176 149.54 156.457 147.208 156.838C144.066 157.363 146.208 162.038 146.065 166.046C145.922 169.338 142.114 171.294 142.114 171.294Z" fill="#142664"/>
<path d="M140.115 315.274C139.639 315.274 139.258 314.893 139.258 314.416V312.698C139.258 312.221 139.639 311.84 140.115 311.84C140.591 311.84 140.972 312.221 140.972 312.698V314.416C140.972 314.845 140.591 315.227 140.115 315.274ZM140.067 310.074C139.591 310.074 139.21 309.693 139.21 309.216V307.498C139.21 307.26 139.306 307.069 139.448 306.878C139.591 306.735 139.829 306.639 140.067 306.639C140.543 306.639 140.924 307.021 140.924 307.498V309.216C140.924 309.693 140.543 310.074 140.067 310.074ZM140.02 304.922C139.544 304.922 139.163 304.54 139.163 304.063V302.346C139.163 301.869 139.544 301.487 140.02 301.487C140.496 301.487 140.876 301.869 140.876 302.346V304.063C140.876 304.54 140.496 304.922 140.02 304.922ZM139.924 299.77C139.448 299.77 139.068 299.388 139.068 298.911V297.193C139.068 296.955 139.163 296.764 139.306 296.573C139.448 296.43 139.686 296.335 139.924 296.335C140.4 296.335 140.781 296.716 140.781 297.193V298.911C140.781 299.149 140.686 299.34 140.543 299.531C140.4 299.674 140.162 299.77 139.924 299.77ZM139.877 294.617C139.401 294.617 139.02 294.236 139.02 293.758V292.041C139.02 291.802 139.115 291.612 139.258 291.421C139.401 291.278 139.639 291.182 139.877 291.182C140.353 291.182 140.734 291.564 140.734 292.041V293.758C140.734 293.997 140.638 294.188 140.496 294.379C140.305 294.522 140.115 294.617 139.877 294.617ZM139.829 289.465C139.353 289.465 138.972 289.083 138.972 288.606V286.889C138.972 286.412 139.353 286.03 139.829 286.03C140.305 286.03 140.686 286.412 140.686 286.889V288.606C140.686 288.845 140.591 289.035 140.448 289.226C140.258 289.369 140.067 289.465 139.829 289.465ZM139.782 284.312C139.306 284.312 138.925 283.931 138.925 283.454V281.736C138.925 281.259 139.306 280.877 139.782 280.877C140.258 280.877 140.638 281.259 140.638 281.736V283.454C140.638 283.692 140.543 283.883 140.4 284.074C140.21 284.217 139.972 284.312 139.782 284.312ZM139.686 279.16C139.21 279.16 138.83 278.778 138.83 278.301V276.584C138.83 276.107 139.21 275.725 139.686 275.725C140.162 275.725 140.543 276.107 140.543 276.584V278.301C140.543 278.778 140.162 279.16 139.686 279.16ZM139.639 274.008C139.163 274.008 138.782 273.626 138.782 273.149V271.431C138.782 270.954 139.163 270.573 139.639 270.573C140.115 270.573 140.496 270.954 140.496 271.431V273.149C140.496 273.387 140.4 273.578 140.258 273.769C140.067 273.912 139.877 274.008 139.639 274.008ZM139.591 268.855C139.115 268.855 138.734 268.474 138.734 267.996V266.279C138.734 265.802 139.115 265.42 139.591 265.42C140.067 265.42 140.448 265.802 140.448 266.279V267.996C140.448 268.474 140.067 268.855 139.591 268.855Z" fill="#142664"/>
<path d="M167.296 314.034C166.82 314.034 166.439 313.652 166.439 313.175L166.391 311.458C166.391 310.981 166.772 310.599 167.248 310.599C167.724 310.599 168.105 310.981 168.105 311.458V313.175C168.105 313.414 168.01 313.605 167.867 313.796C167.772 313.939 167.534 314.034 167.296 314.034ZM167.248 308.882C166.772 308.882 166.391 308.5 166.391 308.023L166.344 306.305C166.344 305.828 166.724 305.447 167.2 305.447C167.677 305.447 168.057 305.828 168.057 306.305L168.105 308.023C168.105 308.452 167.724 308.834 167.248 308.882ZM167.153 303.729C166.677 303.729 166.296 303.348 166.296 302.871V301.153C166.296 300.915 166.391 300.724 166.534 300.533C166.677 300.342 166.915 300.294 167.153 300.294C167.629 300.294 168.01 300.676 168.01 301.153L168.057 302.871C168.01 303.3 167.629 303.682 167.153 303.729ZM167.105 298.577C166.629 298.577 166.248 298.195 166.248 297.718V296.001C166.248 295.762 166.344 295.571 166.486 295.38C166.629 295.237 166.867 295.142 167.105 295.142C167.581 295.142 167.962 295.524 167.962 296.001V297.718C167.962 298.148 167.581 298.529 167.105 298.577ZM167.058 293.377C166.582 293.377 166.201 292.995 166.201 292.518V290.801C166.201 290.562 166.296 290.371 166.439 290.18C166.582 290.037 166.82 289.942 167.058 289.942C167.534 289.942 167.915 290.324 167.915 290.801V292.518C167.867 292.995 167.486 293.377 167.058 293.377ZM166.962 288.272C166.486 288.272 166.106 287.89 166.106 287.413V285.696C166.106 285.457 166.201 285.267 166.344 285.076C166.486 284.933 166.724 284.837 166.962 284.837C167.439 284.837 167.819 285.219 167.819 285.696V287.413C167.819 287.843 167.439 288.224 166.962 288.272ZM166.915 283.12C166.439 283.12 166.058 282.738 166.058 282.261L166.01 280.544C166.01 280.066 166.391 279.685 166.867 279.685C167.343 279.685 167.724 280.066 167.724 280.544L167.772 282.261C167.724 282.738 167.343 283.072 166.915 283.12ZM166.82 277.92C166.344 277.92 165.963 277.538 165.963 277.061L165.915 275.343C165.915 274.866 166.296 274.485 166.772 274.485C167.248 274.485 167.629 274.866 167.629 275.343L167.677 277.061C167.677 277.538 167.296 277.92 166.82 277.92ZM166.772 272.767C166.296 272.767 165.915 272.386 165.915 271.908V270.191C165.915 269.952 166.01 269.762 166.153 269.571C166.296 269.38 166.534 269.332 166.772 269.332C167.248 269.332 167.629 269.714 167.629 270.191V271.908C167.629 272.386 167.248 272.767 166.772 272.767Z" fill="#142664"/>
<path d="M188.145 218.19C185.956 218.19 183.909 217.618 182.671 216.711C180.672 215.232 177.721 214.373 174.626 214.373C171.485 214.373 168.581 215.232 166.582 216.711C165.344 217.665 163.297 218.19 161.107 218.19C158.918 218.19 156.871 217.618 155.633 216.711C153.634 215.232 150.683 214.373 147.588 214.373C144.447 214.373 141.543 215.232 139.544 216.711C138.306 217.665 136.259 218.19 134.069 218.19C131.88 218.19 129.833 217.618 128.595 216.711C126.596 215.232 123.644 214.373 120.55 214.373C120.408 214.373 120.217 214.373 120.074 214.373C119.884 215.757 119.741 217.188 119.598 218.667C119.931 218.667 120.217 218.619 120.55 218.619C122.74 218.619 124.787 219.192 126.025 220.098C128.024 221.577 130.975 222.436 134.069 222.436C137.211 222.436 140.115 221.577 142.114 220.098C143.352 219.144 145.399 218.619 147.588 218.619C149.778 218.619 151.825 219.192 153.063 220.098C155.062 221.577 158.013 222.436 161.107 222.436C164.249 222.436 167.153 221.577 169.152 220.098C170.39 219.144 172.437 218.619 174.626 218.619C176.816 218.619 178.863 219.192 180.101 220.098C182.1 221.577 185.051 222.436 188.145 222.436C191.144 222.436 193.953 221.625 195.952 220.241C195.809 218.619 195.714 217.045 195.571 215.518C194.857 215.852 194.239 216.186 193.667 216.616C192.382 217.618 190.335 218.19 188.145 218.19Z" fill="#00E6B3"/>
<path d="M195.667 229.592C195.905 229.401 196.143 229.258 196.428 229.115C196.381 228.161 196.333 227.254 196.333 226.348C195.524 226.682 194.81 227.064 194.143 227.541C192.763 228.59 190.526 229.21 188.145 229.21C185.765 229.21 183.528 228.59 182.148 227.541C180.291 226.157 177.53 225.346 174.626 225.346C171.675 225.346 168.914 226.157 167.105 227.541C165.725 228.59 163.488 229.21 161.107 229.21C158.727 229.21 156.49 228.59 155.11 227.541C153.253 226.157 150.492 225.346 147.588 225.346C144.637 225.346 141.876 226.157 140.067 227.541C138.687 228.59 136.449 229.21 134.069 229.21C131.689 229.21 129.452 228.59 128.071 227.541C126.215 226.157 123.454 225.346 120.55 225.346C120.074 225.346 119.598 225.394 119.122 225.394C119.075 226.253 119.027 227.111 119.027 227.97C119.503 227.922 120.027 227.875 120.55 227.875C122.93 227.875 125.168 228.495 126.548 229.544C128.405 230.928 131.166 231.739 134.069 231.739C137.021 231.739 139.782 230.928 141.59 229.544C142.971 228.495 145.208 227.875 147.588 227.875C149.968 227.875 152.206 228.495 153.586 229.544C155.443 230.928 158.204 231.739 161.107 231.739C164.059 231.739 166.82 230.928 168.629 229.544C170.009 228.495 172.246 227.875 174.626 227.875C177.007 227.875 179.244 228.495 180.624 229.544C182.481 230.928 185.242 231.739 188.145 231.739C191.097 231.787 193.81 230.976 195.667 229.592Z" fill="#00E6B3"/>
<path d="M137.735 205.929C136.973 208.505 136.164 211.845 135.545 215.948C135.069 218.953 134.688 222.341 134.498 226.109C134.403 228.065 134.355 230.117 134.355 232.264C134.355 236.605 134.593 241.376 135.021 246.528C135.069 246.958 135.45 247.291 135.878 247.244C136.307 247.196 136.64 246.814 136.592 246.385C136.307 241.09 136.307 236.223 136.402 231.834C136.449 229.783 136.545 227.875 136.64 226.014C136.735 224.678 136.783 223.39 136.878 222.15C137.401 215.328 138.258 210.032 139.258 206.263C139.353 205.834 139.115 205.404 138.734 205.261C138.306 205.261 137.83 205.5 137.735 205.929Z" fill="white"/>
<path d="M183.052 245.24C183.052 245.24 183.195 241.09 183.385 235.46C183.48 232.455 183.576 229.067 183.623 225.68C183.671 223.676 183.671 221.72 183.671 219.812C183.671 212.322 183.623 206.12 183.623 206.12C183.623 205.691 183.29 205.309 182.862 205.309C182.433 205.309 182.052 205.643 182.052 206.072C182.052 206.072 181.814 212.274 181.624 219.764C181.576 221.673 181.529 223.629 181.481 225.632C181.434 229.02 181.434 232.407 181.434 235.412C181.434 241.042 181.481 245.192 181.481 245.192C181.481 245.622 181.814 246.003 182.243 246.003C182.671 246.051 183.052 245.717 183.052 245.24Z" fill="white"/>
<path d="M116.604 329.492H451.783C452.665 329.492 453.467 328.981 453.467 328.299C453.467 327.673 452.746 327.105 451.783 327.105H116.604C115.722 327.105 114.92 327.617 114.92 328.299C115 328.981 115.722 329.492 116.604 329.492Z" fill="#142664"/>
<path d="M349.85 100.311H332.68V109.157H349.85V100.311Z" fill="#00E6B3"/>
<path d="M332.68 104.028C332.209 104.028 331.831 103.652 331.831 103.181V100.311C331.831 99.8399 332.209 99.4635 332.68 99.4635H335.558C336.029 99.4635 336.407 99.8399 336.407 100.311C336.407 102.381 334.709 104.028 332.68 104.028ZM333.529 101.158V102.146C333.954 101.958 334.331 101.581 334.52 101.158H333.529Z" fill="#142664"/>
<path d="M349.85 100.311H346.973C346.973 101.863 348.246 103.134 349.85 103.134V100.311Z" fill="#142664"/>
<path d="M332.68 109.204V106.334C334.237 106.334 335.51 107.604 335.51 109.204H332.68Z" fill="#142664"/>
<path d="M349.85 109.204V106.334C348.293 106.334 347.02 107.604 347.02 109.204H349.85Z" fill="#142664"/>
<path d="M341.26 107.107C342.563 107.107 343.618 106.054 343.618 104.754C343.618 103.455 342.563 102.401 341.26 102.401C339.957 102.401 338.901 103.455 338.901 104.754C338.901 106.054 339.957 107.107 341.26 107.107Z" fill="#142664"/>
<path d="M333.671 95.04L318.812 103.605L323.246 111.275L338.105 102.71L333.671 95.04Z" fill="#00E6B3"/>
<path d="M318.812 103.605L321.312 102.193C322.114 103.557 321.643 105.299 320.275 106.099L318.812 103.605Z" fill="#142664"/>
<path d="M333.671 95.04L331.171 96.4517C331.973 97.8164 333.718 98.287 335.086 97.487L333.671 95.04Z" fill="#142664"/>
<path d="M323.246 111.275L321.831 108.781C323.199 108.028 324.945 108.499 325.746 109.816L323.246 111.275Z" fill="#142664"/>
<path d="M338.105 102.758L336.69 100.263C335.322 101.063 334.85 102.805 335.652 104.169L338.105 102.758Z" fill="#142664"/>
<path d="M327.256 101.158C328.388 100.499 329.803 100.875 330.463 102.005C331.124 103.134 330.746 104.546 329.614 105.205C328.482 105.863 327.067 105.487 326.407 104.357C325.794 103.228 326.171 101.816 327.256 101.158Z" fill="#142664"/>
<path d="M338.105 102.758L335.605 98.4752C335.322 97.9576 335.463 97.2988 335.982 97.0164C336.501 96.7341 337.161 96.8753 337.444 97.3929L340.463 102.569C340.746 103.087 340.605 103.746 340.086 104.028L330.416 109.581C329.897 109.863 329.237 109.722 328.954 109.204C328.671 108.687 328.812 108.028 329.331 107.746L338.105 102.758Z" fill="white"/>
<path d="M339.766 185.765C341.2 185.765 342.363 184.643 342.363 183.26C342.363 181.876 341.2 180.755 339.766 180.755C338.332 180.755 337.169 181.876 337.169 183.26C337.169 184.643 338.332 185.765 339.766 185.765Z" fill="#142664"/>
<path d="M356.645 185.765C358.079 185.765 359.242 184.643 359.242 183.26C359.242 181.876 358.079 180.755 356.645 180.755C355.211 180.755 354.048 181.876 354.048 183.26C354.048 184.643 355.211 185.765 356.645 185.765Z" fill="#142664"/>
<path d="M322.021 156.329C322.562 155.808 323.319 155.494 324.185 155.808L330.244 157.582H366.383C367.032 157.582 367.682 157.895 368.114 158.417C368.547 158.939 368.547 159.67 368.331 160.296L361.731 177.832C361.406 178.667 360.649 179.189 359.783 179.189H336.628C335.762 179.189 335.005 178.667 334.68 177.832L328.405 161.235L325.7 160.4C325.159 161.027 324.401 161.34 323.536 161.34C322.021 161.34 320.723 160.087 320.723 158.626C320.723 157.686 321.264 156.851 322.021 156.329ZM341.064 175.222V169.899H336.195L338.143 175.222H341.064ZM345.176 169.899V175.222H351.343V169.899H345.176ZM360.324 169.899H355.347V175.222H358.268L360.324 169.899ZM332.949 161.653L334.572 165.933H340.956V161.653H332.949ZM345.176 161.653V165.933H351.343V161.653H345.176ZM355.455 161.653V165.933H361.947L363.57 161.653H355.455Z" fill="#142664"/>
<path d="M251.485 271.233C251.485 270.852 251.343 270.519 251.059 270.233C250.774 269.948 250.443 269.805 250.064 269.805C246.7 269.805 238.125 269.805 234.761 269.805C234.382 269.805 234.051 269.948 233.766 270.233C233.482 270.519 233.34 270.852 233.34 271.233C233.34 273.897 233.34 279.608 233.34 282.225C233.34 282.606 233.482 282.939 233.766 283.224C234.051 283.51 234.382 283.652 234.761 283.652C238.125 283.652 246.7 283.652 250.064 283.652C250.443 283.652 250.774 283.51 251.059 283.224C251.343 282.939 251.485 282.606 251.485 282.225C251.485 279.56 251.485 273.85 251.485 271.233Z" fill="white"/>
<path d="M245.563 280.036C245.563 279.655 245.231 279.322 244.852 279.322C243.052 279.322 238.267 279.322 236.419 279.322C236.04 279.322 235.709 279.655 235.709 280.036C235.709 280.274 235.709 280.512 235.709 280.702C235.709 281.083 236.04 281.416 236.419 281.416C238.22 281.416 243.005 281.416 244.852 281.416C245.231 281.416 245.563 281.083 245.563 280.702C245.563 280.464 245.563 280.226 245.563 280.036Z" fill="#142664"/>
<path d="M241.726 272.042C242.105 272.042 242.436 272.375 242.436 272.755C242.436 272.993 242.436 273.231 242.436 273.422C242.436 273.802 242.105 274.135 241.726 274.135C240.446 274.135 237.699 274.135 236.419 274.135C236.04 274.135 235.709 273.802 235.709 273.422C235.709 273.184 235.709 272.946 235.709 272.755C235.709 272.375 236.04 272.042 236.419 272.042C237.699 272.042 240.446 272.042 241.726 272.042ZM244.568 272.755C244.568 272.375 244.9 272.042 245.279 272.042C246.132 272.042 247.6 272.042 248.5 272.042C248.879 272.042 249.211 272.375 249.211 272.755C249.211 272.993 249.211 273.231 249.211 273.422C249.211 273.802 248.879 274.135 248.5 274.135C247.648 274.135 246.179 274.135 245.279 274.135C244.9 274.135 244.568 273.802 244.568 273.422C244.568 273.184 244.568 272.946 244.568 272.755Z" fill="#142664"/>
<path d="M237.793 275.658C238.172 275.658 238.504 275.991 238.504 276.372V277.038C238.504 277.419 238.172 277.752 237.793 277.752H236.419C236.04 277.752 235.709 277.419 235.709 277.038V276.372C235.709 275.991 236.04 275.658 236.419 275.658H237.793ZM240.636 276.372C240.636 275.991 240.968 275.658 241.347 275.658H248.5C248.879 275.658 249.211 275.991 249.211 276.372V277.038C249.211 277.419 248.879 277.752 248.5 277.752H241.347C240.968 277.752 240.636 277.419 240.636 277.038V276.372Z" fill="#142664"/>
<path d="M169.755 180.284C169.755 180.284 169.322 180.235 168.505 180.235C167.975 180.235 167.35 180.235 166.628 180.284C166.051 180.332 165.425 180.429 164.752 180.526C164.319 180.575 163.934 180.672 163.453 180.769C162.924 180.72 162.394 181.157 162.346 181.69C162.298 182.224 162.731 182.757 163.26 182.806C163.741 182.951 164.174 183.097 164.656 183.194C165.425 183.339 166.147 183.388 166.772 183.339C167.59 183.291 168.312 183.097 168.889 182.951C169.804 182.66 170.237 182.369 170.237 182.369C170.766 182.224 171.103 181.69 170.958 181.108C170.814 180.478 170.285 180.138 169.755 180.284Z" fill="#142664"/>
<path d="M144.807 179.34C144.037 179.097 142.065 175.847 141.632 173.471C139.73 163.557 140.073 153.892 140.839 148.761C142.25 139.317 150.373 132.024 159.845 131.813C160.161 131.806 159.528 131.806 159.845 131.812C170.425 132.018 179.407 138.846 179.382 149.513C179.372 154.211 178.948 164.668 177.475 172.452C176.321 178.418 172.231 180.164 171.173 180.455C171.173 180.455 171.221 182.347 171.221 183.462C171.221 184.238 170.692 184.917 169.922 185.063C166.698 185.499 157.894 186.421 146.203 185.014C145.385 184.917 144.808 184.238 144.808 183.414C144.807 181.959 144.807 179.34 144.807 179.34Z" fill="#FF2E93"/>
<path d="M169.755 180.284C169.755 180.284 169.322 180.235 168.505 180.235C167.975 180.235 167.35 180.235 166.628 180.284C166.051 180.332 165.425 180.429 164.752 180.526C164.319 180.575 163.934 180.672 163.453 180.769C162.924 180.72 162.394 181.157 162.346 181.69C162.298 182.224 162.731 182.757 163.26 182.806C163.741 182.951 164.174 183.097 164.656 183.194C165.425 183.339 166.147 183.388 166.772 183.339C167.59 183.291 168.312 183.097 168.889 182.951C169.804 182.66 170.237 182.369 170.237 182.369C170.766 182.224 171.103 181.69 170.958 181.108C170.814 180.478 170.285 180.138 169.755 180.284Z" fill="#142664"/>
<path d="M173.179 160.287C173.179 160.287 172.945 160.895 172.945 161.549C172.898 162.203 173.085 162.857 173.085 162.857C173.039 163.605 173.647 164.259 174.397 164.306C175.146 164.352 175.802 163.745 175.849 162.997C175.849 162.997 176.083 162.39 176.083 161.736C176.13 161.082 175.942 160.427 175.942 160.427C175.989 159.68 175.38 159.026 174.631 158.979C173.882 158.932 173.226 159.54 173.179 160.287Z" fill="#142664"/>
<path d="M158.802 160.007C158.802 160.007 158.567 160.614 158.567 161.268C158.521 161.923 158.708 162.577 158.708 162.577C158.661 163.324 159.27 163.979 160.019 164.025C160.769 164.072 161.424 163.465 161.471 162.717C161.471 162.717 161.705 162.11 161.705 161.455C161.752 160.801 161.565 160.147 161.565 160.147C161.612 159.399 161.003 158.745 160.253 158.699C159.504 158.652 158.848 159.259 158.802 160.007Z" fill="#142664"/>
<path d="M176.972 154.815C176.972 154.815 176.916 154.653 176.785 154.406C176.648 154.171 176.422 153.864 176.115 153.602C175.778 153.348 175.374 153.095 174.926 152.954C174.673 152.881 174.39 152.828 174.122 152.85C173.602 152.842 173.121 152.939 172.784 153.079C172.448 153.215 172.258 153.348 172.258 153.348C172.07 153.438 172.149 153.81 172.366 154.123C172.612 154.475 172.848 154.695 172.91 154.674C172.91 154.674 173.323 154.578 173.89 154.742C174.031 154.8 174.176 154.826 174.333 154.865C174.584 154.944 174.838 155.021 175.036 155.116C175.22 155.209 175.355 155.296 175.448 155.358C175.531 155.419 175.587 155.457 175.587 155.457C175.587 155.51 175.957 155.455 176.332 155.376C176.8 155.277 177.08 155 176.972 154.815Z" fill="#142664"/>
<path d="M158.34 155.469C158.34 155.469 158.385 155.43 158.462 155.365C158.551 155.303 158.679 155.211 158.874 155.13C159.06 155.02 159.321 154.946 159.573 154.872C159.715 154.824 159.868 154.782 160.008 154.714C160.29 154.626 160.557 154.589 160.734 154.598C160.912 154.602 161.021 154.623 161.021 154.623C161.082 154.673 161.338 154.401 161.564 154.092C161.817 153.745 161.844 153.407 161.684 153.302C161.684 153.302 161.487 153.165 161.144 153.031C160.799 152.891 160.312 152.803 159.797 152.82C159.525 152.807 159.262 152.866 158.994 152.957C158.545 153.09 158.138 153.338 157.813 153.602C157.501 153.852 157.27 154.156 157.137 154.398C157.068 154.516 157.03 154.633 157 154.703C156.974 154.776 156.959 154.816 156.959 154.816C156.86 155.032 157.162 155.277 157.533 155.365C157.998 155.471 158.362 155.52 158.34 155.469Z" fill="#142664"/>
<path d="M167.358 172.395C169.091 172.395 170.496 171.125 170.496 169.557C170.496 167.99 169.091 166.72 167.358 166.72C165.625 166.72 164.22 167.99 164.22 169.557C164.22 171.125 165.625 172.395 167.358 172.395Z" fill="#142664"/>
<path d="M187.491 140.028C187.378 136.709 186.038 133.715 183.882 131.635C183.597 131.36 183.361 131.043 183.182 130.689C181.087 126.542 176.737 123.69 171.709 123.69C167.973 123.69 164.619 125.264 162.281 127.772C161.517 128.593 160.446 129.041 159.332 128.96C158.943 128.932 158.535 128.917 158.067 128.917C151.837 128.917 147.382 131.055 144.89 134.982C144.383 135.781 143.581 136.321 142.672 136.566C140.399 137.178 139.07 139.536 138.484 141.117C136.054 147.637 137.117 159.409 137.117 159.409H137.122C137.398 163.172 138.173 166.724 139.567 169.539C140.054 170.521 141.316 170.784 142.179 170.114C143.034 169.45 143.989 168.491 144.448 167.281C144.511 167.126 144.564 166.965 144.607 166.8C144.689 166.489 144.742 166.168 144.757 165.827C144.868 162.657 143.583 159.074 144.501 157.381C144.762 156.89 145.206 156.56 145.916 156.443C146.336 156.375 146.698 156.404 147.002 156.516C148.437 157.026 148.727 159.263 148.331 161.305C147.654 164.758 153.015 164.66 152.242 161.014C151.233 156.497 151.278 151.494 153.538 148.427C153.653 148.271 153.856 148.207 154.041 148.262C156.012 148.837 158.261 149.494 160.592 148.921C162.697 148.405 164.47 148.128 165.986 148.021C169.478 147.764 171.697 148.225 173.409 149.023C175.161 149.841 176.09 150.131 178.057 150.247C178.29 150.261 178.479 150.443 178.499 150.678L178.54 151.16C178.623 152.131 178.652 153.105 178.628 154.079C178.621 154.398 178.923 154.633 179.228 154.545C179.318 154.519 179.401 154.494 179.463 154.472C184.231 152.829 187.699 146.033 187.491 140.028Z" fill="#142664"/>
<path d="M150.733 262.633V279.364C150.733 281.207 149.221 282.698 147.359 282.698H114.951C113.089 282.698 111.577 281.207 111.577 279.364V262.633C111.577 260.793 113.089 259.3 114.951 259.3H147.359C149.221 259.3 150.733 260.793 150.733 262.633Z" fill="#142664"/>
<path d="M121.445 269.952H116.952C116.393 269.952 115.94 269.504 115.94 268.952V266.724C115.94 266.172 116.393 265.724 116.952 265.724H121.445C122.004 265.724 122.457 266.172 122.457 266.724V268.952C122.457 269.504 122.004 269.952 121.445 269.952Z" fill="#FF2E93"/>
<path d="M124.613 275.692H116.615C116.242 275.692 115.94 275.393 115.94 275.025V274.728C115.94 274.36 116.242 274.062 116.615 274.062H124.613C124.986 274.062 125.288 274.36 125.288 274.728V275.025C125.288 275.393 124.986 275.692 124.613 275.692Z" fill="#00E6B3"/>
<path d="M145.736 275.692H137.738C137.365 275.692 137.063 275.393 137.063 275.025V274.728C137.063 274.36 137.365 274.062 137.738 274.062H145.736C146.109 274.062 146.41 274.36 146.41 274.728V275.025C146.41 275.393 146.109 275.692 145.736 275.692Z" fill="#00E6B3"/>
<path d="M135.174 275.692H127.176C126.804 275.692 126.502 275.393 126.502 275.025V274.728C126.502 274.36 126.804 274.062 127.176 274.062H135.174C135.547 274.062 135.849 274.36 135.849 274.728V275.025C135.849 275.393 135.547 275.692 135.174 275.692Z" fill="#00E6B3"/>
<path d="M143.708 266.901C143.645 266.901 143.585 266.866 143.556 266.806C143.516 266.723 143.551 266.623 143.635 266.584C143.969 266.426 144.184 266.088 144.184 265.721C144.184 265.353 143.976 265.023 143.64 264.86C143.557 264.819 143.522 264.72 143.563 264.637C143.604 264.554 143.705 264.52 143.789 264.561C144.241 264.78 144.521 265.225 144.521 265.721C144.521 266.215 144.23 266.672 143.781 266.884C143.757 266.895 143.733 266.901 143.708 266.901Z" fill="white"/>
<path d="M145.088 268.447C145.036 268.447 144.985 268.424 144.952 268.379C144.897 268.305 144.914 268.2 144.989 268.146C145.774 267.58 146.242 266.673 146.242 265.721C146.242 264.772 145.777 263.868 144.998 263.301C144.923 263.247 144.907 263.142 144.962 263.068C145.018 262.994 145.123 262.978 145.198 263.033C146.063 263.662 146.58 264.667 146.58 265.721C146.58 266.78 146.059 267.787 145.188 268.415C145.157 268.437 145.123 268.447 145.088 268.447Z" fill="white"/>
<path d="M144.363 267.634C144.308 267.634 144.254 267.607 144.222 267.559C144.171 267.482 144.193 267.378 144.271 267.328C144.823 266.971 145.152 266.37 145.152 265.721C145.152 265.072 144.826 264.474 144.278 264.12C144.2 264.07 144.178 263.967 144.229 263.89C144.28 263.812 144.384 263.791 144.462 263.841C145.106 264.256 145.49 264.959 145.49 265.721C145.49 266.483 145.103 267.188 144.455 267.607C144.427 267.625 144.394 267.634 144.363 267.634Z" fill="white"/>
<path d="M129.006 263.518C132.259 263.518 134.895 260.881 134.895 257.629C134.895 254.376 132.259 251.74 129.006 251.74C125.754 251.74 123.117 254.376 123.117 257.629C123.117 260.881 125.754 263.518 129.006 263.518Z" fill="#FF2E93"/>
<path d="M129.006 250.227C124.947 250.227 121.605 253.57 121.605 257.629C121.605 261.688 124.947 265.03 129.006 265.03C133.065 265.03 136.407 261.688 136.407 257.629C136.407 253.49 133.065 250.227 129.006 250.227ZM129.006 253.252C131.394 253.252 133.383 255.241 133.383 257.629C133.383 260.016 131.394 262.006 129.006 262.006C126.619 262.006 124.629 260.016 124.629 257.629C124.629 255.241 126.539 253.252 129.006 253.252Z" fill="#FF2E93"/>
<path d="M285.049 159.535C285.049 159.535 279.971 158.272 273.135 156.523C269.522 155.552 265.42 154.483 261.319 153.414C258.975 152.734 256.534 152.054 254.288 151.373C245.303 148.653 237.881 146.224 237.881 146.224C237.1 146.029 236.612 145.155 236.807 144.28C237.003 143.503 237.881 143.017 238.76 143.211C238.76 143.211 246.28 145.058 255.362 147.39C257.705 147.973 260.049 148.653 262.491 149.333C266.592 150.499 270.694 151.762 274.209 152.831C280.947 154.871 285.928 156.523 285.928 156.523C286.709 156.717 287.197 157.592 287.002 158.466C286.807 159.341 285.928 159.73 285.049 159.535Z" fill="#FF2E93"/>
<path d="M291.592 153.317C291.592 153.317 289.346 152.151 286.416 150.499C284.854 149.625 283.096 148.653 281.338 147.584C280.361 147.001 279.287 146.321 278.408 145.641C274.697 143.114 271.67 140.88 271.67 140.88C270.986 140.394 270.693 139.422 271.182 138.742C271.67 138.062 272.647 137.77 273.33 138.256C273.33 138.256 276.65 140.005 280.557 142.24C281.533 142.823 282.607 143.406 283.584 143.989C285.342 145.058 287.002 146.224 288.467 147.293C291.299 149.236 293.252 150.693 293.252 150.693C293.935 151.179 294.228 152.151 293.74 152.831C293.252 153.511 292.275 153.705 291.592 153.317Z" fill="#FF2E93"/>
<path d="M271.573 207.73C271.573 207.73 273.623 206.272 276.358 204.329C277.822 203.26 279.483 202.191 281.24 201.025C282.217 200.345 283.291 199.762 284.268 199.276C288.174 197.041 291.494 195.292 291.494 195.292C292.178 194.807 293.154 195.098 293.643 195.778C294.131 196.458 293.838 197.43 293.154 197.916C293.154 197.916 290.127 200.151 286.416 202.677C285.44 203.357 284.463 204.037 283.486 204.62C281.729 205.689 279.971 206.661 278.408 207.535C275.479 209.187 273.233 210.353 273.233 210.353C272.549 210.839 271.573 210.547 271.084 209.867C270.596 209.09 270.791 208.118 271.573 207.73Z" fill="#FF2E93"/>
<path d="M237.881 203.746C237.881 203.746 242.862 202.094 249.6 200.053C253.213 198.985 257.217 197.722 261.319 196.556C263.662 195.875 266.104 195.195 268.448 194.612C277.53 192.28 285.049 190.434 285.049 190.434C285.83 190.24 286.709 190.726 287.002 191.503C287.197 192.28 286.709 193.155 285.928 193.446C285.928 193.446 278.506 195.875 269.522 198.596C267.276 199.276 264.834 200.053 262.491 200.636C258.389 201.802 254.288 202.871 250.674 203.746C243.838 205.495 238.76 206.758 238.76 206.758C237.979 206.952 237.1 206.466 236.807 205.689C236.612 204.815 237.1 203.94 237.881 203.746Z" fill="#FF2E93"/>
<path d="M278.604 178.094H267.666C265.909 178.094 264.541 176.637 264.541 174.985C264.541 173.333 266.006 171.875 267.666 171.875H278.701C280.459 171.875 281.826 173.333 281.826 174.985C281.826 176.637 280.362 178.094 278.604 178.094Z" fill="#FF2E93"/>
<path d="M242.081 178.094H203.995C202.237 178.094 200.87 176.637 200.87 174.985C200.87 173.333 202.335 171.875 203.995 171.875H242.081C243.838 171.875 245.206 173.333 245.206 174.985C245.206 176.637 243.741 178.094 242.081 178.094Z" fill="#FF2E93"/>
<path d="M255.557 178.094H253.995C252.237 178.094 250.87 176.637 250.87 174.985C250.87 173.333 252.334 171.875 253.995 171.875H255.557C257.315 171.875 258.682 173.333 258.682 174.985C258.682 176.637 257.315 178.094 255.557 178.094Z" fill="#FF2E93"/>
<defs>
<clipPath id="clip0_4_473">
<rect width="146.711" height="140.236" fill="white"/>
</clipPath>
<clipPath id="clip1_4_473">
<rect width="146.711" height="140.236" fill="white" transform="translate(564.711 446.236) rotate(-180)"/>
</clipPath>
</defs>
</svg>
